Mitr-600.ufo
<glyph name="exclam" format="1">
  <advance width="259"/>
  <unicode hex="0021"/>
  <note>
	exclam
  </note>
  <outline>
    <contour>
      <point x="170" y="178" type="line" smooth="yes"/>
      <point x="210" y="178"/>
      <point x="225" y="195"/>
      <point x="225" y="228" type="curve" smooth="yes"/>
      <point x="232" y="629" type="line" smooth="yes"/>
      <point x="232" y="663"/>
      <point x="219" y="680"/>
      <point x="179" y="680" type="curve" smooth="yes"/>
      <point x="81" y="680" type="line" smooth="yes"/>
      <point x="42" y="680"/>
      <point x="29" y="663"/>
      <point x="29" y="629" type="curve" smooth="yes"/>
      <point x="35" y="228" type="line" smooth="yes"/>
      <point x="35" y="195"/>
      <point x="49" y="178"/>
      <point x="89" y="178" type="curve" smooth="yes"/>
    </contour>
    <contour>
      <point x="159" y="0" type="line" smooth="yes"/>
      <point x="211" y="0"/>
      <point x="236" y="16"/>
      <point x="236" y="50" type="curve" smooth="yes"/>
      <point x="236" y="74" type="line" smooth="yes"/>
      <point x="236" y="108"/>
      <point x="211" y="124"/>
      <point x="159" y="124" type="curve" smooth="yes"/>
      <point x="99" y="124" type="line" smooth="yes"/>
      <point x="47" y="124"/>
      <point x="23" y="108"/>
      <point x="23" y="74" type="curve" smooth="yes"/>
      <point x="23" y="50" type="line" smooth="yes"/>
      <point x="23" y="16"/>
      <point x="47" y="0"/>
      <point x="99" y="0" type="curve" smooth="yes"/>
    </contour>
  </outline>
</glyph>
<glyph name="dollar" format="1">
  <advance width="606"/>
  <unicode hex="0024"/>
  <note>
	dollar
  </note>
  <outline>
    <contour>
      <point x="344" y="-93" type="line" smooth="yes"/>
      <point x="384" y="-93"/>
      <point x="398" y="-77"/>
      <point x="398" y="-43" type="curve" smooth="yes"/>
      <point x="398" y="-9" type="line"/>
      <point x="524" y="11"/>
      <point x="583" y="84"/>
      <point x="583" y="180" type="curve" smooth="yes"/>
      <point x="583" y="301"/>
      <point x="520" y="338"/>
      <point x="380" y="397" type="curve" smooth="yes"/>
      <point x="301" y="430"/>
      <point x="252" y="442"/>
      <point x="252" y="491" type="curve" smooth="yes"/>
      <point x="252" y="535"/>
      <point x="285" y="551"/>
      <point x="342" y="551" type="curve" smooth="yes"/>
      <point x="403" y="551"/>
      <point x="449" y="535"/>
      <point x="481" y="513" type="curve" smooth="yes"/>
      <point x="496" y="503"/>
      <point x="503" y="503"/>
      <point x="513" y="518" type="curve" smooth="yes"/>
      <point x="562" y="596" type="line" smooth="yes"/>
      <point x="572" y="612"/>
      <point x="570" y="622"/>
      <point x="551" y="636" type="curve" smooth="yes"/>
      <point x="512" y="664"/>
      <point x="463" y="681"/>
      <point x="398" y="689" type="curve"/>
      <point x="398" y="724" type="line" smooth="yes"/>
      <point x="398" y="758"/>
      <point x="384" y="775"/>
      <point x="344" y="775" type="curve" smooth="yes"/>
      <point x="264" y="775" type="line" smooth="yes"/>
      <point x="224" y="775"/>
      <point x="211" y="758"/>
      <point x="211" y="724" type="curve" smooth="yes"/>
      <point x="211" y="682" type="line"/>
      <point x="114" y="660"/>
      <point x="51" y="598"/>
      <point x="51" y="492" type="curve" smooth="yes"/>
      <point x="51" y="371"/>
      <point x="157" y="319"/>
      <point x="265" y="277" type="curve" smooth="yes"/>
      <point x="350" y="244"/>
      <point x="382" y="233"/>
      <point x="382" y="187" type="curve" smooth="yes"/>
      <point x="382" y="146"/>
      <point x="356" y="128"/>
      <point x="290" y="128" type="curve" smooth="yes"/>
      <point x="228" y="128"/>
      <point x="161" y="146"/>
      <point x="112" y="175" type="curve" smooth="yes"/>
      <point x="96" y="184"/>
      <point x="89" y="185"/>
      <point x="79" y="170" type="curve" smooth="yes"/>
      <point x="30" y="92" type="line" smooth="yes"/>
      <point x="19" y="75"/>
      <point x="21" y="66"/>
      <point x="41" y="52" type="curve" smooth="yes"/>
      <point x="82" y="23"/>
      <point x="146" y="3"/>
      <point x="211" y="-6" type="curve"/>
      <point x="211" y="-43" type="line" smooth="yes"/>
      <point x="211" y="-77"/>
      <point x="224" y="-93"/>
      <point x="264" y="-93" type="curve" smooth="yes"/>
    </contour>
  </outline>
</glyph>
<glyph name="slash" format="1">
  <advance width="511"/>
  <unicode hex="002F"/>
  <note>
	slash
  </note>
  <outline>
    <contour>
      <point x="196" y="0" type="line" smooth="yes"/>
      <point x="215" y="0"/>
      <point x="224" y="9"/>
      <point x="230" y="23" type="curve" smooth="yes"/>
      <point x="484" y="643" type="line" smooth="yes"/>
      <point x="492" y="662"/>
      <point x="490" y="680"/>
      <point x="469" y="680" type="curve" smooth="yes"/>
      <point x="315" y="680" type="line" smooth="yes"/>
      <point x="296" y="680"/>
      <point x="287" y="670"/>
      <point x="281" y="656" type="curve" smooth="yes"/>
      <point x="27" y="37" type="line" smooth="yes"/>
      <point x="19" y="17"/>
      <point x="21" y="0"/>
      <point x="42" y="0" type="curve" smooth="yes"/>
    </contour>
  </outline>
</glyph>
<glyph name="zero" format="1">
  <advance width="742"/>
  <unicode hex="0030"/>
  <note>
	zero
  </note>
  <outline>
    <contour>
      <point x="605" y="-15"/>
      <point x="719" y="112"/>
      <point x="719" y="340" type="curve" smooth="yes"/>
      <point x="719" y="568"/>
      <point x="605" y="695"/>
      <point x="371" y="695" type="curve" smooth="yes"/>
      <point x="137" y="695"/>
      <point x="23" y="568"/>
      <point x="23" y="340" type="curve" smooth="yes"/>
      <point x="23" y="112"/>
      <point x="137" y="-15"/>
      <point x="371" y="-15" type="curve" smooth="yes"/>
    </contour>
    <contour>
      <point x="343" y="128"/>
      <point x="320" y="133"/>
      <point x="301" y="142" type="curve"/>
      <point x="503" y="427" type="line"/>
      <point x="512" y="404"/>
      <point x="518" y="375"/>
      <point x="518" y="340" type="curve" smooth="yes"/>
      <point x="518" y="197"/>
      <point x="477" y="128"/>
      <point x="371" y="128" type="curve" smooth="yes"/>
    </contour>
    <contour>
      <point x="229" y="278"/>
      <point x="224" y="305"/>
      <point x="224" y="340" type="curve" smooth="yes"/>
      <point x="224" y="483"/>
      <point x="265" y="551"/>
      <point x="371" y="551" type="curve" smooth="yes"/>
      <point x="398" y="551"/>
      <point x="420" y="546"/>
      <point x="438" y="536" type="curve"/>
      <point x="239" y="256" type="line"/>
    </contour>
  </outline>
</glyph>
<glyph name="one" format="1">
  <advance width="503"/>
  <unicode hex="0031"/>
  <note>
	one
  </note>
  <outline>
    <contour>
      <point x="451" y="0" type="line" smooth="yes"/>
      <point x="490" y="0"/>
      <point x="500" y="15"/>
      <point x="500" y="49" type="curve" smooth="yes"/>
      <point x="500" y="96" type="line" smooth="yes"/>
      <point x="500" y="129"/>
      <point x="490" y="145"/>
      <point x="451" y="145" type="curve" smooth="yes"/>
      <point x="376" y="145" type="line"/>
      <point x="376" y="629" type="line" smooth="yes"/>
      <point x="376" y="663"/>
      <point x="362" y="680"/>
      <point x="323" y="680" type="curve" smooth="yes"/>
      <point x="263" y="680" type="line" smooth="yes"/>
      <point x="238" y="680"/>
      <point x="229" y="676"/>
      <point x="216" y="668" type="curve" smooth="yes"/>
      <point x="35" y="559" type="line" smooth="yes"/>
      <point x="23" y="552"/>
      <point x="20" y="542"/>
      <point x="28" y="531" type="curve"/>
      <point x="89" y="437" type="line" smooth="yes"/>
      <point x="96" y="426"/>
      <point x="107" y="426"/>
      <point x="117" y="432" type="curve" smooth="yes"/>
      <point x="173" y="467" type="line"/>
      <point x="173" y="145" type="line"/>
      <point x="98" y="145" type="line" smooth="yes"/>
      <point x="59" y="145"/>
      <point x="49" y="129"/>
      <point x="49" y="96" type="curve" smooth="yes"/>
      <point x="49" y="49" type="line" smooth="yes"/>
      <point x="49" y="15"/>
      <point x="59" y="0"/>
      <point x="98" y="0" type="curve" smooth="yes"/>
    </contour>
  </outline>
</glyph>
<glyph name="two" format="1">
  <advance width="578"/>
  <unicode hex="0032"/>
  <note>
	two
  </note>
  <outline>
    <contour>
      <point x="505" y="0" type="line" smooth="yes"/>
      <point x="544" y="0"/>
      <point x="553" y="16"/>
      <point x="553" y="49" type="curve" smooth="yes"/>
      <point x="553" y="96" type="line" smooth="yes"/>
      <point x="553" y="130"/>
      <point x="544" y="146"/>
      <point x="505" y="146" type="curve" smooth="yes"/>
      <point x="234" y="146" type="line"/>
      <point x="247" y="178"/>
      <point x="307" y="223"/>
      <point x="369" y="259" type="curve" smooth="yes"/>
      <point x="486" y="331"/>
      <point x="551" y="390"/>
      <point x="551" y="496" type="curve" smooth="yes"/>
      <point x="551" y="626"/>
      <point x="444" y="695"/>
      <point x="287" y="695" type="curve" smooth="yes"/>
      <point x="181" y="695"/>
      <point x="90" y="671"/>
      <point x="38" y="634" type="curve" smooth="yes"/>
      <point x="23" y="623"/>
      <point x="24" y="615"/>
      <point x="32" y="601" type="curve" smooth="yes"/>
      <point x="77" y="521" type="line" smooth="yes"/>
      <point x="87" y="503"/>
      <point x="96" y="507"/>
      <point x="114" y="516" type="curve" smooth="yes"/>
      <point x="147" y="533"/>
      <point x="195" y="551"/>
      <point x="254" y="551" type="curve" smooth="yes"/>
      <point x="317" y="551"/>
      <point x="349" y="524"/>
      <point x="349" y="479" type="curve" smooth="yes"/>
      <point x="349" y="416"/>
      <point x="317" y="402"/>
      <point x="213" y="335" type="curve" smooth="yes"/>
      <point x="79" y="247"/>
      <point x="27" y="178"/>
      <point x="27" y="98" type="curve" smooth="yes"/>
      <point x="27" y="46" type="line" smooth="yes"/>
      <point x="27" y="15"/>
      <point x="41" y="0"/>
      <point x="71" y="0" type="curve" smooth="yes"/>
    </contour>
  </outline>
</glyph>
<glyph name="three" format="1">
  <advance width="602"/>
  <unicode hex="0033"/>
  <note>
	three
  </note>
  <outline>
    <contour>
      <point x="481" y="-15"/>
      <point x="579" y="72"/>
      <point x="579" y="200" type="curve" smooth="yes"/>
      <point x="579" y="269"/>
      <point x="550" y="321"/>
      <point x="491" y="351" type="curve"/>
      <point x="538" y="383"/>
      <point x="560" y="435"/>
      <point x="560" y="491" type="curve" smooth="yes"/>
      <point x="560" y="616"/>
      <point x="456" y="695"/>
      <point x="287" y="695" type="curve" smooth="yes"/>
      <point x="181" y="695"/>
      <point x="97" y="672"/>
      <point x="44" y="636" type="curve" smooth="yes"/>
      <point x="29" y="626"/>
      <point x="32" y="613"/>
      <point x="41" y="597" type="curve" smooth="yes"/>
      <point x="83" y="524" type="line" smooth="yes"/>
      <point x="93" y="506"/>
      <point x="102" y="510"/>
      <point x="120" y="519" type="curve" smooth="yes"/>
      <point x="153" y="536"/>
      <point x="197" y="551"/>
      <point x="256" y="551" type="curve" smooth="yes"/>
      <point x="324" y="551"/>
      <point x="359" y="530"/>
      <point x="359" y="485" type="curve" smooth="yes"/>
      <point x="359" y="446"/>
      <point x="336" y="419"/>
      <point x="281" y="419" type="curve" smooth="yes"/>
      <point x="213" y="419" type="line" smooth="yes"/>
      <point x="174" y="419"/>
      <point x="160" y="403"/>
      <point x="160" y="370" type="curve" smooth="yes"/>
      <point x="160" y="325" type="line" smooth="yes"/>
      <point x="160" y="291"/>
      <point x="174" y="275"/>
      <point x="213" y="275" type="curve" smooth="yes"/>
      <point x="292" y="275" type="line" smooth="yes"/>
      <point x="348" y="275"/>
      <point x="378" y="254"/>
      <point x="378" y="208" type="curve" smooth="yes"/>
      <point x="378" y="157"/>
      <point x="341" y="128"/>
      <point x="259" y="128" type="curve" smooth="yes"/>
      <point x="200" y="128"/>
      <point x="144" y="143"/>
      <point x="110" y="161" type="curve" smooth="yes"/>
      <point x="92" y="170"/>
      <point x="84" y="173"/>
      <point x="73" y="156" type="curve"/>
      <point x="30" y="82" type="line" smooth="yes"/>
      <point x="21" y="66"/>
      <point x="19" y="53"/>
      <point x="34" y="43" type="curve" smooth="yes"/>
      <point x="89" y="6"/>
      <point x="181" y="-15"/>
      <point x="291" y="-15" type="curve" smooth="yes"/>
    </contour>
  </outline>
</glyph>
<glyph name="four" format="1">
  <advance width="605"/>
  <unicode hex="0034"/>
  <note>
	four
  </note>
  <outline>
    <contour>
      <point x="451" y="0" type="line" smooth="yes"/>
      <point x="491" y="0"/>
      <point x="504" y="12"/>
      <point x="504" y="46" type="curve" smooth="yes"/>
      <point x="504" y="136" type="line"/>
      <point x="553" y="136" type="line" smooth="yes"/>
      <point x="592" y="136"/>
      <point x="602" y="152"/>
      <point x="602" y="185" type="curve" smooth="yes"/>
      <point x="602" y="231" type="line" smooth="yes"/>
      <point x="602" y="265"/>
      <point x="592" y="281"/>
      <point x="553" y="281" type="curve" smooth="yes"/>
      <point x="504" y="281" type="line"/>
      <point x="504" y="629" type="line" smooth="yes"/>
      <point x="504" y="663"/>
      <point x="491" y="680"/>
      <point x="452" y="680" type="curve" smooth="yes"/>
      <point x="373" y="680" type="line" smooth="yes"/>
      <point x="340" y="680"/>
      <point x="333" y="672"/>
      <point x="316" y="652" type="curve" smooth="yes"/>
      <point x="23" y="297" type="line" smooth="yes"/>
      <point x="6" y="277"/>
      <point x="3" y="270"/>
      <point x="3" y="242" type="curve" smooth="yes"/>
      <point x="3" y="167" type="line" smooth="yes"/>
      <point x="3" y="147"/>
      <point x="13" y="136"/>
      <point x="35" y="136" type="curve" smooth="yes"/>
      <point x="302" y="136" type="line"/>
      <point x="302" y="46" type="line" smooth="yes"/>
      <point x="302" y="12"/>
      <point x="315" y="0"/>
      <point x="354" y="0" type="curve" smooth="yes"/>
    </contour>
    <contour>
      <point x="344" y="463" type="line"/>
      <point x="344" y="281" type="line"/>
      <point x="203" y="281" type="line"/>
    </contour>
  </outline>
</glyph>
<glyph name="five" format="1">
  <advance width="636"/>
  <unicode hex="0035"/>
  <note>
	five
  </note>
  <outline>
    <contour>
      <point x="479" y="-15"/>
      <point x="613" y="75"/>
      <point x="613" y="231" type="curve" smooth="yes"/>
      <point x="613" y="406"/>
      <point x="500" y="464"/>
      <point x="334" y="464" type="curve" smooth="yes"/>
      <point x="301" y="464"/>
      <point x="249" y="459"/>
      <point x="222" y="452" type="curve"/>
      <point x="227" y="533" type="line"/>
      <point x="530" y="533" type="line" smooth="yes"/>
      <point x="569" y="533"/>
      <point x="579" y="549"/>
      <point x="579" y="583" type="curve" smooth="yes"/>
      <point x="579" y="630" type="line" smooth="yes"/>
      <point x="579" y="664"/>
      <point x="569" y="680"/>
      <point x="530" y="680" type="curve" smooth="yes"/>
      <point x="114" y="680" type="line" smooth="yes"/>
      <point x="75" y="680"/>
      <point x="65" y="664"/>
      <point x="63" y="635" type="curve" smooth="yes"/>
      <point x="47" y="381" type="line" smooth="yes"/>
      <point x="43" y="307"/>
      <point x="122" y="290"/>
      <point x="187" y="312" type="curve"/>
      <point x="214" y="323"/>
      <point x="257" y="332"/>
      <point x="302" y="332" type="curve" smooth="yes"/>
      <point x="368" y="332"/>
      <point x="411" y="310"/>
      <point x="411" y="231" type="curve" smooth="yes"/>
      <point x="411" y="162"/>
      <point x="363" y="128"/>
      <point x="284" y="128" type="curve" smooth="yes"/>
      <point x="208" y="128"/>
      <point x="150" y="147"/>
      <point x="110" y="170" type="curve" smooth="yes"/>
      <point x="92" y="180"/>
      <point x="83" y="182"/>
      <point x="73" y="165" type="curve" smooth="yes"/>
      <point x="30" y="91" type="line" smooth="yes"/>
      <point x="21" y="75"/>
      <point x="19" y="62"/>
      <point x="34" y="52" type="curve" smooth="yes"/>
      <point x="94" y="10"/>
      <point x="193" y="-15"/>
      <point x="296" y="-15" type="curve" smooth="yes"/>
    </contour>
  </outline>
</glyph>
<glyph name="six" format="1">
  <advance width="645"/>
  <unicode hex="0036"/>
  <note>
	six
  </note>
  <outline>
    <contour>
      <point x="507" y="-15"/>
      <point x="622" y="74"/>
      <point x="622" y="256" type="curve" smooth="yes"/>
      <point x="622" y="377"/>
      <point x="538" y="475"/>
      <point x="373" y="475" type="curve" smooth="yes"/>
      <point x="313" y="475"/>
      <point x="253" y="463"/>
      <point x="210" y="433" type="curve"/>
      <point x="239" y="512"/>
      <point x="285" y="551"/>
      <point x="367" y="551" type="curve" smooth="yes"/>
      <point x="417" y="551"/>
      <point x="455" y="539"/>
      <point x="489" y="521" type="curve" smooth="yes"/>
      <point x="507" y="512"/>
      <point x="515" y="509"/>
      <point x="526" y="527" type="curve" smooth="yes"/>
      <point x="567" y="598" type="line" smooth="yes"/>
      <point x="576" y="614"/>
      <point x="578" y="626"/>
      <point x="563" y="637" type="curve" smooth="yes"/>
      <point x="511" y="674"/>
      <point x="444" y="695"/>
      <point x="348" y="695" type="curve" smooth="yes"/>
      <point x="186" y="695"/>
      <point x="23" y="579"/>
      <point x="23" y="302" type="curve" smooth="yes"/>
      <point x="23" y="72"/>
      <point x="156" y="-15"/>
      <point x="319" y="-15" type="curve" smooth="yes"/>
    </contour>
    <contour>
      <point x="259" y="128"/>
      <point x="225" y="162"/>
      <point x="225" y="246" type="curve" smooth="yes"/>
      <point x="225" y="327"/>
      <point x="264" y="361"/>
      <point x="321" y="361" type="curve" smooth="yes"/>
      <point x="387" y="361"/>
      <point x="420" y="323"/>
      <point x="420" y="247" type="curve" smooth="yes"/>
      <point x="420" y="165"/>
      <point x="389" y="128"/>
      <point x="319" y="128" type="curve" smooth="yes"/>
    </contour>
  </outline>
</glyph>
<glyph name="seven" format="1">
  <advance width="599"/>
  <unicode hex="0037"/>
  <note>
	seven
  </note>
  <outline>
    <contour>
      <point x="261" y="0" type="line" smooth="yes"/>
      <point x="281" y="0"/>
      <point x="289" y="8"/>
      <point x="296" y="22" type="curve" smooth="yes"/>
      <point x="567" y="561" type="line" smooth="yes"/>
      <point x="576" y="579"/>
      <point x="586" y="603"/>
      <point x="586" y="628" type="curve" smooth="yes"/>
      <point x="586" y="667"/>
      <point x="572" y="680"/>
      <point x="523" y="680" type="curve" smooth="yes"/>
      <point x="60" y="680" type="line" smooth="yes"/>
      <point x="22" y="680"/>
      <point x="13" y="664"/>
      <point x="13" y="631" type="curve" smooth="yes"/>
      <point x="13" y="583" type="line" smooth="yes"/>
      <point x="13" y="550"/>
      <point x="22" y="534"/>
      <point x="60" y="534" type="curve" smooth="yes"/>
      <point x="340" y="534" type="line"/>
      <point x="89" y="37" type="line" smooth="yes"/>
      <point x="80" y="18"/>
      <point x="83" y="0"/>
      <point x="104" y="0" type="curve" smooth="yes"/>
    </contour>
  </outline>
</glyph>
<glyph name="eight" format="1">
  <advance width="646"/>
  <unicode hex="0038"/>
  <note>
	eight
  </note>
  <outline>
    <contour>
      <point x="509" y="-15"/>
      <point x="623" y="64"/>
      <point x="623" y="203" type="curve" smooth="yes"/>
      <point x="623" y="267"/>
      <point x="588" y="325"/>
      <point x="529" y="354" type="curve"/>
      <point x="580" y="383"/>
      <point x="605" y="429"/>
      <point x="605" y="483" type="curve" smooth="yes"/>
      <point x="605" y="618"/>
      <point x="506" y="695"/>
      <point x="323" y="695" type="curve" smooth="yes"/>
      <point x="140" y="695"/>
      <point x="40" y="618"/>
      <point x="40" y="483" type="curve" smooth="yes"/>
      <point x="40" y="429"/>
      <point x="65" y="383"/>
      <point x="117" y="354" type="curve"/>
      <point x="57" y="325"/>
      <point x="23" y="267"/>
      <point x="23" y="203" type="curve" smooth="yes"/>
      <point x="23" y="64"/>
      <point x="136" y="-15"/>
      <point x="323" y="-15" type="curve" smooth="yes"/>
    </contour>
    <contour>
      <point x="256" y="128"/>
      <point x="224" y="154"/>
      <point x="224" y="204" type="curve" smooth="yes"/>
      <point x="224" y="254"/>
      <point x="255" y="282"/>
      <point x="323" y="282" type="curve" smooth="yes"/>
      <point x="389" y="282"/>
      <point x="422" y="254"/>
      <point x="422" y="204" type="curve" smooth="yes"/>
      <point x="422" y="154"/>
      <point x="389" y="128"/>
      <point x="323" y="128" type="curve" smooth="yes"/>
    </contour>
    <contour>
      <point x="272" y="421"/>
      <point x="242" y="438"/>
      <point x="242" y="482" type="curve" smooth="yes"/>
      <point x="242" y="532"/>
      <point x="269" y="551"/>
      <point x="323" y="551" type="curve" smooth="yes"/>
      <point x="376" y="551"/>
      <point x="403" y="532"/>
      <point x="403" y="482" type="curve" smooth="yes"/>
      <point x="403" y="438"/>
      <point x="373" y="421"/>
      <point x="323" y="421" type="curve" smooth="yes"/>
    </contour>
  </outline>
</glyph>
<glyph name="nine" format="1">
  <advance width="643"/>
  <unicode hex="0039"/>
  <note>
	nine
  </note>
  <outline>
    <contour>
      <point x="468" y="-15"/>
      <point x="620" y="88"/>
      <point x="620" y="377" type="curve" smooth="yes"/>
      <point x="620" y="605"/>
      <point x="490" y="695"/>
      <point x="326" y="695" type="curve" smooth="yes"/>
      <point x="136" y="695"/>
      <point x="23" y="611"/>
      <point x="23" y="427" type="curve" smooth="yes"/>
      <point x="23" y="304"/>
      <point x="108" y="203"/>
      <point x="277" y="203" type="curve" smooth="yes"/>
      <point x="346" y="203"/>
      <point x="400" y="215"/>
      <point x="442" y="244" type="curve"/>
      <point x="424" y="168"/>
      <point x="381" y="128"/>
      <point x="290" y="128" type="curve" smooth="yes"/>
      <point x="242" y="128"/>
      <point x="197" y="139"/>
      <point x="162" y="157" type="curve" smooth="yes"/>
      <point x="144" y="166"/>
      <point x="136" y="169"/>
      <point x="125" y="151" type="curve" smooth="yes"/>
      <point x="84" y="80" type="line" smooth="yes"/>
      <point x="75" y="64"/>
      <point x="72" y="51"/>
      <point x="87" y="41" type="curve" smooth="yes"/>
      <point x="140" y="5"/>
      <point x="211" y="-15"/>
      <point x="305" y="-15" type="curve" smooth="yes"/>
    </contour>
    <contour>
      <point x="255" y="318"/>
      <point x="224" y="354"/>
      <point x="224" y="431" type="curve" smooth="yes"/>
      <point x="224" y="515"/>
      <point x="255" y="551"/>
      <point x="325" y="551" type="curve" smooth="yes"/>
      <point x="387" y="551"/>
      <point x="417" y="513"/>
      <point x="417" y="430" type="curve" smooth="yes"/>
      <point x="417" y="354"/>
      <point x="380" y="318"/>
      <point x="324" y="318" type="curve" smooth="yes"/>
    </contour>
  </outline>
</glyph>
<glyph name="colon" format="1">
  <advance width="208"/>
  <unicode hex="003A"/>
  <note>
	colon
  </note>
  <outline>
    <contour>
      <point x="119" y="327" type="line" smooth="yes"/>
      <point x="159" y="327"/>
      <point x="185" y="360"/>
      <point x="185" y="398" type="curve" smooth="yes"/>
      <point x="185" y="423" type="line" smooth="yes"/>
      <point x="185" y="462"/>
      <point x="159" y="493"/>
      <point x="119" y="493" type="curve" smooth="yes"/>
      <point x="89" y="493" type="line" smooth="yes"/>
      <point x="49" y="493"/>
      <point x="23" y="462"/>
      <point x="23" y="423" type="curve" smooth="yes"/>
      <point x="23" y="398" type="line" smooth="yes"/>
      <point x="23" y="360"/>
      <point x="49" y="327"/>
      <point x="89" y="327" type="curve" smooth="yes"/>
    </contour>
    <contour>
      <point x="119" y="0" type="line" smooth="yes"/>
      <point x="159" y="0"/>
      <point x="185" y="32"/>
      <point x="185" y="70" type="curve" smooth="yes"/>
      <point x="185" y="95" type="line" smooth="yes"/>
      <point x="185" y="135"/>
      <point x="159" y="165"/>
      <point x="119" y="165" type="curve" smooth="yes"/>
      <point x="89" y="165" type="line" smooth="yes"/>
      <point x="49" y="165"/>
      <point x="23" y="135"/>
      <point x="23" y="95" type="curve" smooth="yes"/>
      <point x="23" y="70" type="line" smooth="yes"/>
      <point x="23" y="32"/>
      <point x="49" y="0"/>
      <point x="89" y="0" type="curve" smooth="yes"/>
    </contour>
  </outline>
</glyph>
<glyph name="equal" format="1">
  <advance width="465"/>
  <unicode hex="003D"/>
  <note>
	equal
  </note>
  <outline>
    <contour>
      <point x="393" y="325" type="line" smooth="yes"/>
      <point x="432" y="325"/>
      <point x="442" y="341"/>
      <point x="442" y="374" type="curve" smooth="yes"/>
      <point x="442" y="417" type="line" smooth="yes"/>
      <point x="442" y="450"/>
      <point x="432" y="467"/>
      <point x="393" y="467" type="curve" smooth="yes"/>
      <point x="71" y="467" type="line" smooth="yes"/>
      <point x="32" y="467"/>
      <point x="23" y="450"/>
      <point x="23" y="417" type="curve" smooth="yes"/>
      <point x="23" y="374" type="line" smooth="yes"/>
      <point x="23" y="341"/>
      <point x="32" y="325"/>
      <point x="71" y="325" type="curve" smooth="yes"/>
    </contour>
    <contour>
      <point x="393" y="114" type="line" smooth="yes"/>
      <point x="432" y="114"/>
      <point x="442" y="130"/>
      <point x="442" y="164" type="curve" smooth="yes"/>
      <point x="442" y="206" type="line" smooth="yes"/>
      <point x="442" y="239"/>
      <point x="432" y="256"/>
      <point x="393" y="256" type="curve" smooth="yes"/>
      <point x="71" y="256" type="line" smooth="yes"/>
      <point x="32" y="256"/>
      <point x="23" y="239"/>
      <point x="23" y="206" type="curve" smooth="yes"/>
      <point x="23" y="164" type="line" smooth="yes"/>
      <point x="23" y="130"/>
      <point x="32" y="114"/>
      <point x="71" y="114" type="curve" smooth="yes"/>
    </contour>
  </outline>
</glyph>
<glyph name="greater" format="1">
  <advance width="526"/>
  <unicode hex="003E"/>
  <note>
	greater
  </note>
  <outline>
    <contour>
      <point x="486" y="206" type="line"/>
      <point x="498" y="212"/>
      <point x="503" y="219"/>
      <point x="503" y="234" type="curve" smooth="yes"/>
      <point x="503" y="311" type="line" smooth="yes"/>
      <point x="503" y="326"/>
      <point x="498" y="333"/>
      <point x="486" y="339" type="curve"/>
      <point x="45" y="533" type="line" smooth="yes"/>
      <point x="32" y="539"/>
      <point x="23" y="534"/>
      <point x="23" y="521" type="curve" smooth="yes"/>
      <point x="23" y="393" type="line" smooth="yes"/>
      <point x="23" y="377"/>
      <point x="28" y="372"/>
      <point x="40" y="368" type="curve"/>
      <point x="267" y="274" type="line"/>
      <point x="40" y="180" type="line" smooth="yes"/>
      <point x="28" y="175"/>
      <point x="23" y="171"/>
      <point x="23" y="155" type="curve" smooth="yes"/>
      <point x="23" y="24" type="line" smooth="yes"/>
      <point x="23" y="11"/>
      <point x="32" y="6"/>
      <point x="45" y="12" type="curve" smooth="yes"/>
    </contour>
  </outline>
</glyph>
<glyph name="D" format="1">
  <advance width="689"/>
  <unicode hex="0044"/>
  <note>
	D
  </note>
  <outline>
    <contour>
      <point x="315" y="0" type="line" smooth="yes"/>
      <point x="539" y="0"/>
      <point x="666" y="108"/>
      <point x="666" y="340" type="curve" smooth="yes"/>
      <point x="666" y="578"/>
      <point x="539" y="680"/>
      <point x="315" y="680" type="curve" smooth="yes"/>
      <point x="95" y="680" type="line" smooth="yes"/>
      <point x="56" y="680"/>
      <point x="43" y="663"/>
      <point x="43" y="629" type="curve" smooth="yes"/>
      <point x="43" y="50" type="line" smooth="yes"/>
      <point x="43" y="16"/>
      <point x="56" y="0"/>
      <point x="95" y="0" type="curve" smooth="yes"/>
    </contour>
    <contour>
      <point x="245" y="534" type="line"/>
      <point x="324" y="534" type="line" smooth="yes"/>
      <point x="416" y="534"/>
      <point x="465" y="489"/>
      <point x="465" y="340" type="curve" smooth="yes"/>
      <point x="465" y="191"/>
      <point x="416" y="145"/>
      <point x="324" y="145" type="curve" smooth="yes"/>
      <point x="245" y="145" type="line"/>
    </contour>
  </outline>
</glyph>
<glyph name="E" format="1">
  <advance width="571"/>
  <unicode hex="0045"/>
  <note>
	E
  </note>
  <outline>
    <contour>
      <point x="509" y="0" type="line" smooth="yes"/>
      <point x="548" y="0"/>
      <point x="557" y="16"/>
      <point x="557" y="49" type="curve" smooth="yes"/>
      <point x="557" y="95" type="line" smooth="yes"/>
      <point x="557" y="129"/>
      <point x="548" y="145"/>
      <point x="509" y="145" type="curve" smooth="yes"/>
      <point x="245" y="145" type="line"/>
      <point x="245" y="268" type="line"/>
      <point x="420" y="268" type="line" smooth="yes"/>
      <point x="459" y="268"/>
      <point x="469" y="284"/>
      <point x="469" y="318" type="curve" smooth="yes"/>
      <point x="469" y="362" type="line" smooth="yes"/>
      <point x="469" y="396"/>
      <point x="459" y="412"/>
      <point x="420" y="412" type="curve" smooth="yes"/>
      <point x="245" y="412" type="line"/>
      <point x="245" y="534" type="line"/>
      <point x="510" y="534" type="line" smooth="yes"/>
      <point x="549" y="534"/>
      <point x="558" y="550"/>
      <point x="558" y="584" type="curve" smooth="yes"/>
      <point x="558" y="630" type="line" smooth="yes"/>
      <point x="558" y="664"/>
      <point x="549" y="680"/>
      <point x="510" y="680" type="curve" smooth="yes"/>
      <point x="95" y="680" type="line" smooth="yes"/>
      <point x="56" y="680"/>
      <point x="43" y="663"/>
      <point x="43" y="629" type="curve" smooth="yes"/>
      <point x="43" y="50" type="line" smooth="yes"/>
      <point x="43" y="16"/>
      <point x="56" y="0"/>
      <point x="95" y="0" type="curve" smooth="yes"/>
    </contour>
  </outline>
</glyph>
<glyph name="M" format="1">
  <advance width="771"/>
  <unicode hex="004D"/>
  <note>
	M
  </note>
  <outline>
    <contour>
      <point x="174" y="0" type="line" smooth="yes"/>
      <point x="214" y="0"/>
      <point x="227" y="16"/>
      <point x="227" y="50" type="curve" smooth="yes"/>
      <point x="227" y="375" type="line"/>
      <point x="323" y="158" type="line" smooth="yes"/>
      <point x="336" y="129"/>
      <point x="346" y="112"/>
      <point x="385" y="112" type="curve" smooth="yes"/>
      <point x="425" y="112"/>
      <point x="435" y="129"/>
      <point x="447" y="158" type="curve" smooth="yes"/>
      <point x="544" y="375" type="line"/>
      <point x="544" y="50" type="line" smooth="yes"/>
      <point x="544" y="16"/>
      <point x="557" y="0"/>
      <point x="597" y="0" type="curve" smooth="yes"/>
      <point x="676" y="0" type="line" smooth="yes"/>
      <point x="715" y="0"/>
      <point x="728" y="16"/>
      <point x="728" y="50" type="curve" smooth="yes"/>
      <point x="728" y="630" type="line" smooth="yes"/>
      <point x="728" y="664"/>
      <point x="715" y="680"/>
      <point x="675" y="680" type="curve" smooth="yes"/>
      <point x="580" y="680" type="line" smooth="yes"/>
      <point x="556" y="680"/>
      <point x="540" y="676"/>
      <point x="531" y="655" type="curve" smooth="yes"/>
      <point x="385" y="305" type="line"/>
      <point x="240" y="655" type="line" smooth="yes"/>
      <point x="231" y="676"/>
      <point x="215" y="680"/>
      <point x="191" y="680" type="curve" smooth="yes"/>
      <point x="96" y="680" type="line" smooth="yes"/>
      <point x="56" y="680"/>
      <point x="43" y="664"/>
      <point x="43" y="630" type="curve" smooth="yes"/>
      <point x="43" y="50" type="line" smooth="yes"/>
      <point x="43" y="16"/>
      <point x="56" y="0"/>
      <point x="95" y="0" type="curve" smooth="yes"/>
    </contour>
  </outline>
</glyph>
<glyph name="O" format="1">
  <advance width="756"/>
  <unicode hex="004F"/>
  <note>
	O
  </note>
  <outline>
    <contour>
      <point x="612" y="-15"/>
      <point x="733" y="116"/>
      <point x="733" y="340" type="curve" smooth="yes"/>
      <point x="733" y="564"/>
      <point x="612" y="695"/>
      <point x="378" y="695" type="curve" smooth="yes"/>
      <point x="144" y="695"/>
      <point x="23" y="564"/>
      <point x="23" y="340" type="curve" smooth="yes"/>
      <point x="23" y="116"/>
      <point x="144" y="-15"/>
      <point x="378" y="-15" type="curve" smooth="yes"/>
    </contour>
    <contour>
      <point x="272" y="128"/>
      <point x="224" y="201"/>
      <point x="224" y="340" type="curve" smooth="yes"/>
      <point x="224" y="479"/>
      <point x="272" y="551"/>
      <point x="378" y="551" type="curve" smooth="yes"/>
      <point x="484" y="551"/>
      <point x="532" y="479"/>
      <point x="532" y="340" type="curve" smooth="yes"/>
      <point x="532" y="201"/>
      <point x="484" y="128"/>
      <point x="378" y="128" type="curve" smooth="yes"/>
    </contour>
  </outline>
</glyph>
<glyph name="P" format="1">
  <advance width="618"/>
  <unicode hex="0050"/>
  <note>
	P
  </note>
  <outline>
    <contour>
      <point x="192" y="0" type="line" smooth="yes"/>
      <point x="232" y="0"/>
      <point x="245" y="16"/>
      <point x="245" y="50" type="curve" smooth="yes"/>
      <point x="245" y="212" type="line"/>
      <point x="340" y="212" type="line" smooth="yes"/>
      <point x="531" y="212"/>
      <point x="612" y="293"/>
      <point x="612" y="445" type="curve" smooth="yes"/>
      <point x="612" y="597"/>
      <point x="531" y="680"/>
      <point x="340" y="680" type="curve" smooth="yes"/>
      <point x="95" y="680" type="line" smooth="yes"/>
      <point x="56" y="680"/>
      <point x="43" y="663"/>
      <point x="43" y="629" type="curve" smooth="yes"/>
      <point x="43" y="50" type="line" smooth="yes"/>
      <point x="43" y="16"/>
      <point x="56" y="0"/>
      <point x="95" y="0" type="curve" smooth="yes"/>
    </contour>
    <contour>
      <point x="245" y="534" type="line"/>
      <point x="324" y="534" type="line" smooth="yes"/>
      <point x="378" y="534"/>
      <point x="410" y="506"/>
      <point x="410" y="445" type="curve" smooth="yes"/>
      <point x="410" y="385"/>
      <point x="378" y="357"/>
      <point x="324" y="357" type="curve" smooth="yes"/>
      <point x="245" y="357" type="line"/>
    </contour>
  </outline>
</glyph>
<glyph name="S" format="1">
  <advance width="605"/>
  <unicode hex="0053"/>
  <note>
	S
  </note>
  <outline>
    <contour>
      <point x="499" y="-15"/>
      <point x="582" y="67"/>
      <point x="582" y="180" type="curve" smooth="yes"/>
      <point x="582" y="300"/>
      <point x="513" y="344"/>
      <point x="379" y="397" type="curve" smooth="yes"/>
      <point x="297" y="429"/>
      <point x="252" y="442"/>
      <point x="252" y="491" type="curve" smooth="yes"/>
      <point x="252" y="535"/>
      <point x="286" y="551"/>
      <point x="341" y="551" type="curve" smooth="yes"/>
      <point x="400" y="551"/>
      <point x="447" y="534"/>
      <point x="479" y="513" type="curve" smooth="yes"/>
      <point x="495" y="503"/>
      <point x="502" y="503"/>
      <point x="512" y="518" type="curve" smooth="yes"/>
      <point x="561" y="596" type="line" smooth="yes"/>
      <point x="571" y="612"/>
      <point x="569" y="622"/>
      <point x="550" y="636" type="curve" smooth="yes"/>
      <point x="495" y="676"/>
      <point x="419" y="695"/>
      <point x="310" y="695" type="curve" smooth="yes"/>
      <point x="159" y="695"/>
      <point x="50" y="629"/>
      <point x="50" y="492" type="curve" smooth="yes"/>
      <point x="50" y="371"/>
      <point x="156" y="318"/>
      <point x="264" y="277" type="curve" smooth="yes"/>
      <point x="342" y="247"/>
      <point x="380" y="231"/>
      <point x="380" y="187" type="curve" smooth="yes"/>
      <point x="380" y="146"/>
      <point x="351" y="128"/>
      <point x="288" y="128" type="curve" smooth="yes"/>
      <point x="226" y="128"/>
      <point x="159" y="147"/>
      <point x="111" y="175" type="curve" smooth="yes"/>
      <point x="95" y="184"/>
      <point x="88" y="185"/>
      <point x="78" y="170" type="curve" smooth="yes"/>
      <point x="29" y="92" type="line" smooth="yes"/>
      <point x="19" y="76"/>
      <point x="20" y="66"/>
      <point x="40" y="52" type="curve" smooth="yes"/>
      <point x="102" y="9"/>
      <point x="210" y="-15"/>
      <point x="320" y="-15" type="curve" smooth="yes"/>
    </contour>
  </outline>
</glyph>
<glyph name="X" format="1">
  <advance width="749"/>
  <unicode hex="0058"/>
  <note>
	X
  </note>
  <outline>
    <contour>
      <point x="201" y="0" type="line" smooth="yes"/>
      <point x="219" y="0"/>
      <point x="226" y="3"/>
      <point x="234" y="13" type="curve" smooth="yes"/>
      <point x="374" y="201" type="line"/>
      <point x="515" y="13" type="line" smooth="yes"/>
      <point x="522" y="3"/>
      <point x="530" y="0"/>
      <point x="548" y="0" type="curve" smooth="yes"/>
      <point x="703" y="0" type="line" smooth="yes"/>
      <point x="725" y="0"/>
      <point x="732" y="20"/>
      <point x="718" y="38" type="curve" smooth="yes"/>
      <point x="485" y="350" type="line"/>
      <point x="702" y="642" type="line" smooth="yes"/>
      <point x="715" y="659"/>
      <point x="709" y="680"/>
      <point x="688" y="680" type="curve" smooth="yes"/>
      <point x="532" y="680" type="line" smooth="yes"/>
      <point x="513" y="680"/>
      <point x="506" y="676"/>
      <point x="498" y="666" type="curve"/>
      <point x="374" y="499" type="line"/>
      <point x="250" y="666" type="line" smooth="yes"/>
      <point x="243" y="676"/>
      <point x="235" y="680"/>
      <point x="216" y="680" type="curve" smooth="yes"/>
      <point x="61" y="680" type="line" smooth="yes"/>
      <point x="39" y="680"/>
      <point x="33" y="659"/>
      <point x="46" y="642" type="curve" smooth="yes"/>
      <point x="263" y="350" type="line"/>
      <point x="30" y="38" type="line" smooth="yes"/>
      <point x="16" y="20"/>
      <point x="24" y="0"/>
      <point x="45" y="0" type="curve" smooth="yes"/>
    </contour>
  </outline>
</glyph>
<glyph name="Z" format="1">
  <advance width="638"/>
  <unicode hex="005A"/>
  <note>
	Z
  </note>
  <outline>
    <contour>
      <point x="563" y="0" type="line" smooth="yes"/>
      <point x="602" y="0"/>
      <point x="615" y="16"/>
      <point x="615" y="49" type="curve" smooth="yes"/>
      <point x="615" y="95" type="line" smooth="yes"/>
      <point x="615" y="129"/>
      <point x="602" y="145"/>
      <point x="563" y="145" type="curve" smooth="yes"/>
      <point x="289" y="145" type="line"/>
      <point x="583" y="547" type="line" smooth="yes"/>
      <point x="610" y="584"/>
      <point x="613" y="597"/>
      <point x="613" y="632" type="curve" smooth="yes"/>
      <point x="613" y="667"/>
      <point x="605" y="680"/>
      <point x="569" y="680" type="curve" smooth="yes"/>
      <point x="83" y="680" type="line" smooth="yes"/>
      <point x="44" y="680"/>
      <point x="30" y="664"/>
      <point x="30" y="630" type="curve" smooth="yes"/>
      <point x="30" y="584" type="line" smooth="yes"/>
      <point x="30" y="550"/>
      <point x="44" y="534"/>
      <point x="83" y="534" type="curve" smooth="yes"/>
      <point x="348" y="534" type="line"/>
      <point x="52" y="132" type="line" smooth="yes"/>
      <point x="26" y="96"/>
      <point x="23" y="81"/>
      <point x="23" y="47" type="curve" smooth="yes"/>
      <point x="23" y="12"/>
      <point x="31" y="0"/>
      <point x="67" y="0" type="curve" smooth="yes"/>
    </contour>
  </outline>
</glyph>
<glyph name="bracketright" format="1">
  <advance width="355"/>
  <unicode hex="005D"/>
  <note>
	bracketright
  </note>
  <outline>
    <contour>
      <point x="280" y="-70" type="line" smooth="yes"/>
      <point x="319" y="-70"/>
      <point x="332" y="-54"/>
      <point x="332" y="-20" type="curve" smooth="yes"/>
      <point x="332" y="699" type="line" smooth="yes"/>
      <point x="332" y="733"/>
      <point x="319" y="750"/>
      <point x="280" y="750" type="curve" smooth="yes"/>
      <point x="61" y="750" type="line" smooth="yes"/>
      <point x="22" y="750"/>
      <point x="13" y="734"/>
      <point x="13" y="700" type="curve" smooth="yes"/>
      <point x="13" y="654" type="line" smooth="yes"/>
      <point x="13" y="620"/>
      <point x="22" y="604"/>
      <point x="61" y="604" type="curve" smooth="yes"/>
      <point x="129" y="604" type="line"/>
      <point x="129" y="75" type="line"/>
      <point x="61" y="75" type="line" smooth="yes"/>
      <point x="22" y="75"/>
      <point x="13" y="59"/>
      <point x="13" y="25" type="curve" smooth="yes"/>
      <point x="13" y="-21" type="line" smooth="yes"/>
      <point x="13" y="-54"/>
      <point x="22" y="-70"/>
      <point x="61" y="-70" type="curve" smooth="yes"/>
    </contour>
  </outline>
</glyph>
<glyph name="asciicircum" format="1">
  <advance width="632"/>
  <unicode hex="005E"/>
  <note>
	asciicircum
  </note>
  <outline>
    <contour>
      <point x="178" y="339" type="line" smooth="yes"/>
      <point x="199" y="339"/>
      <point x="209" y="345"/>
      <point x="220" y="362" type="curve"/>
      <point x="316" y="524" type="line"/>
      <point x="412" y="362" type="line" smooth="yes"/>
      <point x="422" y="345"/>
      <point x="432" y="339"/>
      <point x="453" y="339" type="curve" smooth="yes"/>
      <point x="586" y="339" type="line" smooth="yes"/>
      <point x="608" y="339"/>
      <point x="614" y="358"/>
      <point x="602" y="377" type="curve" smooth="yes"/>
      <point x="406" y="679" type="line" smooth="yes"/>
      <point x="390" y="705"/>
      <point x="381" y="719"/>
      <point x="344" y="719" type="curve" smooth="yes"/>
      <point x="287" y="719" type="line" smooth="yes"/>
      <point x="250" y="719"/>
      <point x="242" y="705"/>
      <point x="225" y="679" type="curve" smooth="yes"/>
      <point x="30" y="377" type="line" smooth="yes"/>
      <point x="18" y="358"/>
      <point x="24" y="339"/>
      <point x="45" y="339" type="curve" smooth="yes"/>
    </contour>
  </outline>
</glyph>
<glyph name="c" format="1">
  <advance width="561"/>
  <unicode hex="0063"/>
  <note>
	c
  </note>
  <outline>
    <contour>
      <point x="410" y="-15"/>
      <point x="471" y="4"/>
      <point x="525" y="39" type="curve" smooth="yes"/>
      <point x="540" y="49"/>
      <point x="540" y="58"/>
      <point x="532" y="72" type="curve" smooth="yes"/>
      <point x="487" y="149" type="line" smooth="yes"/>
      <point x="477" y="167"/>
      <point x="470" y="166"/>
      <point x="451" y="155" type="curve" smooth="yes"/>
      <point x="421" y="137"/>
      <point x="387" y="121"/>
      <point x="340" y="121" type="curve" smooth="yes"/>
      <point x="269" y="121"/>
      <point x="224" y="161"/>
      <point x="224" y="239" type="curve" smooth="yes"/>
      <point x="224" y="314"/>
      <point x="269" y="359"/>
      <point x="335" y="359" type="curve" smooth="yes"/>
      <point x="385" y="359"/>
      <point x="412" y="346"/>
      <point x="444" y="326" type="curve" smooth="yes"/>
      <point x="461" y="316"/>
      <point x="470" y="314"/>
      <point x="480" y="332" type="curve" smooth="yes"/>
      <point x="521" y="403" type="line" smooth="yes"/>
      <point x="530" y="419"/>
      <point x="533" y="431"/>
      <point x="518" y="442" type="curve" smooth="yes"/>
      <point x="471" y="476"/>
      <point x="412" y="495"/>
      <point x="317" y="495" type="curve" smooth="yes"/>
      <point x="132" y="495"/>
      <point x="23" y="392"/>
      <point x="23" y="239" type="curve" smooth="yes"/>
      <point x="23" y="73"/>
      <point x="129" y="-15"/>
      <point x="315" y="-15" type="curve" smooth="yes"/>
    </contour>
  </outline>
</glyph>
<glyph name="e" format="1">
  <advance width="594"/>
  <unicode hex="0065"/>
  <note>
	e
  </note>
  <outline>
    <contour>
      <point x="402" y="-15"/>
      <point x="470" y="0"/>
      <point x="526" y="36" type="curve" smooth="yes"/>
      <point x="540" y="45"/>
      <point x="541" y="54"/>
      <point x="533" y="68" type="curve" smooth="yes"/>
      <point x="499" y="132" type="line" smooth="yes"/>
      <point x="492" y="145"/>
      <point x="485" y="148"/>
      <point x="468" y="139" type="curve" smooth="yes"/>
      <point x="437" y="123"/>
      <point x="404" y="109"/>
      <point x="344" y="109" type="curve" smooth="yes"/>
      <point x="255" y="109"/>
      <point x="213" y="142"/>
      <point x="213" y="198" type="curve"/>
      <point x="527" y="198" type="line" smooth="yes"/>
      <point x="557" y="198"/>
      <point x="571" y="215"/>
      <point x="571" y="248" type="curve" smooth="yes"/>
      <point x="571" y="399"/>
      <point x="482" y="495"/>
      <point x="302" y="495" type="curve" smooth="yes"/>
      <point x="122" y="495"/>
      <point x="23" y="404"/>
      <point x="23" y="234" type="curve" smooth="yes"/>
      <point x="23" y="67"/>
      <point x="150" y="-15"/>
      <point x="314" y="-15" type="curve" smooth="yes"/>
    </contour>
    <contour>
      <point x="213" y="345"/>
      <point x="242" y="377"/>
      <point x="303" y="377" type="curve" smooth="yes"/>
      <point x="364" y="377"/>
      <point x="391" y="346"/>
      <point x="391" y="297" type="curve"/>
      <point x="213" y="297" type="line"/>
    </contour>
  </outline>
</glyph>
<glyph name="h" format="1">
  <advance width="605"/>
  <unicode hex="0068"/>
  <note>
	h
  </note>
  <outline>
    <contour>
      <point x="193" y="0" type="line" smooth="yes"/>
      <point x="232" y="0"/>
      <point x="245" y="16"/>
      <point x="245" y="50" type="curve" smooth="yes"/>
      <point x="245" y="298" type="line" smooth="yes"/>
      <point x="245" y="336"/>
      <point x="273" y="358"/>
      <point x="312" y="358" type="curve" smooth="yes"/>
      <point x="348" y="358"/>
      <point x="364" y="342"/>
      <point x="364" y="302" type="curve" smooth="yes"/>
      <point x="364" y="50" type="line" smooth="yes"/>
      <point x="364" y="16"/>
      <point x="378" y="0"/>
      <point x="418" y="0" type="curve" smooth="yes"/>
      <point x="515" y="0" type="line" smooth="yes"/>
      <point x="554" y="0"/>
      <point x="567" y="16"/>
      <point x="567" y="50" type="curve" smooth="yes"/>
      <point x="567" y="315" type="line" smooth="yes"/>
      <point x="567" y="439"/>
      <point x="489" y="495"/>
      <point x="386" y="495" type="curve" smooth="yes"/>
      <point x="312" y="495"/>
      <point x="255" y="471"/>
      <point x="218" y="439" type="curve"/>
      <point x="218" y="649" type="line" smooth="yes"/>
      <point x="218" y="673"/>
      <point x="212" y="680"/>
      <point x="184" y="680" type="curve" smooth="yes"/>
      <point x="77" y="680" type="line" smooth="yes"/>
      <point x="49" y="680"/>
      <point x="43" y="673"/>
      <point x="43" y="649" type="curve" smooth="yes"/>
      <point x="43" y="50" type="line" smooth="yes"/>
      <point x="43" y="16"/>
      <point x="56" y="0"/>
      <point x="96" y="0" type="curve" smooth="yes"/>
    </contour>
  </outline>
</glyph>
<glyph name="i" format="1">
  <advance width="299"/>
  <unicode hex="0069"/>
  <note>
	i
  </note>
  <outline>
    <contour>
      <point x="197" y="0" type="line" smooth="yes"/>
      <point x="237" y="0"/>
      <point x="251" y="16"/>
      <point x="251" y="50" type="curve" smooth="yes"/>
      <point x="251" y="429" type="line" smooth="yes"/>
      <point x="251" y="463"/>
      <point x="237" y="480"/>
      <point x="197" y="480" type="curve" smooth="yes"/>
      <point x="101" y="480" type="line" smooth="yes"/>
      <point x="61" y="480"/>
      <point x="48" y="463"/>
      <point x="48" y="429" type="curve" smooth="yes"/>
      <point x="48" y="50" type="line" smooth="yes"/>
      <point x="48" y="16"/>
      <point x="61" y="0"/>
      <point x="101" y="0" type="curve" smooth="yes"/>
    </contour>
    <contour>
      <point x="185" y="531" type="line" smooth="yes"/>
      <point x="234" y="531"/>
      <point x="256" y="562"/>
      <point x="256" y="593" type="curve" smooth="yes"/>
      <point x="256" y="617" type="line" smooth="yes"/>
      <point x="256" y="649"/>
      <point x="234" y="680"/>
      <point x="185" y="680" type="curve" smooth="yes"/>
      <point x="113" y="680" type="line" smooth="yes"/>
      <point x="65" y="680"/>
      <point x="43" y="649"/>
      <point x="43" y="617" type="curve" smooth="yes"/>
      <point x="43" y="593" type="line" smooth="yes"/>
      <point x="43" y="562"/>
      <point x="65" y="531"/>
      <point x="113" y="531" type="curve" smooth="yes"/>
    </contour>
  </outline>
</glyph>
<glyph name="k" format="1">
  <advance width="596"/>
  <unicode hex="006B"/>
  <note>
	k
  </note>
  <outline>
    <contour>
      <point x="570" y="0" type="line" smooth="yes"/>
      <point x="591" y="0"/>
      <point x="599" y="20"/>
      <point x="585" y="38" type="curve"/>
      <point x="409" y="246" type="line"/>
      <point x="580" y="442" type="line" smooth="yes"/>
      <point x="594" y="459"/>
      <point x="587" y="480"/>
      <point x="566" y="480" type="curve" smooth="yes"/>
      <point x="411" y="480" type="line" smooth="yes"/>
      <point x="392" y="480"/>
      <point x="385" y="477"/>
      <point x="377" y="466" type="curve" smooth="yes"/>
      <point x="239" y="286" type="line" smooth="yes"/>
      <point x="229" y="273"/>
      <point x="222" y="265"/>
      <point x="222" y="246" type="curve" smooth="yes"/>
      <point x="222" y="227"/>
      <point x="230" y="218"/>
      <point x="239" y="206" type="curve" smooth="yes"/>
      <point x="381" y="13" type="line"/>
      <point x="390" y="2"/>
      <point x="397" y="0"/>
      <point x="415" y="0" type="curve" smooth="yes"/>
    </contour>
    <contour>
      <point x="192" y="0" type="line" smooth="yes"/>
      <point x="232" y="0"/>
      <point x="245" y="16"/>
      <point x="245" y="50" type="curve" smooth="yes"/>
      <point x="245" y="629" type="line" smooth="yes"/>
      <point x="245" y="663"/>
      <point x="232" y="680"/>
      <point x="192" y="680" type="curve" smooth="yes"/>
      <point x="95" y="680" type="line" smooth="yes"/>
      <point x="56" y="680"/>
      <point x="43" y="663"/>
      <point x="43" y="629" type="curve" smooth="yes"/>
      <point x="43" y="50" type="line" smooth="yes"/>
      <point x="43" y="16"/>
      <point x="56" y="0"/>
      <point x="95" y="0" type="curve" smooth="yes"/>
    </contour>
  </outline>
</glyph>
<glyph name="p" format="1">
  <advance width="623"/>
  <unicode hex="0070"/>
  <note>
	p
  </note>
  <outline>
    <contour>
      <point x="188" y="-202" type="line" smooth="yes"/>
      <point x="228" y="-202"/>
      <point x="241" y="-186"/>
      <point x="241" y="-152" type="curve" smooth="yes"/>
      <point x="241" y="15" type="line"/>
      <point x="268" y="-4"/>
      <point x="311" y="-15"/>
      <point x="355" y="-15" type="curve" smooth="yes"/>
      <point x="515" y="-15"/>
      <point x="600" y="88"/>
      <point x="600" y="239" type="curve" smooth="yes"/>
      <point x="600" y="409"/>
      <point x="499" y="495"/>
      <point x="298" y="495" type="curve" smooth="yes"/>
      <point x="193" y="495"/>
      <point x="98" y="460"/>
      <point x="43" y="421" type="curve"/>
      <point x="43" y="-152" type="line" smooth="yes"/>
      <point x="43" y="-186"/>
      <point x="56" y="-202"/>
      <point x="95" y="-202" type="curve" smooth="yes"/>
    </contour>
    <contour>
      <point x="267" y="120"/>
      <point x="240" y="144"/>
      <point x="240" y="190" type="curve" smooth="yes"/>
      <point x="240" y="349" type="line"/>
      <point x="253" y="355"/>
      <point x="273" y="358"/>
      <point x="294" y="358" type="curve" smooth="yes"/>
      <point x="362" y="358"/>
      <point x="398" y="330"/>
      <point x="398" y="240" type="curve" smooth="yes"/>
      <point x="398" y="170"/>
      <point x="372" y="120"/>
      <point x="312" y="120" type="curve" smooth="yes"/>
    </contour>
  </outline>
</glyph>
<glyph name="v" format="1">
  <advance width="625"/>
  <unicode hex="0076"/>
  <note>
	v
  </note>
  <outline>
    <contour>
      <point x="357" y="0" type="line" smooth="yes"/>
      <point x="383" y="0"/>
      <point x="393" y="9"/>
      <point x="404" y="33" type="curve" smooth="yes"/>
      <point x="597" y="442" type="line" smooth="yes"/>
      <point x="606" y="461"/>
      <point x="602" y="480"/>
      <point x="581" y="480" type="curve" smooth="yes"/>
      <point x="434" y="480" type="line" smooth="yes"/>
      <point x="414" y="480"/>
      <point x="405" y="472"/>
      <point x="398" y="455" type="curve" smooth="yes"/>
      <point x="312" y="227" type="line"/>
      <point x="226" y="455" type="line" smooth="yes"/>
      <point x="220" y="472"/>
      <point x="211" y="480"/>
      <point x="190" y="480" type="curve" smooth="yes"/>
      <point x="44" y="480" type="line" smooth="yes"/>
      <point x="23" y="480"/>
      <point x="18" y="461"/>
      <point x="28" y="442" type="curve"/>
      <point x="221" y="33" type="line" smooth="yes"/>
      <point x="232" y="9"/>
      <point x="242" y="0"/>
      <point x="268" y="0" type="curve" smooth="yes"/>
    </contour>
  </outline>
</glyph>
<glyph name="y" format="1">
  <advance width="607"/>
  <unicode hex="0079"/>
  <note>
	y
  </note>
  <outline>
    <contour>
      <point x="298" y="-156"/>
      <point x="349" y="-90"/>
      <point x="413" y="47" type="curve" smooth="yes"/>
      <point x="599" y="442" type="line" smooth="yes"/>
      <point x="608" y="461"/>
      <point x="605" y="480"/>
      <point x="584" y="480" type="curve" smooth="yes"/>
      <point x="437" y="480" type="line" smooth="yes"/>
      <point x="416" y="480"/>
      <point x="407" y="471"/>
      <point x="401" y="455" type="curve" smooth="yes"/>
      <point x="315" y="227" type="line"/>
      <point x="229" y="455" type="line" smooth="yes"/>
      <point x="223" y="471"/>
      <point x="213" y="480"/>
      <point x="193" y="480" type="curve" smooth="yes"/>
      <point x="46" y="480" type="line" smooth="yes"/>
      <point x="24" y="480"/>
      <point x="21" y="461"/>
      <point x="30" y="442" type="curve" smooth="yes"/>
      <point x="224" y="32" type="line"/>
      <point x="214" y="4"/>
      <point x="202" y="-15"/>
      <point x="170" y="-15" type="curve" smooth="yes"/>
      <point x="144" y="-15"/>
      <point x="128" y="-6"/>
      <point x="110" y="5" type="curve" smooth="yes"/>
      <point x="93" y="15"/>
      <point x="83" y="15"/>
      <point x="74" y="-1" type="curve" smooth="yes"/>
      <point x="34" y="-72" type="line" smooth="yes"/>
      <point x="25" y="-87"/>
      <point x="24" y="-96"/>
      <point x="38" y="-107" type="curve" smooth="yes"/>
      <point x="74" y="-136"/>
      <point x="121" y="-156"/>
      <point x="183" y="-156" type="curve" smooth="yes"/>
    </contour>
  </outline>
</glyph>
<glyph name="bar" format="1">
  <advance width="248"/>
  <unicode hex="007C"/>
  <note>
	bar
  </note>
  <outline>
    <contour>
      <point x="172" y="-90" type="line" smooth="yes"/>
      <point x="212" y="-90"/>
      <point x="225" y="-74"/>
      <point x="225" y="-40" type="curve" smooth="yes"/>
      <point x="225" y="719" type="line" smooth="yes"/>
      <point x="225" y="753"/>
      <point x="212" y="770"/>
      <point x="172" y="770" type="curve" smooth="yes"/>
      <point x="75" y="770" type="line" smooth="yes"/>
      <point x="36" y="770"/>
      <point x="23" y="753"/>
      <point x="23" y="719" type="curve" smooth="yes"/>
      <point x="23" y="-40" type="line" smooth="yes"/>
      <point x="23" y="-74"/>
      <point x="36" y="-90"/>
      <point x="75" y="-90" type="curve" smooth="yes"/>
    </contour>
  </outline>
</glyph>
<glyph name="exclamdown" format="1">
  <advance width="259"/>
  <unicode hex="00A1"/>
  <note>
	exclamdown
  </note>
  <outline>
    <contour>
      <point x="178" y="-124" type="line" smooth="yes"/>
      <point x="217" y="-124"/>
      <point x="230" y="-107"/>
      <point x="230" y="-73" type="curve"/>
      <point x="224" y="328" type="line"/>
      <point x="224" y="361"/>
      <point x="210" y="378"/>
      <point x="170" y="378" type="curve" smooth="yes"/>
      <point x="89" y="378" type="line" smooth="yes"/>
      <point x="49" y="378"/>
      <point x="35" y="361"/>
      <point x="34" y="328" type="curve" smooth="yes"/>
      <point x="27" y="-73" type="line" smooth="yes"/>
      <point x="26" y="-107"/>
      <point x="40" y="-124"/>
      <point x="80" y="-124" type="curve" smooth="yes"/>
    </contour>
    <contour>
      <point x="160" y="432" type="line" smooth="yes"/>
      <point x="212" y="432"/>
      <point x="236" y="448"/>
      <point x="236" y="482" type="curve" smooth="yes"/>
      <point x="236" y="506" type="line" smooth="yes"/>
      <point x="236" y="540"/>
      <point x="212" y="556"/>
      <point x="160" y="556" type="curve" smooth="yes"/>
      <point x="100" y="556" type="line" smooth="yes"/>
      <point x="48" y="556"/>
      <point x="23" y="540"/>
      <point x="23" y="506" type="curve" smooth="yes"/>
      <point x="23" y="482" type="line" smooth="yes"/>
      <point x="23" y="448"/>
      <point x="48" y="432"/>
      <point x="100" y="432" type="curve" smooth="yes"/>
    </contour>
  </outline>
</glyph>
<glyph name="cent" format="1">
  <advance width="561"/>
  <unicode hex="00A2"/>
  <note>
	cent
  </note>
  <outline>
    <contour>
      <point x="350" y="-103" type="line" smooth="yes"/>
      <point x="390" y="-103"/>
      <point x="403" y="-87"/>
      <point x="403" y="-53" type="curve" smooth="yes"/>
      <point x="403" y="-7" type="line"/>
      <point x="450" y="1"/>
      <point x="489" y="16"/>
      <point x="525" y="39" type="curve" smooth="yes"/>
      <point x="540" y="49"/>
      <point x="541" y="58"/>
      <point x="532" y="72" type="curve"/>
      <point x="487" y="149" type="line" smooth="yes"/>
      <point x="477" y="167"/>
      <point x="470" y="166"/>
      <point x="451" y="155" type="curve" smooth="yes"/>
      <point x="421" y="137"/>
      <point x="386" y="121"/>
      <point x="340" y="121" type="curve" smooth="yes"/>
      <point x="270" y="121"/>
      <point x="224" y="161"/>
      <point x="224" y="239" type="curve" smooth="yes"/>
      <point x="224" y="314"/>
      <point x="270" y="359"/>
      <point x="335" y="359" type="curve" smooth="yes"/>
      <point x="386" y="359"/>
      <point x="413" y="345"/>
      <point x="444" y="326" type="curve" smooth="yes"/>
      <point x="461" y="316"/>
      <point x="470" y="314"/>
      <point x="480" y="332" type="curve" smooth="yes"/>
      <point x="521" y="403" type="line" smooth="yes"/>
      <point x="530" y="419"/>
      <point x="533" y="431"/>
      <point x="518" y="442" type="curve" smooth="yes"/>
      <point x="487" y="464"/>
      <point x="450" y="478"/>
      <point x="403" y="487" type="curve"/>
      <point x="403" y="532" type="line" smooth="yes"/>
      <point x="403" y="566"/>
      <point x="390" y="583"/>
      <point x="350" y="583" type="curve" smooth="yes"/>
      <point x="269" y="583" type="line" smooth="yes"/>
      <point x="230" y="583"/>
      <point x="216" y="566"/>
      <point x="216" y="532" type="curve" smooth="yes"/>
      <point x="216" y="481" type="line"/>
      <point x="94" y="453"/>
      <point x="23" y="362"/>
      <point x="23" y="239" type="curve" smooth="yes"/>
      <point x="23" y="105"/>
      <point x="92" y="22"/>
      <point x="216" y="-4" type="curve"/>
      <point x="216" y="-53" type="line" smooth="yes"/>
      <point x="216" y="-87"/>
      <point x="230" y="-103"/>
      <point x="269" y="-103" type="curve" smooth="yes"/>
    </contour>
  </outline>
</glyph>
<glyph name="sterling" format="1">
  <advance width="565"/>
  <unicode hex="00A3"/>
  <note>
	sterling
  </note>
  <outline>
    <contour>
      <point x="493" y="0" type="line" smooth="yes"/>
      <point x="532" y="0"/>
      <point x="542" y="16"/>
      <point x="542" y="50" type="curve" smooth="yes"/>
      <point x="542" y="88" type="line" smooth="yes"/>
      <point x="542" y="121"/>
      <point x="532" y="137"/>
      <point x="493" y="137" type="curve" smooth="yes"/>
      <point x="286" y="137" type="line"/>
      <point x="303" y="154"/>
      <point x="309" y="180"/>
      <point x="309" y="210" type="curve" smooth="yes"/>
      <point x="309" y="298" type="line"/>
      <point x="400" y="298" type="line" smooth="yes"/>
      <point x="439" y="298"/>
      <point x="448" y="314"/>
      <point x="448" y="348" type="curve" smooth="yes"/>
      <point x="448" y="386" type="line" smooth="yes"/>
      <point x="448" y="420"/>
      <point x="439" y="436"/>
      <point x="400" y="436" type="curve" smooth="yes"/>
      <point x="309" y="436" type="line"/>
      <point x="309" y="500" type="line" smooth="yes"/>
      <point x="309" y="542"/>
      <point x="331" y="563"/>
      <point x="374" y="563" type="curve" smooth="yes"/>
      <point x="396" y="563"/>
      <point x="418" y="558"/>
      <point x="435" y="549" type="curve" smooth="yes"/>
      <point x="448" y="542"/>
      <point x="457" y="543"/>
      <point x="465" y="556" type="curve" smooth="yes"/>
      <point x="501" y="617" type="line" smooth="yes"/>
      <point x="510" y="632"/>
      <point x="509" y="641"/>
      <point x="495" y="651" type="curve" smooth="yes"/>
      <point x="457" y="679"/>
      <point x="401" y="695"/>
      <point x="326" y="695" type="curve" smooth="yes"/>
      <point x="179" y="695"/>
      <point x="107" y="617"/>
      <point x="107" y="493" type="curve" smooth="yes"/>
      <point x="107" y="436" type="line"/>
      <point x="73" y="436" type="line" smooth="yes"/>
      <point x="34" y="436"/>
      <point x="25" y="420"/>
      <point x="25" y="386" type="curve" smooth="yes"/>
      <point x="25" y="348" type="line" smooth="yes"/>
      <point x="25" y="314"/>
      <point x="34" y="298"/>
      <point x="73" y="298" type="curve" smooth="yes"/>
      <point x="107" y="298" type="line"/>
      <point x="107" y="182" type="line" smooth="yes"/>
      <point x="107" y="151"/>
      <point x="96" y="137"/>
      <point x="71" y="137" type="curve" smooth="yes"/>
      <point x="32" y="137"/>
      <point x="23" y="121"/>
      <point x="23" y="88" type="curve" smooth="yes"/>
      <point x="23" y="50" type="line" smooth="yes"/>
      <point x="23" y="16"/>
      <point x="32" y="0"/>
      <point x="71" y="0" type="curve" smooth="yes"/>
    </contour>
  </outline>
</glyph>
<glyph name="currency" format="1">
  <advance width="570"/>
  <unicode hex="00A4"/>
  <note>
	currency
  </note>
  <outline>
    <contour>
      <point x="202" y="106" type="line"/>
      <point x="228" y="94"/>
      <point x="255" y="90"/>
      <point x="285" y="90" type="curve" smooth="yes"/>
      <point x="314" y="90"/>
      <point x="342" y="94"/>
      <point x="368" y="106" type="curve"/>
      <point x="414" y="65" type="line" smooth="yes"/>
      <point x="431" y="50"/>
      <point x="447" y="51"/>
      <point x="465" y="67" type="curve"/>
      <point x="534" y="133" type="line" smooth="yes"/>
      <point x="551" y="149"/>
      <point x="550" y="161"/>
      <point x="535" y="176" type="curve" smooth="yes"/>
      <point x="501" y="212" type="line"/>
      <point x="517" y="241"/>
      <point x="526" y="273"/>
      <point x="526" y="305" type="curve" smooth="yes"/>
      <point x="526" y="337"/>
      <point x="517" y="369"/>
      <point x="501" y="399" type="curve"/>
      <point x="535" y="434" type="line" smooth="yes"/>
      <point x="550" y="449"/>
      <point x="551" y="461"/>
      <point x="534" y="477" type="curve" smooth="yes"/>
      <point x="465" y="543" type="line" smooth="yes"/>
      <point x="448" y="560"/>
      <point x="431" y="560"/>
      <point x="414" y="545" type="curve" smooth="yes"/>
      <point x="368" y="505" type="line"/>
      <point x="344" y="514"/>
      <point x="314" y="521"/>
      <point x="285" y="521" type="curve" smooth="yes"/>
      <point x="255" y="521"/>
      <point x="226" y="514"/>
      <point x="202" y="505" type="curve"/>
      <point x="155" y="545" type="line" smooth="yes"/>
      <point x="138" y="560"/>
      <point x="123" y="560"/>
      <point x="105" y="543" type="curve" smooth="yes"/>
      <point x="35" y="477" type="line" smooth="yes"/>
      <point x="19" y="461"/>
      <point x="20" y="449"/>
      <point x="34" y="434" type="curve" smooth="yes"/>
      <point x="69" y="399" type="line"/>
      <point x="53" y="369"/>
      <point x="44" y="337"/>
      <point x="44" y="305" type="curve" smooth="yes"/>
      <point x="44" y="274"/>
      <point x="53" y="241"/>
      <point x="69" y="212" type="curve"/>
      <point x="34" y="176" type="line" smooth="yes"/>
      <point x="20" y="161"/>
      <point x="18" y="149"/>
      <point x="35" y="133" type="curve" smooth="yes"/>
      <point x="105" y="67" type="line" smooth="yes"/>
      <point x="123" y="51"/>
      <point x="138" y="50"/>
      <point x="155" y="65" type="curve" smooth="yes"/>
    </contour>
    <contour>
      <point x="246" y="233"/>
      <point x="214" y="266"/>
      <point x="214" y="305" type="curve" smooth="yes"/>
      <point x="214" y="344"/>
      <point x="246" y="376"/>
      <point x="285" y="376" type="curve" smooth="yes"/>
      <point x="324" y="376"/>
      <point x="356" y="344"/>
      <point x="356" y="305" type="curve" smooth="yes"/>
      <point x="356" y="266"/>
      <point x="324" y="233"/>
      <point x="285" y="233" type="curve" smooth="yes"/>
    </contour>
  </outline>
</glyph>
<glyph name="brokenbar" format="1">
  <advance width="248"/>
  <unicode hex="00A6"/>
  <note>
	brokenbar
  </note>
  <outline>
    <contour>
      <point x="172" y="350" type="line" smooth="yes"/>
      <point x="212" y="350"/>
      <point x="225" y="366"/>
      <point x="225" y="400" type="curve" smooth="yes"/>
      <point x="225" y="679" type="line" smooth="yes"/>
      <point x="225" y="713"/>
      <point x="212" y="730"/>
      <point x="172" y="730" type="curve" smooth="yes"/>
      <point x="75" y="730" type="line" smooth="yes"/>
      <point x="36" y="730"/>
      <point x="23" y="713"/>
      <point x="23" y="679" type="curve" smooth="yes"/>
      <point x="23" y="400" type="line" smooth="yes"/>
      <point x="23" y="366"/>
      <point x="36" y="350"/>
      <point x="75" y="350" type="curve" smooth="yes"/>
    </contour>
    <contour>
      <point x="172" y="-219" type="line" smooth="yes"/>
      <point x="212" y="-219"/>
      <point x="225" y="-203"/>
      <point x="225" y="-169" type="curve" smooth="yes"/>
      <point x="225" y="110" type="line" smooth="yes"/>
      <point x="225" y="144"/>
      <point x="212" y="161"/>
      <point x="172" y="161" type="curve" smooth="yes"/>
      <point x="75" y="161" type="line" smooth="yes"/>
      <point x="36" y="161"/>
      <point x="23" y="144"/>
      <point x="23" y="110" type="curve" smooth="yes"/>
      <point x="23" y="-169" type="line" smooth="yes"/>
      <point x="23" y="-203"/>
      <point x="36" y="-219"/>
      <point x="75" y="-219" type="curve" smooth="yes"/>
    </contour>
  </outline>
</glyph>
<glyph name="section" format="1">
  <advance width="606"/>
  <unicode hex="00A7"/>
  <note>
	section
  </note>
  <outline>
    <contour>
      <point x="495" y="-156"/>
      <point x="583" y="-79"/>
      <point x="583" y="27" type="curve" smooth="yes"/>
      <point x="583" y="74"/>
      <point x="574" y="102"/>
      <point x="551" y="127" type="curve"/>
      <point x="573" y="151"/>
      <point x="582" y="179"/>
      <point x="582" y="214" type="curve" smooth="yes"/>
      <point x="582" y="324"/>
      <point x="502" y="363"/>
      <point x="390" y="413" type="curve" smooth="yes"/>
      <point x="308" y="448"/>
      <point x="253" y="457"/>
      <point x="253" y="501" type="curve" smooth="yes"/>
      <point x="253" y="538"/>
      <point x="286" y="551"/>
      <point x="342" y="551" type="curve" smooth="yes"/>
      <point x="401" y="551"/>
      <point x="448" y="534"/>
      <point x="480" y="513" type="curve" smooth="yes"/>
      <point x="496" y="503"/>
      <point x="503" y="503"/>
      <point x="513" y="518" type="curve" smooth="yes"/>
      <point x="562" y="596" type="line" smooth="yes"/>
      <point x="572" y="612"/>
      <point x="570" y="622"/>
      <point x="551" y="636" type="curve" smooth="yes"/>
      <point x="496" y="676"/>
      <point x="420" y="695"/>
      <point x="311" y="695" type="curve" smooth="yes"/>
      <point x="151" y="695"/>
      <point x="53" y="620"/>
      <point x="53" y="512" type="curve" smooth="yes"/>
      <point x="53" y="477"/>
      <point x="62" y="444"/>
      <point x="83" y="416" type="curve"/>
      <point x="63" y="385"/>
      <point x="53" y="357"/>
      <point x="53" y="309" type="curve" smooth="yes"/>
      <point x="53" y="202"/>
      <point x="144" y="159"/>
      <point x="238" y="118" type="curve" smooth="yes"/>
      <point x="321" y="81"/>
      <point x="381" y="72"/>
      <point x="381" y="31" type="curve" smooth="yes"/>
      <point x="381" y="-2"/>
      <point x="343" y="-13"/>
      <point x="283" y="-13" type="curve" smooth="yes"/>
      <point x="221" y="-13"/>
      <point x="154" y="6"/>
      <point x="106" y="34" type="curve" smooth="yes"/>
      <point x="90" y="43"/>
      <point x="83" y="44"/>
      <point x="73" y="29" type="curve" smooth="yes"/>
      <point x="24" y="-49" type="line" smooth="yes"/>
      <point x="14" y="-65"/>
      <point x="15" y="-75"/>
      <point x="35" y="-89" type="curve" smooth="yes"/>
      <point x="97" y="-132"/>
      <point x="205" y="-156"/>
      <point x="315" y="-156" type="curve" smooth="yes"/>
    </contour>
    <contour>
      <point x="389" y="209"/>
      <point x="347" y="226"/>
      <point x="303" y="248" type="curve" smooth="yes"/>
      <point x="253" y="273"/>
      <point x="219" y="291"/>
      <point x="211" y="321" type="curve"/>
      <point x="209" y="327"/>
      <point x="210" y="340"/>
      <point x="214" y="345" type="curve"/>
      <point x="248" y="326"/>
      <point x="287" y="308"/>
      <point x="323" y="291" type="curve" smooth="yes"/>
      <point x="375" y="266"/>
      <point x="420" y="240"/>
      <point x="426" y="206" type="curve" smooth="yes"/>
      <point x="427" y="200"/>
      <point x="427" y="195"/>
      <point x="427" y="190" type="curve"/>
    </contour>
  </outline>
</glyph>
<glyph name="macron" format="1">
  <advance width="412"/>
  <unicode hex="00AF"/>
  <note>
	macron
  </note>
  <outline>
    <contour>
      <point x="340" y="571" type="line" smooth="yes"/>
      <point x="379" y="571"/>
      <point x="389" y="587"/>
      <point x="389" y="621" type="curve" smooth="yes"/>
      <point x="389" y="667" type="line" smooth="yes"/>
      <point x="389" y="701"/>
      <point x="379" y="717"/>
      <point x="340" y="717" type="curve" smooth="yes"/>
      <point x="71" y="717" type="line" smooth="yes"/>
      <point x="32" y="717"/>
      <point x="23" y="701"/>
      <point x="23" y="667" type="curve" smooth="yes"/>
      <point x="23" y="621" type="line" smooth="yes"/>
      <point x="23" y="587"/>
      <point x="32" y="571"/>
      <point x="71" y="571" type="curve" smooth="yes"/>
    </contour>
  </outline>
</glyph>
<glyph name="plusminus" format="1">
  <advance width="464"/>
  <unicode hex="00B1"/>
  <note>
	plusminus
  </note>
  <outline>
    <contour>
      <point x="264" y="199" type="line" smooth="yes"/>
      <point x="300" y="199"/>
      <point x="312" y="209"/>
      <point x="312" y="245" type="curve" smooth="yes"/>
      <point x="312" y="310" type="line"/>
      <point x="396" y="310" type="line" smooth="yes"/>
      <point x="434" y="310"/>
      <point x="445" y="322"/>
      <point x="445" y="358" type="curve" smooth="yes"/>
      <point x="445" y="408" type="line" smooth="yes"/>
      <point x="445" y="444"/>
      <point x="434" y="456"/>
      <point x="396" y="456" type="curve" smooth="yes"/>
      <point x="312" y="456" type="line"/>
      <point x="312" y="522" type="line" smooth="yes"/>
      <point x="312" y="558"/>
      <point x="300" y="568"/>
      <point x="264" y="568" type="curve" smooth="yes"/>
      <point x="202" y="568" type="line" smooth="yes"/>
      <point x="167" y="568"/>
      <point x="154" y="558"/>
      <point x="154" y="522" type="curve" smooth="yes"/>
      <point x="154" y="456" type="line"/>
      <point x="72" y="456" type="line" smooth="yes"/>
      <point x="34" y="456"/>
      <point x="23" y="444"/>
      <point x="23" y="408" type="curve" smooth="yes"/>
      <point x="23" y="358" type="line" smooth="yes"/>
      <point x="23" y="322"/>
      <point x="34" y="310"/>
      <point x="72" y="310" type="curve" smooth="yes"/>
      <point x="154" y="310" type="line"/>
      <point x="154" y="245" type="line" smooth="yes"/>
      <point x="154" y="209"/>
      <point x="167" y="199"/>
      <point x="202" y="199" type="curve" smooth="yes"/>
    </contour>
    <contour>
      <point x="397" y="0" type="line" smooth="yes"/>
      <point x="434" y="0"/>
      <point x="443" y="16"/>
      <point x="443" y="48" type="curve" smooth="yes"/>
      <point x="443" y="97" type="line" smooth="yes"/>
      <point x="443" y="129"/>
      <point x="434" y="145"/>
      <point x="397" y="145" type="curve" smooth="yes"/>
      <point x="67" y="145" type="line" smooth="yes"/>
      <point x="30" y="145"/>
      <point x="21" y="129"/>
      <point x="21" y="97" type="curve" smooth="yes"/>
      <point x="21" y="48" type="line" smooth="yes"/>
      <point x="21" y="16"/>
      <point x="30" y="0"/>
      <point x="67" y="0" type="curve" smooth="yes"/>
    </contour>
  </outline>
</glyph>
<glyph name="twosuperior" format="1">
  <advance width="377"/>
  <unicode hex="00B2"/>
  <note>
	twosuperior
  </note>
  <outline>
    <contour>
      <point x="326" y="286" type="line" smooth="yes"/>
      <point x="348" y="286"/>
      <point x="354" y="295"/>
      <point x="354" y="314" type="curve" smooth="yes"/>
      <point x="354" y="362" type="line" smooth="yes"/>
      <point x="354" y="382"/>
      <point x="348" y="391"/>
      <point x="326" y="391" type="curve" smooth="yes"/>
      <point x="189" y="391" type="line"/>
      <point x="201" y="414"/>
      <point x="223" y="424"/>
      <point x="261" y="447" type="curve" smooth="yes"/>
      <point x="328" y="488"/>
      <point x="351" y="520"/>
      <point x="351" y="578" type="curve" smooth="yes"/>
      <point x="351" y="652"/>
      <point x="288" y="695"/>
      <point x="199" y="695" type="curve" smooth="yes"/>
      <point x="123" y="695"/>
      <point x="63" y="680"/>
      <point x="32" y="658" type="curve" smooth="yes"/>
      <point x="23" y="652"/>
      <point x="24" y="645"/>
      <point x="29" y="635" type="curve" smooth="yes"/>
      <point x="56" y="581" type="line" smooth="yes"/>
      <point x="61" y="571"/>
      <point x="67" y="573"/>
      <point x="77" y="578" type="curve" smooth="yes"/>
      <point x="98" y="588"/>
      <point x="127" y="598"/>
      <point x="161" y="598" type="curve" smooth="yes"/>
      <point x="197" y="598"/>
      <point x="212" y="585"/>
      <point x="212" y="562" type="curve" smooth="yes"/>
      <point x="212" y="529"/>
      <point x="196" y="523"/>
      <point x="136" y="484" type="curve" smooth="yes"/>
      <point x="57" y="433"/>
      <point x="25" y="395"/>
      <point x="25" y="346" type="curve" smooth="yes"/>
      <point x="25" y="313" type="line" smooth="yes"/>
      <point x="25" y="294"/>
      <point x="33" y="286"/>
      <point x="51" y="286" type="curve" smooth="yes"/>
    </contour>
  </outline>
</glyph>
<glyph name="onesuperior" format="1">
  <advance width="343"/>
  <unicode hex="00B9"/>
  <note>
	onesuperior
  </note>
  <outline>
    <contour>
      <point x="311" y="286" type="line" smooth="yes"/>
      <point x="335" y="286"/>
      <point x="340" y="295"/>
      <point x="340" y="316" type="curve" smooth="yes"/>
      <point x="340" y="351" type="line" smooth="yes"/>
      <point x="340" y="372"/>
      <point x="335" y="382"/>
      <point x="311" y="382" type="curve" smooth="yes"/>
      <point x="264" y="382" type="line"/>
      <point x="264" y="649" type="line" smooth="yes"/>
      <point x="264" y="669"/>
      <point x="255" y="680"/>
      <point x="231" y="680" type="curve" smooth="yes"/>
      <point x="171" y="680" type="line" smooth="yes"/>
      <point x="156" y="680"/>
      <point x="151" y="677"/>
      <point x="143" y="672" type="curve" smooth="yes"/>
      <point x="31" y="604" type="line" smooth="yes"/>
      <point x="23" y="599"/>
      <point x="21" y="594"/>
      <point x="26" y="587" type="curve"/>
      <point x="64" y="529" type="line" smooth="yes"/>
      <point x="70" y="520"/>
      <point x="76" y="521"/>
      <point x="83" y="525" type="curve"/>
      <point x="125" y="551" type="line"/>
      <point x="125" y="382" type="line"/>
      <point x="78" y="382" type="line" smooth="yes"/>
      <point x="54" y="382"/>
      <point x="47" y="372"/>
      <point x="47" y="351" type="curve" smooth="yes"/>
      <point x="47" y="316" type="line" smooth="yes"/>
      <point x="47" y="295"/>
      <point x="54" y="286"/>
      <point x="78" y="286" type="curve" smooth="yes"/>
    </contour>
  </outline>
</glyph>
<glyph name="ordmasculine" format="1">
  <advance width="413"/>
  <unicode hex="00BA"/>
  <note>
	ordmasculine
  </note>
  <outline>
    <contour>
      <point x="322" y="368"/>
      <point x="390" y="431"/>
      <point x="390" y="531" type="curve" smooth="yes"/>
      <point x="390" y="632"/>
      <point x="322" y="695"/>
      <point x="206" y="695" type="curve" smooth="yes"/>
      <point x="90" y="695"/>
      <point x="23" y="632"/>
      <point x="23" y="531" type="curve" smooth="yes"/>
      <point x="23" y="431"/>
      <point x="90" y="368"/>
      <point x="206" y="368" type="curve" smooth="yes"/>
    </contour>
    <contour>
      <point x="173" y="460"/>
      <point x="151" y="482"/>
      <point x="151" y="531" type="curve" smooth="yes"/>
      <point x="151" y="581"/>
      <point x="173" y="602"/>
      <point x="206" y="602" type="curve" smooth="yes"/>
      <point x="239" y="602"/>
      <point x="262" y="581"/>
      <point x="262" y="531" type="curve" smooth="yes"/>
      <point x="262" y="482"/>
      <point x="239" y="460"/>
      <point x="206" y="460" type="curve" smooth="yes"/>
    </contour>
  </outline>
</glyph>
<glyph name="guillemetright" format="1">
  <advance width="743"/>
  <unicode hex="00BB"/>
  <note>
	guillemotright
  </note>
  <outline>
    <contour>
      <point x="457" y="4"/>
      <point x="474" y="7"/>
      <point x="496" y="30" type="curve" smooth="yes"/>
      <point x="688" y="227" type="line" smooth="yes"/>
      <point x="709" y="249"/>
      <point x="720" y="258"/>
      <point x="720" y="274" type="curve" smooth="yes"/>
      <point x="720" y="297" type="line" smooth="yes"/>
      <point x="720" y="312"/>
      <point x="707" y="324"/>
      <point x="688" y="344" type="curve" smooth="yes"/>
      <point x="496" y="541" type="line" smooth="yes"/>
      <point x="474" y="564"/>
      <point x="457" y="567"/>
      <point x="438" y="548" type="curve" smooth="yes"/>
      <point x="370" y="480" type="line" smooth="yes"/>
      <point x="353" y="463"/>
      <point x="347" y="449"/>
      <point x="371" y="427" type="curve" smooth="yes"/>
      <point x="516" y="286" type="line"/>
      <point x="371" y="144" type="line" smooth="yes"/>
      <point x="347" y="122"/>
      <point x="353" y="108"/>
      <point x="370" y="91" type="curve" smooth="yes"/>
      <point x="438" y="23" type="line" smooth="yes"/>
    </contour>
    <contour>
      <point x="125" y="4"/>
      <point x="142" y="7"/>
      <point x="164" y="30" type="curve" smooth="yes"/>
      <point x="356" y="227" type="line" smooth="yes"/>
      <point x="377" y="249"/>
      <point x="388" y="258"/>
      <point x="388" y="274" type="curve" smooth="yes"/>
      <point x="388" y="297" type="line" smooth="yes"/>
      <point x="388" y="312"/>
      <point x="375" y="324"/>
      <point x="356" y="344" type="curve" smooth="yes"/>
      <point x="164" y="541" type="line" smooth="yes"/>
      <point x="142" y="564"/>
      <point x="125" y="567"/>
      <point x="106" y="548" type="curve" smooth="yes"/>
      <point x="38" y="480" type="line" smooth="yes"/>
      <point x="21" y="463"/>
      <point x="15" y="449"/>
      <point x="39" y="427" type="curve" smooth="yes"/>
      <point x="184" y="286" type="line"/>
      <point x="39" y="144" type="line" smooth="yes"/>
      <point x="15" y="122"/>
      <point x="21" y="108"/>
      <point x="38" y="91" type="curve" smooth="yes"/>
      <point x="106" y="23" type="line" smooth="yes"/>
    </contour>
  </outline>
</glyph>
<glyph name="onequarter" format="1">
  <advance width="854"/>
  <unicode hex="00BC"/>
  <note>
	onequarter
  </note>
  <outline>
    <contour>
      <point x="289" y="0" type="line" smooth="yes"/>
      <point x="310" y="0"/>
      <point x="318" y="6"/>
      <point x="325" y="18" type="curve" smooth="yes"/>
      <point x="708" y="643" type="line"/>
      <point x="718" y="661"/>
      <point x="714" y="680"/>
      <point x="693" y="680" type="curve" smooth="yes"/>
      <point x="574" y="680" type="line" smooth="yes"/>
      <point x="555" y="680"/>
      <point x="546" y="672"/>
      <point x="536" y="656" type="curve" smooth="yes"/>
      <point x="157" y="37" type="line" smooth="yes"/>
      <point x="146" y="19"/>
      <point x="151" y="0"/>
      <point x="172" y="0" type="curve" smooth="yes"/>
    </contour>
    <contour>
      <point x="276" y="286" type="line" smooth="yes"/>
      <point x="300" y="286"/>
      <point x="305" y="295"/>
      <point x="305" y="316" type="curve" smooth="yes"/>
      <point x="305" y="351" type="line" smooth="yes"/>
      <point x="305" y="372"/>
      <point x="300" y="382"/>
      <point x="276" y="382" type="curve" smooth="yes"/>
      <point x="229" y="382" type="line"/>
      <point x="229" y="649" type="line" smooth="yes"/>
      <point x="229" y="669"/>
      <point x="220" y="680"/>
      <point x="196" y="680" type="curve" smooth="yes"/>
      <point x="136" y="680" type="line" smooth="yes"/>
      <point x="121" y="680"/>
      <point x="116" y="677"/>
      <point x="108" y="672" type="curve" smooth="yes"/>
      <point x="-4" y="604" type="line" smooth="yes"/>
      <point x="-12" y="599"/>
      <point x="-14" y="594"/>
      <point x="-9" y="587" type="curve"/>
      <point x="29" y="529" type="line" smooth="yes"/>
      <point x="35" y="520"/>
      <point x="41" y="521"/>
      <point x="48" y="525" type="curve"/>
      <point x="90" y="551" type="line"/>
      <point x="90" y="382" type="line"/>
      <point x="43" y="382" type="line" smooth="yes"/>
      <point x="19" y="382"/>
      <point x="12" y="372"/>
      <point x="12" y="351" type="curve" smooth="yes"/>
      <point x="12" y="316" type="line" smooth="yes"/>
      <point x="12" y="295"/>
      <point x="19" y="286"/>
      <point x="43" y="286" type="curve" smooth="yes"/>
    </contour>
    <contour>
      <point x="731" y="0" type="line" smooth="yes"/>
      <point x="763" y="0"/>
      <point x="775" y="4"/>
      <point x="775" y="28" type="curve" smooth="yes"/>
      <point x="775" y="79" type="line"/>
      <point x="802" y="79" type="line" smooth="yes"/>
      <point x="826" y="79"/>
      <point x="831" y="86"/>
      <point x="831" y="107" type="curve" smooth="yes"/>
      <point x="831" y="142" type="line" smooth="yes"/>
      <point x="831" y="162"/>
      <point x="826" y="171"/>
      <point x="802" y="171" type="curve" smooth="yes"/>
      <point x="775" y="171" type="line"/>
      <point x="775" y="364" type="line" smooth="yes"/>
      <point x="775" y="385"/>
      <point x="768" y="394"/>
      <point x="745" y="394" type="curve" smooth="yes"/>
      <point x="682" y="394" type="line" smooth="yes"/>
      <point x="648" y="394"/>
      <point x="634" y="394"/>
      <point x="620" y="377" type="curve" smooth="yes"/>
      <point x="459" y="181" type="line" smooth="yes"/>
      <point x="446" y="165"/>
      <point x="443" y="158"/>
      <point x="443" y="138" type="curve" smooth="yes"/>
      <point x="443" y="97" type="line" smooth="yes"/>
      <point x="443" y="85"/>
      <point x="449" y="79"/>
      <point x="462" y="79" type="curve" smooth="yes"/>
      <point x="628" y="79" type="line"/>
      <point x="628" y="28" type="line" smooth="yes"/>
      <point x="628" y="7"/>
      <point x="637" y="0"/>
      <point x="661" y="0" type="curve" smooth="yes"/>
    </contour>
    <contour>
      <point x="659" y="262" type="line"/>
      <point x="659" y="171" type="line"/>
      <point x="589" y="171" type="line"/>
    </contour>
  </outline>
</glyph>
<glyph name="Aacute" format="1">
  <advance width="747"/>
  <unicode hex="00C1"/>
  <note>
	Aacute
  </note>
  <outline>
    <contour>
      <point x="198" y="0" type="line" smooth="yes"/>
      <point x="219" y="0"/>
      <point x="228" y="8"/>
      <point x="234" y="24" type="curve" smooth="yes"/>
      <point x="268" y="120" type="line"/>
      <point x="478" y="120" type="line"/>
      <point x="513" y="24" type="line" smooth="yes"/>
      <point x="519" y="8"/>
      <point x="528" y="0"/>
      <point x="548" y="0" type="curve" smooth="yes"/>
      <point x="703" y="0" type="line" smooth="yes"/>
      <point x="724" y="0"/>
      <point x="728" y="17"/>
      <point x="719" y="38" type="curve" smooth="yes"/>
      <point x="465" y="646" type="line" smooth="yes"/>
      <point x="455" y="671"/>
      <point x="445" y="680"/>
      <point x="419" y="680" type="curve" smooth="yes"/>
      <point x="328" y="680" type="line" smooth="yes"/>
      <point x="303" y="680"/>
      <point x="292" y="671"/>
      <point x="282" y="646" type="curve" smooth="yes"/>
      <point x="28" y="38" type="line" smooth="yes"/>
      <point x="19" y="17"/>
      <point x="22" y="0"/>
      <point x="44" y="0" type="curve" smooth="yes"/>
    </contour>
    <contour>
      <point x="373" y="426" type="line"/>
      <point x="434" y="256" type="line"/>
      <point x="312" y="256" type="line"/>
    </contour>
    <contour>
      <point x="408" y="717" type="line" smooth="yes"/>
      <point x="448" y="717"/>
      <point x="456" y="724"/>
      <point x="471" y="750" type="curve" smooth="yes"/>
      <point x="536" y="865" type="line" smooth="yes"/>
      <point x="553" y="896"/>
      <point x="536" y="912"/>
      <point x="504" y="912" type="curve" smooth="yes"/>
      <point x="384" y="912" type="line" smooth="yes"/>
      <point x="347" y="912"/>
      <point x="341" y="902"/>
      <point x="332" y="878" type="curve" smooth="yes"/>
      <point x="288" y="757" type="line" smooth="yes"/>
      <point x="280" y="734"/>
      <point x="288" y="717"/>
      <point x="319" y="717" type="curve" smooth="yes"/>
    </contour>
  </outline>
</glyph>
<glyph name="Adieresis" format="1">
  <advance width="747"/>
  <unicode hex="00C4"/>
  <note>
	Adieresis
  </note>
  <outline>
    <contour>
      <point x="198" y="0" type="line" smooth="yes"/>
      <point x="219" y="0"/>
      <point x="228" y="8"/>
      <point x="234" y="24" type="curve" smooth="yes"/>
      <point x="268" y="120" type="line"/>
      <point x="478" y="120" type="line"/>
      <point x="513" y="24" type="line" smooth="yes"/>
      <point x="519" y="8"/>
      <point x="528" y="0"/>
      <point x="548" y="0" type="curve" smooth="yes"/>
      <point x="703" y="0" type="line" smooth="yes"/>
      <point x="724" y="0"/>
      <point x="728" y="17"/>
      <point x="719" y="38" type="curve" smooth="yes"/>
      <point x="465" y="646" type="line" smooth="yes"/>
      <point x="455" y="671"/>
      <point x="445" y="680"/>
      <point x="419" y="680" type="curve" smooth="yes"/>
      <point x="328" y="680" type="line" smooth="yes"/>
      <point x="303" y="680"/>
      <point x="292" y="671"/>
      <point x="282" y="646" type="curve" smooth="yes"/>
      <point x="28" y="38" type="line" smooth="yes"/>
      <point x="19" y="17"/>
      <point x="22" y="0"/>
      <point x="44" y="0" type="curve" smooth="yes"/>
    </contour>
    <contour>
      <point x="373" y="426" type="line"/>
      <point x="434" y="256" type="line"/>
      <point x="312" y="256" type="line"/>
    </contour>
    <contour>
      <point x="280" y="697" type="line" smooth="yes"/>
      <point x="317" y="697"/>
      <point x="341" y="726"/>
      <point x="341" y="761" type="curve" smooth="yes"/>
      <point x="341" y="786" type="line" smooth="yes"/>
      <point x="341" y="822"/>
      <point x="316" y="850"/>
      <point x="280" y="850" type="curve" smooth="yes"/>
      <point x="253" y="850" type="line" smooth="yes"/>
      <point x="217" y="850"/>
      <point x="192" y="822"/>
      <point x="192" y="786" type="curve" smooth="yes"/>
      <point x="192" y="761" type="line" smooth="yes"/>
      <point x="192" y="726"/>
      <point x="217" y="697"/>
      <point x="253" y="697" type="curve" smooth="yes"/>
    </contour>
    <contour>
      <point x="494" y="697" type="line" smooth="yes"/>
      <point x="531" y="697"/>
      <point x="555" y="726"/>
      <point x="555" y="761" type="curve" smooth="yes"/>
      <point x="555" y="786" type="line" smooth="yes"/>
      <point x="555" y="822"/>
      <point x="530" y="850"/>
      <point x="494" y="850" type="curve" smooth="yes"/>
      <point x="467" y="850" type="line" smooth="yes"/>
      <point x="432" y="850"/>
      <point x="406" y="822"/>
      <point x="406" y="786" type="curve" smooth="yes"/>
      <point x="406" y="761" type="line" smooth="yes"/>
      <point x="406" y="726"/>
      <point x="432" y="697"/>
      <point x="467" y="697" type="curve" smooth="yes"/>
    </contour>
  </outline>
</glyph>
<glyph name="Egrave" format="1">
  <advance width="571"/>
  <unicode hex="00C8"/>
  <note>
	Egrave
  </note>
  <outline>
    <contour>
      <point x="509" y="0" type="line" smooth="yes"/>
      <point x="548" y="0"/>
      <point x="557" y="16"/>
      <point x="557" y="49" type="curve" smooth="yes"/>
      <point x="557" y="95" type="line" smooth="yes"/>
      <point x="557" y="129"/>
      <point x="548" y="145"/>
      <point x="509" y="145" type="curve" smooth="yes"/>
      <point x="245" y="145" type="line"/>
      <point x="245" y="268" type="line"/>
      <point x="420" y="268" type="line" smooth="yes"/>
      <point x="459" y="268"/>
      <point x="469" y="284"/>
      <point x="469" y="318" type="curve" smooth="yes"/>
      <point x="469" y="362" type="line" smooth="yes"/>
      <point x="469" y="396"/>
      <point x="459" y="412"/>
      <point x="420" y="412" type="curve" smooth="yes"/>
      <point x="245" y="412" type="line"/>
      <point x="245" y="534" type="line"/>
      <point x="510" y="534" type="line" smooth="yes"/>
      <point x="549" y="534"/>
      <point x="558" y="550"/>
      <point x="558" y="584" type="curve" smooth="yes"/>
      <point x="558" y="630" type="line" smooth="yes"/>
      <point x="558" y="664"/>
      <point x="549" y="680"/>
      <point x="510" y="680" type="curve" smooth="yes"/>
      <point x="95" y="680" type="line" smooth="yes"/>
      <point x="56" y="680"/>
      <point x="43" y="663"/>
      <point x="43" y="629" type="curve" smooth="yes"/>
      <point x="43" y="50" type="line" smooth="yes"/>
      <point x="43" y="16"/>
      <point x="56" y="0"/>
      <point x="95" y="0" type="curve" smooth="yes"/>
    </contour>
    <contour>
      <point x="375" y="741" type="line" smooth="yes"/>
      <point x="406" y="741"/>
      <point x="415" y="758"/>
      <point x="406" y="781" type="curve" smooth="yes"/>
      <point x="362" y="902" type="line" smooth="yes"/>
      <point x="353" y="927"/>
      <point x="347" y="936"/>
      <point x="310" y="936" type="curve" smooth="yes"/>
      <point x="190" y="936" type="line" smooth="yes"/>
      <point x="158" y="936"/>
      <point x="141" y="920"/>
      <point x="158" y="889" type="curve" smooth="yes"/>
      <point x="223" y="774" type="line" smooth="yes"/>
      <point x="238" y="748"/>
      <point x="246" y="741"/>
      <point x="286" y="741" type="curve" smooth="yes"/>
    </contour>
  </outline>
</glyph>
<glyph name="Ecircumflex" format="1">
  <advance width="571"/>
  <unicode hex="00CA"/>
  <note>
	Ecircumflex
  </note>
  <outline>
    <contour>
      <point x="509" y="0" type="line" smooth="yes"/>
      <point x="548" y="0"/>
      <point x="557" y="16"/>
      <point x="557" y="49" type="curve" smooth="yes"/>
      <point x="557" y="95" type="line" smooth="yes"/>
      <point x="557" y="129"/>
      <point x="548" y="145"/>
      <point x="509" y="145" type="curve" smooth="yes"/>
      <point x="245" y="145" type="line"/>
      <point x="245" y="268" type="line"/>
      <point x="420" y="268" type="line" smooth="yes"/>
      <point x="459" y="268"/>
      <point x="469" y="284"/>
      <point x="469" y="318" type="curve" smooth="yes"/>
      <point x="469" y="362" type="line" smooth="yes"/>
      <point x="469" y="396"/>
      <point x="459" y="412"/>
      <point x="420" y="412" type="curve" smooth="yes"/>
      <point x="245" y="412" type="line"/>
      <point x="245" y="534" type="line"/>
      <point x="510" y="534" type="line" smooth="yes"/>
      <point x="549" y="534"/>
      <point x="558" y="550"/>
      <point x="558" y="584" type="curve" smooth="yes"/>
      <point x="558" y="630" type="line" smooth="yes"/>
      <point x="558" y="664"/>
      <point x="549" y="680"/>
      <point x="510" y="680" type="curve" smooth="yes"/>
      <point x="95" y="680" type="line" smooth="yes"/>
      <point x="56" y="680"/>
      <point x="43" y="663"/>
      <point x="43" y="629" type="curve" smooth="yes"/>
      <point x="43" y="50" type="line" smooth="yes"/>
      <point x="43" y="16"/>
      <point x="56" y="0"/>
      <point x="95" y="0" type="curve" smooth="yes"/>
    </contour>
    <contour>
      <point x="194" y="742" type="line" smooth="yes"/>
      <point x="227" y="742"/>
      <point x="237" y="749"/>
      <point x="249" y="768" type="curve" smooth="yes"/>
      <point x="300" y="845" type="line"/>
      <point x="350" y="768" type="line" smooth="yes"/>
      <point x="363" y="749"/>
      <point x="372" y="742"/>
      <point x="406" y="742" type="curve" smooth="yes"/>
      <point x="481" y="742" type="line" smooth="yes"/>
      <point x="512" y="742"/>
      <point x="522" y="761"/>
      <point x="500" y="789" type="curve" smooth="yes"/>
      <point x="404" y="914" type="line" smooth="yes"/>
      <point x="389" y="934"/>
      <point x="385" y="941"/>
      <point x="350" y="941" type="curve" smooth="yes"/>
      <point x="249" y="941" type="line" smooth="yes"/>
      <point x="214" y="941"/>
      <point x="211" y="934"/>
      <point x="195" y="914" type="curve" smooth="yes"/>
      <point x="99" y="789" type="line" smooth="yes"/>
      <point x="77" y="761"/>
      <point x="87" y="742"/>
      <point x="119" y="742" type="curve" smooth="yes"/>
    </contour>
  </outline>
</glyph>
<glyph name="Igrave" format="1">
  <advance width="288"/>
  <unicode hex="00CC"/>
  <note>
	Igrave
  </note>
  <outline>
    <contour>
      <point x="192" y="0" type="line" smooth="yes"/>
      <point x="232" y="0"/>
      <point x="245" y="16"/>
      <point x="245" y="50" type="curve" smooth="yes"/>
      <point x="245" y="629" type="line" smooth="yes"/>
      <point x="245" y="663"/>
      <point x="232" y="680"/>
      <point x="192" y="680" type="curve" smooth="yes"/>
      <point x="95" y="680" type="line" smooth="yes"/>
      <point x="56" y="680"/>
      <point x="43" y="663"/>
      <point x="43" y="629" type="curve" smooth="yes"/>
      <point x="43" y="50" type="line" smooth="yes"/>
      <point x="43" y="16"/>
      <point x="56" y="0"/>
      <point x="95" y="0" type="curve" smooth="yes"/>
    </contour>
    <contour>
      <point x="196" y="741" type="line" smooth="yes"/>
      <point x="227" y="741"/>
      <point x="236" y="758"/>
      <point x="227" y="781" type="curve" smooth="yes"/>
      <point x="183" y="902" type="line" smooth="yes"/>
      <point x="174" y="927"/>
      <point x="168" y="936"/>
      <point x="131" y="936" type="curve" smooth="yes"/>
      <point x="11" y="936" type="line" smooth="yes"/>
      <point x="-21" y="936"/>
      <point x="-38" y="920"/>
      <point x="-21" y="889" type="curve" smooth="yes"/>
      <point x="44" y="774" type="line" smooth="yes"/>
      <point x="59" y="748"/>
      <point x="67" y="741"/>
      <point x="107" y="741" type="curve" smooth="yes"/>
    </contour>
  </outline>
</glyph>
<glyph name="Iacute" format="1">
  <advance width="312"/>
  <unicode hex="00CD"/>
  <note>
	Iacute
  </note>
  <outline>
    <contour>
      <point x="204" y="0" type="line" smooth="yes"/>
      <point x="244" y="0"/>
      <point x="257" y="16"/>
      <point x="257" y="50" type="curve" smooth="yes"/>
      <point x="257" y="629" type="line" smooth="yes"/>
      <point x="257" y="663"/>
      <point x="244" y="680"/>
      <point x="204" y="680" type="curve" smooth="yes"/>
      <point x="107" y="680" type="line" smooth="yes"/>
      <point x="68" y="680"/>
      <point x="55" y="663"/>
      <point x="55" y="629" type="curve" smooth="yes"/>
      <point x="55" y="50" type="line" smooth="yes"/>
      <point x="55" y="16"/>
      <point x="68" y="0"/>
      <point x="107" y="0" type="curve" smooth="yes"/>
    </contour>
    <contour>
      <point x="189" y="741" type="line" smooth="yes"/>
      <point x="229" y="741"/>
      <point x="237" y="748"/>
      <point x="252" y="774" type="curve" smooth="yes"/>
      <point x="317" y="889" type="line" smooth="yes"/>
      <point x="334" y="920"/>
      <point x="317" y="936"/>
      <point x="285" y="936" type="curve" smooth="yes"/>
      <point x="165" y="936" type="line" smooth="yes"/>
      <point x="128" y="936"/>
      <point x="122" y="926"/>
      <point x="113" y="902" type="curve" smooth="yes"/>
      <point x="69" y="781" type="line" smooth="yes"/>
      <point x="61" y="758"/>
      <point x="69" y="741"/>
      <point x="100" y="741" type="curve" smooth="yes"/>
    </contour>
  </outline>
</glyph>
<glyph name="Icircumflex" format="1">
  <advance width="312"/>
  <unicode hex="00CE"/>
  <note>
	Icircumflex
  </note>
  <outline>
    <contour>
      <point x="204" y="0" type="line" smooth="yes"/>
      <point x="244" y="0"/>
      <point x="257" y="16"/>
      <point x="257" y="50" type="curve" smooth="yes"/>
      <point x="257" y="629" type="line" smooth="yes"/>
      <point x="257" y="663"/>
      <point x="244" y="680"/>
      <point x="204" y="680" type="curve" smooth="yes"/>
      <point x="107" y="680" type="line" smooth="yes"/>
      <point x="68" y="680"/>
      <point x="55" y="663"/>
      <point x="55" y="629" type="curve" smooth="yes"/>
      <point x="55" y="50" type="line" smooth="yes"/>
      <point x="55" y="16"/>
      <point x="68" y="0"/>
      <point x="107" y="0" type="curve" smooth="yes"/>
    </contour>
    <contour>
      <point x="50" y="749" type="line" smooth="yes"/>
      <point x="83" y="749"/>
      <point x="93" y="756"/>
      <point x="105" y="775" type="curve" smooth="yes"/>
      <point x="156" y="852" type="line"/>
      <point x="206" y="775" type="line" smooth="yes"/>
      <point x="219" y="756"/>
      <point x="228" y="749"/>
      <point x="262" y="749" type="curve" smooth="yes"/>
      <point x="337" y="749" type="line" smooth="yes"/>
      <point x="368" y="749"/>
      <point x="378" y="768"/>
      <point x="356" y="796" type="curve" smooth="yes"/>
      <point x="260" y="921" type="line" smooth="yes"/>
      <point x="245" y="941"/>
      <point x="241" y="948"/>
      <point x="206" y="948" type="curve" smooth="yes"/>
      <point x="105" y="948" type="line" smooth="yes"/>
      <point x="70" y="948"/>
      <point x="67" y="941"/>
      <point x="51" y="921" type="curve" smooth="yes"/>
      <point x="-45" y="796" type="line" smooth="yes"/>
      <point x="-67" y="768"/>
      <point x="-57" y="749"/>
      <point x="-25" y="749" type="curve" smooth="yes"/>
    </contour>
  </outline>
</glyph>
<glyph name="Idieresis" format="1">
  <advance width="312"/>
  <unicode hex="00CF"/>
  <note>
	Idieresis
  </note>
  <outline>
    <contour>
      <point x="204" y="0" type="line" smooth="yes"/>
      <point x="244" y="0"/>
      <point x="257" y="16"/>
      <point x="257" y="50" type="curve" smooth="yes"/>
      <point x="257" y="629" type="line" smooth="yes"/>
      <point x="257" y="663"/>
      <point x="244" y="680"/>
      <point x="204" y="680" type="curve" smooth="yes"/>
      <point x="107" y="680" type="line" smooth="yes"/>
      <point x="68" y="680"/>
      <point x="55" y="663"/>
      <point x="55" y="629" type="curve" smooth="yes"/>
      <point x="55" y="50" type="line" smooth="yes"/>
      <point x="55" y="16"/>
      <point x="68" y="0"/>
      <point x="107" y="0" type="curve" smooth="yes"/>
    </contour>
    <contour>
      <point x="71" y="734" type="line" smooth="yes"/>
      <point x="108" y="734"/>
      <point x="132" y="763"/>
      <point x="132" y="798" type="curve" smooth="yes"/>
      <point x="132" y="823" type="line" smooth="yes"/>
      <point x="132" y="859"/>
      <point x="107" y="887"/>
      <point x="71" y="887" type="curve" smooth="yes"/>
      <point x="44" y="887" type="line" smooth="yes"/>
      <point x="8" y="887"/>
      <point x="-17" y="859"/>
      <point x="-17" y="823" type="curve" smooth="yes"/>
      <point x="-17" y="798" type="line" smooth="yes"/>
      <point x="-17" y="763"/>
      <point x="8" y="734"/>
      <point x="44" y="734" type="curve" smooth="yes"/>
    </contour>
    <contour>
      <point x="285" y="734" type="line" smooth="yes"/>
      <point x="322" y="734"/>
      <point x="346" y="763"/>
      <point x="346" y="798" type="curve" smooth="yes"/>
      <point x="346" y="823" type="line" smooth="yes"/>
      <point x="346" y="859"/>
      <point x="321" y="887"/>
      <point x="285" y="887" type="curve" smooth="yes"/>
      <point x="258" y="887" type="line" smooth="yes"/>
      <point x="223" y="887"/>
      <point x="197" y="859"/>
      <point x="197" y="823" type="curve" smooth="yes"/>
      <point x="197" y="798" type="line" smooth="yes"/>
      <point x="197" y="763"/>
      <point x="223" y="734"/>
      <point x="258" y="734" type="curve" smooth="yes"/>
    </contour>
  </outline>
</glyph>
<glyph name="Eth" format="1">
  <advance width="730"/>
  <unicode hex="00D0"/>
  <note>
	Eth
  </note>
  <outline>
    <contour>
      <point x="356" y="0" type="line" smooth="yes"/>
      <point x="579" y="0"/>
      <point x="707" y="108"/>
      <point x="707" y="340" type="curve" smooth="yes"/>
      <point x="707" y="578"/>
      <point x="579" y="680"/>
      <point x="356" y="680" type="curve" smooth="yes"/>
      <point x="136" y="680" type="line" smooth="yes"/>
      <point x="96" y="680"/>
      <point x="83" y="663"/>
      <point x="83" y="629" type="curve" smooth="yes"/>
      <point x="83" y="413" type="line"/>
      <point x="50" y="413" type="line" smooth="yes"/>
      <point x="12" y="413"/>
      <point x="3" y="398"/>
      <point x="3" y="364" type="curve" smooth="yes"/>
      <point x="3" y="317" type="line" smooth="yes"/>
      <point x="3" y="283"/>
      <point x="12" y="268"/>
      <point x="50" y="268" type="curve" smooth="yes"/>
      <point x="83" y="268" type="line"/>
      <point x="83" y="50" type="line" smooth="yes"/>
      <point x="83" y="16"/>
      <point x="96" y="0"/>
      <point x="136" y="0" type="curve" smooth="yes"/>
    </contour>
    <contour>
      <point x="286" y="268" type="line"/>
      <point x="378" y="268" type="line" smooth="yes"/>
      <point x="416" y="268"/>
      <point x="425" y="283"/>
      <point x="425" y="317" type="curve" smooth="yes"/>
      <point x="425" y="364" type="line" smooth="yes"/>
      <point x="425" y="398"/>
      <point x="416" y="413"/>
      <point x="378" y="413" type="curve" smooth="yes"/>
      <point x="286" y="413" type="line"/>
      <point x="286" y="534" type="line"/>
      <point x="364" y="534" type="line" smooth="yes"/>
      <point x="457" y="534"/>
      <point x="505" y="489"/>
      <point x="505" y="340" type="curve" smooth="yes"/>
      <point x="505" y="191"/>
      <point x="457" y="145"/>
      <point x="364" y="145" type="curve" smooth="yes"/>
      <point x="286" y="145" type="line"/>
    </contour>
  </outline>
</glyph>
<glyph name="Ntilde" format="1">
  <advance width="700"/>
  <unicode hex="00D1"/>
  <note>
	Ntilde
  </note>
  <outline>
    <contour>
      <point x="192" y="0" type="line" smooth="yes"/>
      <point x="232" y="0"/>
      <point x="245" y="16"/>
      <point x="245" y="49" type="curve" smooth="yes"/>
      <point x="245" y="356" type="line"/>
      <point x="476" y="24" type="line" smooth="yes"/>
      <point x="490" y="4"/>
      <point x="501" y="0"/>
      <point x="525" y="0" type="curve" smooth="yes"/>
      <point x="604" y="0" type="line" smooth="yes"/>
      <point x="644" y="0"/>
      <point x="657" y="16"/>
      <point x="657" y="49" type="curve" smooth="yes"/>
      <point x="657" y="629" type="line" smooth="yes"/>
      <point x="657" y="663"/>
      <point x="644" y="680"/>
      <point x="604" y="680" type="curve" smooth="yes"/>
      <point x="507" y="680" type="line" smooth="yes"/>
      <point x="468" y="680"/>
      <point x="455" y="663"/>
      <point x="455" y="629" type="curve" smooth="yes"/>
      <point x="455" y="323" type="line"/>
      <point x="224" y="655" type="line" smooth="yes"/>
      <point x="210" y="675"/>
      <point x="199" y="680"/>
      <point x="175" y="680" type="curve" smooth="yes"/>
      <point x="96" y="680" type="line" smooth="yes"/>
      <point x="56" y="680"/>
      <point x="43" y="664"/>
      <point x="43" y="630" type="curve" smooth="yes"/>
      <point x="43" y="50" type="line" smooth="yes"/>
      <point x="43" y="16"/>
      <point x="56" y="0"/>
      <point x="95" y="0" type="curve" smooth="yes"/>
    </contour>
    <contour>
      <point x="501" y="741"/>
      <point x="533" y="768"/>
      <point x="572" y="825" type="curve" smooth="yes"/>
      <point x="594" y="856"/>
      <point x="590" y="872"/>
      <point x="553" y="900" type="curve" smooth="yes"/>
      <point x="515" y="928"/>
      <point x="495" y="934"/>
      <point x="478" y="913" type="curve" smooth="yes"/>
      <point x="457" y="888"/>
      <point x="446" y="879"/>
      <point x="422" y="879" type="curve" smooth="yes"/>
      <point x="374" y="879"/>
      <point x="337" y="929"/>
      <point x="258" y="929" type="curve" smooth="yes"/>
      <point x="201" y="929"/>
      <point x="169" y="899"/>
      <point x="131" y="847" type="curve" smooth="yes"/>
      <point x="109" y="816"/>
      <point x="114" y="801"/>
      <point x="150" y="774" type="curve" smooth="yes"/>
      <point x="187" y="745"/>
      <point x="208" y="738"/>
      <point x="225" y="759" type="curve"/>
      <point x="245" y="782"/>
      <point x="257" y="791"/>
      <point x="282" y="791" type="curve" smooth="yes"/>
      <point x="333" y="791"/>
      <point x="378" y="741"/>
      <point x="441" y="741" type="curve" smooth="yes"/>
    </contour>
  </outline>
</glyph>
<glyph name="Oacute" format="1">
  <advance width="756"/>
  <unicode hex="00D3"/>
  <note>
	Oacute
  </note>
  <outline>
    <contour>
      <point x="612" y="-15"/>
      <point x="733" y="116"/>
      <point x="733" y="340" type="curve" smooth="yes"/>
      <point x="733" y="564"/>
      <point x="612" y="695"/>
      <point x="378" y="695" type="curve" smooth="yes"/>
      <point x="144" y="695"/>
      <point x="23" y="564"/>
      <point x="23" y="340" type="curve" smooth="yes"/>
      <point x="23" y="116"/>
      <point x="144" y="-15"/>
      <point x="378" y="-15" type="curve" smooth="yes"/>
    </contour>
    <contour>
      <point x="272" y="128"/>
      <point x="224" y="201"/>
      <point x="224" y="340" type="curve" smooth="yes"/>
      <point x="224" y="479"/>
      <point x="272" y="551"/>
      <point x="378" y="551" type="curve" smooth="yes"/>
      <point x="484" y="551"/>
      <point x="532" y="479"/>
      <point x="532" y="340" type="curve" smooth="yes"/>
      <point x="532" y="201"/>
      <point x="484" y="128"/>
      <point x="378" y="128" type="curve" smooth="yes"/>
    </contour>
    <contour>
      <point x="411" y="741" type="line" smooth="yes"/>
      <point x="451" y="741"/>
      <point x="459" y="748"/>
      <point x="474" y="774" type="curve" smooth="yes"/>
      <point x="539" y="889" type="line" smooth="yes"/>
      <point x="556" y="920"/>
      <point x="539" y="936"/>
      <point x="507" y="936" type="curve" smooth="yes"/>
      <point x="387" y="936" type="line" smooth="yes"/>
      <point x="350" y="936"/>
      <point x="344" y="926"/>
      <point x="335" y="902" type="curve" smooth="yes"/>
      <point x="291" y="781" type="line" smooth="yes"/>
      <point x="283" y="758"/>
      <point x="291" y="741"/>
      <point x="322" y="741" type="curve" smooth="yes"/>
    </contour>
  </outline>
</glyph>
<glyph name="Ocircumflex" format="1">
  <advance width="756"/>
  <unicode hex="00D4"/>
  <note>
	Ocircumflex
  </note>
  <outline>
    <contour>
      <point x="612" y="-15"/>
      <point x="733" y="116"/>
      <point x="733" y="340" type="curve" smooth="yes"/>
      <point x="733" y="564"/>
      <point x="612" y="695"/>
      <point x="378" y="695" type="curve" smooth="yes"/>
      <point x="144" y="695"/>
      <point x="23" y="564"/>
      <point x="23" y="340" type="curve" smooth="yes"/>
      <point x="23" y="116"/>
      <point x="144" y="-15"/>
      <point x="378" y="-15" type="curve" smooth="yes"/>
    </contour>
    <contour>
      <point x="272" y="128"/>
      <point x="224" y="201"/>
      <point x="224" y="340" type="curve" smooth="yes"/>
      <point x="224" y="479"/>
      <point x="272" y="551"/>
      <point x="378" y="551" type="curve" smooth="yes"/>
      <point x="484" y="551"/>
      <point x="532" y="479"/>
      <point x="532" y="340" type="curve" smooth="yes"/>
      <point x="532" y="201"/>
      <point x="484" y="128"/>
      <point x="378" y="128" type="curve" smooth="yes"/>
    </contour>
    <contour>
      <point x="274" y="742" type="line" smooth="yes"/>
      <point x="307" y="742"/>
      <point x="317" y="749"/>
      <point x="329" y="768" type="curve" smooth="yes"/>
      <point x="380" y="845" type="line"/>
      <point x="430" y="768" type="line" smooth="yes"/>
      <point x="443" y="749"/>
      <point x="452" y="742"/>
      <point x="486" y="742" type="curve" smooth="yes"/>
      <point x="561" y="742" type="line" smooth="yes"/>
      <point x="592" y="742"/>
      <point x="602" y="761"/>
      <point x="580" y="789" type="curve" smooth="yes"/>
      <point x="484" y="914" type="line" smooth="yes"/>
      <point x="469" y="934"/>
      <point x="465" y="941"/>
      <point x="430" y="941" type="curve" smooth="yes"/>
      <point x="329" y="941" type="line" smooth="yes"/>
      <point x="294" y="941"/>
      <point x="291" y="934"/>
      <point x="275" y="914" type="curve" smooth="yes"/>
      <point x="179" y="789" type="line" smooth="yes"/>
      <point x="157" y="761"/>
      <point x="167" y="742"/>
      <point x="199" y="742" type="curve" smooth="yes"/>
    </contour>
  </outline>
</glyph>
<glyph name="Odieresis" format="1">
  <advance width="756"/>
  <unicode hex="00D6"/>
  <note>
	Odieresis
  </note>
  <outline>
    <contour>
      <point x="612" y="-15"/>
      <point x="733" y="116"/>
      <point x="733" y="340" type="curve" smooth="yes"/>
      <point x="733" y="564"/>
      <point x="612" y="695"/>
      <point x="378" y="695" type="curve" smooth="yes"/>
      <point x="144" y="695"/>
      <point x="23" y="564"/>
      <point x="23" y="340" type="curve" smooth="yes"/>
      <point x="23" y="116"/>
      <point x="144" y="-15"/>
      <point x="378" y="-15" type="curve" smooth="yes"/>
    </contour>
    <contour>
      <point x="272" y="128"/>
      <point x="224" y="201"/>
      <point x="224" y="340" type="curve" smooth="yes"/>
      <point x="224" y="479"/>
      <point x="272" y="551"/>
      <point x="378" y="551" type="curve" smooth="yes"/>
      <point x="484" y="551"/>
      <point x="532" y="479"/>
      <point x="532" y="340" type="curve" smooth="yes"/>
      <point x="532" y="201"/>
      <point x="484" y="128"/>
      <point x="378" y="128" type="curve" smooth="yes"/>
    </contour>
    <contour>
      <point x="286" y="734" type="line" smooth="yes"/>
      <point x="323" y="734"/>
      <point x="347" y="763"/>
      <point x="347" y="798" type="curve" smooth="yes"/>
      <point x="347" y="823" type="line" smooth="yes"/>
      <point x="347" y="859"/>
      <point x="322" y="887"/>
      <point x="286" y="887" type="curve" smooth="yes"/>
      <point x="259" y="887" type="line" smooth="yes"/>
      <point x="223" y="887"/>
      <point x="198" y="859"/>
      <point x="198" y="823" type="curve" smooth="yes"/>
      <point x="198" y="798" type="line" smooth="yes"/>
      <point x="198" y="763"/>
      <point x="223" y="734"/>
      <point x="259" y="734" type="curve" smooth="yes"/>
    </contour>
    <contour>
      <point x="500" y="734" type="line" smooth="yes"/>
      <point x="537" y="734"/>
      <point x="561" y="763"/>
      <point x="561" y="798" type="curve" smooth="yes"/>
      <point x="561" y="823" type="line" smooth="yes"/>
      <point x="561" y="859"/>
      <point x="536" y="887"/>
      <point x="500" y="887" type="curve" smooth="yes"/>
      <point x="473" y="887" type="line" smooth="yes"/>
      <point x="438" y="887"/>
      <point x="412" y="859"/>
      <point x="412" y="823" type="curve" smooth="yes"/>
      <point x="412" y="798" type="line" smooth="yes"/>
      <point x="412" y="763"/>
      <point x="438" y="734"/>
      <point x="473" y="734" type="curve" smooth="yes"/>
    </contour>
  </outline>
</glyph>
<glyph name="Oslash" format="1">
  <advance width="756"/>
  <unicode hex="00D8"/>
  <note>
	Oslash
  </note>
  <outline>
    <contour>
      <point x="612" y="-15"/>
      <point x="733" y="116"/>
      <point x="733" y="340" type="curve" smooth="yes"/>
      <point x="733" y="564"/>
      <point x="612" y="695"/>
      <point x="378" y="695" type="curve" smooth="yes"/>
      <point x="144" y="695"/>
      <point x="23" y="564"/>
      <point x="23" y="340" type="curve" smooth="yes"/>
      <point x="23" y="116"/>
      <point x="144" y="-15"/>
      <point x="378" y="-15" type="curve" smooth="yes"/>
    </contour>
    <contour>
      <point x="280" y="-86" type="line" smooth="yes"/>
      <point x="296" y="-86"/>
      <point x="304" y="-78"/>
      <point x="309" y="-66" type="curve" smooth="yes"/>
      <point x="628" y="720" type="line" smooth="yes"/>
      <point x="635" y="737"/>
      <point x="634" y="751"/>
      <point x="615" y="751" type="curve" smooth="yes"/>
      <point x="471" y="751" type="line" smooth="yes"/>
      <point x="454" y="751"/>
      <point x="446" y="743"/>
      <point x="441" y="731" type="curve" smooth="yes"/>
      <point x="122" y="-55" type="line" smooth="yes"/>
      <point x="115" y="-72"/>
      <point x="117" y="-86"/>
      <point x="135" y="-86" type="curve" smooth="yes"/>
    </contour>
    <contour>
      <point x="272" y="128"/>
      <point x="224" y="201"/>
      <point x="224" y="340" type="curve" smooth="yes"/>
      <point x="224" y="479"/>
      <point x="272" y="551"/>
      <point x="378" y="551" type="curve" smooth="yes"/>
      <point x="484" y="551"/>
      <point x="532" y="479"/>
      <point x="532" y="340" type="curve" smooth="yes"/>
      <point x="532" y="201"/>
      <point x="484" y="128"/>
      <point x="378" y="128" type="curve" smooth="yes"/>
    </contour>
  </outline>
</glyph>
<glyph name="Ugrave" format="1">
  <advance width="716"/>
  <unicode hex="00D9"/>
  <note>
	Ugrave
  </note>
  <outline>
    <contour>
      <point x="547" y="-15"/>
      <point x="678" y="82"/>
      <point x="678" y="246" type="curve" smooth="yes"/>
      <point x="678" y="629" type="line" smooth="yes"/>
      <point x="678" y="663"/>
      <point x="664" y="680"/>
      <point x="624" y="680" type="curve" smooth="yes"/>
      <point x="527" y="680" type="line" smooth="yes"/>
      <point x="488" y="680"/>
      <point x="475" y="663"/>
      <point x="475" y="629" type="curve" smooth="yes"/>
      <point x="475" y="243" type="line" smooth="yes"/>
      <point x="475" y="167"/>
      <point x="430" y="128"/>
      <point x="358" y="128" type="curve" smooth="yes"/>
      <point x="286" y="128"/>
      <point x="240" y="167"/>
      <point x="240" y="243" type="curve" smooth="yes"/>
      <point x="240" y="629" type="line" smooth="yes"/>
      <point x="240" y="663"/>
      <point x="227" y="680"/>
      <point x="187" y="680" type="curve" smooth="yes"/>
      <point x="90" y="680" type="line" smooth="yes"/>
      <point x="51" y="680"/>
      <point x="38" y="663"/>
      <point x="38" y="629" type="curve" smooth="yes"/>
      <point x="38" y="246" type="line" smooth="yes"/>
      <point x="38" y="82"/>
      <point x="168" y="-15"/>
      <point x="358" y="-15" type="curve" smooth="yes"/>
    </contour>
    <contour>
      <point x="436" y="741" type="line" smooth="yes"/>
      <point x="467" y="741"/>
      <point x="476" y="758"/>
      <point x="467" y="781" type="curve" smooth="yes"/>
      <point x="423" y="902" type="line" smooth="yes"/>
      <point x="414" y="927"/>
      <point x="408" y="936"/>
      <point x="371" y="936" type="curve" smooth="yes"/>
      <point x="251" y="936" type="line" smooth="yes"/>
      <point x="219" y="936"/>
      <point x="202" y="920"/>
      <point x="219" y="889" type="curve" smooth="yes"/>
      <point x="284" y="774" type="line" smooth="yes"/>
      <point x="299" y="748"/>
      <point x="307" y="741"/>
      <point x="347" y="741" type="curve" smooth="yes"/>
    </contour>
  </outline>
</glyph>
<glyph name="Uacute" format="1">
  <advance width="716"/>
  <unicode hex="00DA"/>
  <note>
	Uacute
  </note>
  <outline>
    <contour>
      <point x="547" y="-15"/>
      <point x="678" y="82"/>
      <point x="678" y="246" type="curve" smooth="yes"/>
      <point x="678" y="629" type="line" smooth="yes"/>
      <point x="678" y="663"/>
      <point x="664" y="680"/>
      <point x="624" y="680" type="curve" smooth="yes"/>
      <point x="527" y="680" type="line" smooth="yes"/>
      <point x="488" y="680"/>
      <point x="475" y="663"/>
      <point x="475" y="629" type="curve" smooth="yes"/>
      <point x="475" y="243" type="line" smooth="yes"/>
      <point x="475" y="167"/>
      <point x="430" y="128"/>
      <point x="358" y="128" type="curve" smooth="yes"/>
      <point x="286" y="128"/>
      <point x="240" y="167"/>
      <point x="240" y="243" type="curve" smooth="yes"/>
      <point x="240" y="629" type="line" smooth="yes"/>
      <point x="240" y="663"/>
      <point x="227" y="680"/>
      <point x="187" y="680" type="curve" smooth="yes"/>
      <point x="90" y="680" type="line" smooth="yes"/>
      <point x="51" y="680"/>
      <point x="38" y="663"/>
      <point x="38" y="629" type="curve" smooth="yes"/>
      <point x="38" y="246" type="line" smooth="yes"/>
      <point x="38" y="82"/>
      <point x="168" y="-15"/>
      <point x="358" y="-15" type="curve" smooth="yes"/>
    </contour>
    <contour>
      <point x="395" y="741" type="line" smooth="yes"/>
      <point x="435" y="741"/>
      <point x="443" y="748"/>
      <point x="458" y="774" type="curve" smooth="yes"/>
      <point x="523" y="889" type="line" smooth="yes"/>
      <point x="540" y="920"/>
      <point x="523" y="936"/>
      <point x="491" y="936" type="curve" smooth="yes"/>
      <point x="371" y="936" type="line" smooth="yes"/>
      <point x="334" y="936"/>
      <point x="328" y="926"/>
      <point x="319" y="902" type="curve" smooth="yes"/>
      <point x="275" y="781" type="line" smooth="yes"/>
      <point x="267" y="758"/>
      <point x="275" y="741"/>
      <point x="306" y="741" type="curve" smooth="yes"/>
    </contour>
  </outline>
</glyph>
<glyph name="Ucircumflex" format="1">
  <advance width="716"/>
  <unicode hex="00DB"/>
  <note>
	Ucircumflex
  </note>
  <outline>
    <contour>
      <point x="547" y="-15"/>
      <point x="678" y="82"/>
      <point x="678" y="246" type="curve" smooth="yes"/>
      <point x="678" y="629" type="line" smooth="yes"/>
      <point x="678" y="663"/>
      <point x="664" y="680"/>
      <point x="624" y="680" type="curve" smooth="yes"/>
      <point x="527" y="680" type="line" smooth="yes"/>
      <point x="488" y="680"/>
      <point x="475" y="663"/>
      <point x="475" y="629" type="curve" smooth="yes"/>
      <point x="475" y="243" type="line" smooth="yes"/>
      <point x="475" y="167"/>
      <point x="430" y="128"/>
      <point x="358" y="128" type="curve" smooth="yes"/>
      <point x="286" y="128"/>
      <point x="240" y="167"/>
      <point x="240" y="243" type="curve" smooth="yes"/>
      <point x="240" y="629" type="line" smooth="yes"/>
      <point x="240" y="663"/>
      <point x="227" y="680"/>
      <point x="187" y="680" type="curve" smooth="yes"/>
      <point x="90" y="680" type="line" smooth="yes"/>
      <point x="51" y="680"/>
      <point x="38" y="663"/>
      <point x="38" y="629" type="curve" smooth="yes"/>
      <point x="38" y="246" type="line" smooth="yes"/>
      <point x="38" y="82"/>
      <point x="168" y="-15"/>
      <point x="358" y="-15" type="curve" smooth="yes"/>
    </contour>
    <contour>
      <point x="254" y="742" type="line" smooth="yes"/>
      <point x="287" y="742"/>
      <point x="297" y="749"/>
      <point x="309" y="768" type="curve" smooth="yes"/>
      <point x="360" y="845" type="line"/>
      <point x="410" y="768" type="line" smooth="yes"/>
      <point x="423" y="749"/>
      <point x="432" y="742"/>
      <point x="466" y="742" type="curve" smooth="yes"/>
      <point x="541" y="742" type="line" smooth="yes"/>
      <point x="572" y="742"/>
      <point x="582" y="761"/>
      <point x="560" y="789" type="curve" smooth="yes"/>
      <point x="464" y="914" type="line" smooth="yes"/>
      <point x="449" y="934"/>
      <point x="445" y="941"/>
      <point x="410" y="941" type="curve" smooth="yes"/>
      <point x="309" y="941" type="line" smooth="yes"/>
      <point x="274" y="941"/>
      <point x="271" y="934"/>
      <point x="255" y="914" type="curve" smooth="yes"/>
      <point x="159" y="789" type="line" smooth="yes"/>
      <point x="137" y="761"/>
      <point x="147" y="742"/>
      <point x="179" y="742" type="curve" smooth="yes"/>
    </contour>
  </outline>
</glyph>
<glyph name="Udieresis" format="1">
  <advance width="716"/>
  <unicode hex="00DC"/>
  <note>
	Udieresis
  </note>
  <outline>
    <contour>
      <point x="547" y="-15"/>
      <point x="678" y="82"/>
      <point x="678" y="246" type="curve" smooth="yes"/>
      <point x="678" y="629" type="line" smooth="yes"/>
      <point x="678" y="663"/>
      <point x="664" y="680"/>
      <point x="624" y="680" type="curve" smooth="yes"/>
      <point x="527" y="680" type="line" smooth="yes"/>
      <point x="488" y="680"/>
      <point x="475" y="663"/>
      <point x="475" y="629" type="curve" smooth="yes"/>
      <point x="475" y="243" type="line" smooth="yes"/>
      <point x="475" y="167"/>
      <point x="430" y="128"/>
      <point x="358" y="128" type="curve" smooth="yes"/>
      <point x="286" y="128"/>
      <point x="240" y="167"/>
      <point x="240" y="243" type="curve" smooth="yes"/>
      <point x="240" y="629" type="line" smooth="yes"/>
      <point x="240" y="663"/>
      <point x="227" y="680"/>
      <point x="187" y="680" type="curve" smooth="yes"/>
      <point x="90" y="680" type="line" smooth="yes"/>
      <point x="51" y="680"/>
      <point x="38" y="663"/>
      <point x="38" y="629" type="curve" smooth="yes"/>
      <point x="38" y="246" type="line" smooth="yes"/>
      <point x="38" y="82"/>
      <point x="168" y="-15"/>
      <point x="358" y="-15" type="curve" smooth="yes"/>
    </contour>
    <contour>
      <point x="265" y="731" type="line" smooth="yes"/>
      <point x="302" y="731"/>
      <point x="326" y="760"/>
      <point x="326" y="795" type="curve" smooth="yes"/>
      <point x="326" y="820" type="line" smooth="yes"/>
      <point x="326" y="856"/>
      <point x="301" y="884"/>
      <point x="265" y="884" type="curve" smooth="yes"/>
      <point x="238" y="884" type="line" smooth="yes"/>
      <point x="202" y="884"/>
      <point x="177" y="856"/>
      <point x="177" y="820" type="curve" smooth="yes"/>
      <point x="177" y="795" type="line" smooth="yes"/>
      <point x="177" y="760"/>
      <point x="202" y="731"/>
      <point x="238" y="731" type="curve" smooth="yes"/>
    </contour>
    <contour>
      <point x="479" y="731" type="line" smooth="yes"/>
      <point x="516" y="731"/>
      <point x="540" y="760"/>
      <point x="540" y="795" type="curve" smooth="yes"/>
      <point x="540" y="820" type="line" smooth="yes"/>
      <point x="540" y="856"/>
      <point x="515" y="884"/>
      <point x="479" y="884" type="curve" smooth="yes"/>
      <point x="452" y="884" type="line" smooth="yes"/>
      <point x="417" y="884"/>
      <point x="391" y="856"/>
      <point x="391" y="820" type="curve" smooth="yes"/>
      <point x="391" y="795" type="line" smooth="yes"/>
      <point x="391" y="760"/>
      <point x="417" y="731"/>
      <point x="452" y="731" type="curve" smooth="yes"/>
    </contour>
  </outline>
</glyph>
<glyph name="Yacute" format="1">
  <advance width="736"/>
  <unicode hex="00DD"/>
  <note>
	Yacute
  </note>
  <outline>
    <contour>
      <point x="416" y="0" type="line" smooth="yes"/>
      <point x="456" y="0"/>
      <point x="469" y="16"/>
      <point x="469" y="50" type="curve" smooth="yes"/>
      <point x="469" y="234" type="line"/>
      <point x="707" y="642" type="line" smooth="yes"/>
      <point x="717" y="660"/>
      <point x="713" y="680"/>
      <point x="691" y="680" type="curve" smooth="yes"/>
      <point x="536" y="680" type="line" smooth="yes"/>
      <point x="516" y="680"/>
      <point x="509" y="670"/>
      <point x="501" y="656" type="curve" smooth="yes"/>
      <point x="368" y="420" type="line"/>
      <point x="234" y="656" type="line" smooth="yes"/>
      <point x="226" y="670"/>
      <point x="220" y="680"/>
      <point x="199" y="680" type="curve" smooth="yes"/>
      <point x="45" y="680" type="line" smooth="yes"/>
      <point x="23" y="680"/>
      <point x="18" y="660"/>
      <point x="29" y="642" type="curve" smooth="yes"/>
      <point x="266" y="235" type="line"/>
      <point x="266" y="50" type="line" smooth="yes"/>
      <point x="266" y="16"/>
      <point x="280" y="0"/>
      <point x="319" y="0" type="curve" smooth="yes"/>
    </contour>
    <contour>
      <point x="417" y="741" type="line" smooth="yes"/>
      <point x="457" y="741"/>
      <point x="465" y="748"/>
      <point x="480" y="774" type="curve" smooth="yes"/>
      <point x="545" y="889" type="line" smooth="yes"/>
      <point x="562" y="920"/>
      <point x="545" y="936"/>
      <point x="513" y="936" type="curve" smooth="yes"/>
      <point x="393" y="936" type="line" smooth="yes"/>
      <point x="356" y="936"/>
      <point x="350" y="926"/>
      <point x="341" y="902" type="curve" smooth="yes"/>
      <point x="297" y="781" type="line" smooth="yes"/>
      <point x="289" y="758"/>
      <point x="297" y="741"/>
      <point x="328" y="741" type="curve" smooth="yes"/>
    </contour>
  </outline>
</glyph>
<glyph name="agrave" format="1">
  <advance width="618"/>
  <unicode hex="00E0"/>
  <note>
	agrave
  </note>
  <outline>
    <contour>
      <point x="307" y="-15"/>
      <point x="359" y="4"/>
      <point x="398" y="45" type="curve"/>
      <point x="411" y="15" type="line" smooth="yes"/>
      <point x="416" y="4"/>
      <point x="423" y="0"/>
      <point x="438" y="0" type="curve" smooth="yes"/>
      <point x="540" y="0" type="line" smooth="yes"/>
      <point x="568" y="0"/>
      <point x="575" y="6"/>
      <point x="575" y="31" type="curve" smooth="yes"/>
      <point x="575" y="431" type="line"/>
      <point x="513" y="471"/>
      <point x="438" y="495"/>
      <point x="333" y="495" type="curve" smooth="yes"/>
      <point x="147" y="495"/>
      <point x="23" y="385"/>
      <point x="23" y="216" type="curve" smooth="yes"/>
      <point x="23" y="67"/>
      <point x="107" y="-15"/>
      <point x="230" y="-15" type="curve" smooth="yes"/>
    </contour>
    <contour>
      <point x="251" y="121"/>
      <point x="224" y="152"/>
      <point x="224" y="218" type="curve" smooth="yes"/>
      <point x="224" y="308"/>
      <point x="270" y="359"/>
      <point x="340" y="359" type="curve" smooth="yes"/>
      <point x="358" y="359"/>
      <point x="375" y="356"/>
      <point x="388" y="350" type="curve"/>
      <point x="388" y="194" type="line" smooth="yes"/>
      <point x="388" y="147"/>
      <point x="357" y="121"/>
      <point x="305" y="121" type="curve" smooth="yes"/>
    </contour>
    <contour>
      <point x="417" y="535" type="line" smooth="yes"/>
      <point x="448" y="535"/>
      <point x="457" y="552"/>
      <point x="448" y="575" type="curve" smooth="yes"/>
      <point x="404" y="696" type="line" smooth="yes"/>
      <point x="395" y="721"/>
      <point x="389" y="730"/>
      <point x="352" y="730" type="curve" smooth="yes"/>
      <point x="232" y="730" type="line" smooth="yes"/>
      <point x="200" y="730"/>
      <point x="183" y="714"/>
      <point x="200" y="683" type="curve" smooth="yes"/>
      <point x="265" y="568" type="line" smooth="yes"/>
      <point x="280" y="542"/>
      <point x="288" y="535"/>
      <point x="328" y="535" type="curve" smooth="yes"/>
    </contour>
  </outline>
</glyph>
<glyph name="aacute" format="1">
  <advance width="618"/>
  <unicode hex="00E1"/>
  <note>
	aacute
  </note>
  <outline>
    <contour>
      <point x="307" y="-15"/>
      <point x="359" y="4"/>
      <point x="398" y="45" type="curve"/>
      <point x="411" y="15" type="line" smooth="yes"/>
      <point x="416" y="4"/>
      <point x="423" y="0"/>
      <point x="438" y="0" type="curve" smooth="yes"/>
      <point x="540" y="0" type="line" smooth="yes"/>
      <point x="568" y="0"/>
      <point x="575" y="6"/>
      <point x="575" y="31" type="curve" smooth="yes"/>
      <point x="575" y="431" type="line"/>
      <point x="513" y="471"/>
      <point x="438" y="495"/>
      <point x="333" y="495" type="curve" smooth="yes"/>
      <point x="147" y="495"/>
      <point x="23" y="385"/>
      <point x="23" y="216" type="curve" smooth="yes"/>
      <point x="23" y="67"/>
      <point x="107" y="-15"/>
      <point x="230" y="-15" type="curve" smooth="yes"/>
    </contour>
    <contour>
      <point x="251" y="121"/>
      <point x="224" y="152"/>
      <point x="224" y="218" type="curve" smooth="yes"/>
      <point x="224" y="308"/>
      <point x="270" y="359"/>
      <point x="340" y="359" type="curve" smooth="yes"/>
      <point x="358" y="359"/>
      <point x="375" y="356"/>
      <point x="388" y="350" type="curve"/>
      <point x="388" y="194" type="line" smooth="yes"/>
      <point x="388" y="147"/>
      <point x="357" y="121"/>
      <point x="305" y="121" type="curve" smooth="yes"/>
    </contour>
    <contour>
      <point x="360" y="535" type="line" smooth="yes"/>
      <point x="400" y="535"/>
      <point x="408" y="542"/>
      <point x="423" y="568" type="curve" smooth="yes"/>
      <point x="488" y="683" type="line" smooth="yes"/>
      <point x="505" y="714"/>
      <point x="488" y="730"/>
      <point x="456" y="730" type="curve" smooth="yes"/>
      <point x="336" y="730" type="line" smooth="yes"/>
      <point x="299" y="730"/>
      <point x="293" y="720"/>
      <point x="284" y="696" type="curve" smooth="yes"/>
      <point x="240" y="575" type="line" smooth="yes"/>
      <point x="232" y="552"/>
      <point x="240" y="535"/>
      <point x="271" y="535" type="curve" smooth="yes"/>
    </contour>
  </outline>
</glyph>
<glyph name="acircumflex" format="1">
  <advance width="618"/>
  <unicode hex="00E2"/>
  <note>
	acircumflex
  </note>
  <outline>
    <contour>
      <point x="307" y="-15"/>
      <point x="359" y="4"/>
      <point x="398" y="45" type="curve"/>
      <point x="411" y="15" type="line" smooth="yes"/>
      <point x="416" y="4"/>
      <point x="423" y="0"/>
      <point x="438" y="0" type="curve" smooth="yes"/>
      <point x="540" y="0" type="line" smooth="yes"/>
      <point x="568" y="0"/>
      <point x="575" y="6"/>
      <point x="575" y="31" type="curve" smooth="yes"/>
      <point x="575" y="431" type="line"/>
      <point x="513" y="471"/>
      <point x="438" y="495"/>
      <point x="333" y="495" type="curve" smooth="yes"/>
      <point x="147" y="495"/>
      <point x="23" y="385"/>
      <point x="23" y="216" type="curve" smooth="yes"/>
      <point x="23" y="67"/>
      <point x="107" y="-15"/>
      <point x="230" y="-15" type="curve" smooth="yes"/>
    </contour>
    <contour>
      <point x="251" y="121"/>
      <point x="224" y="152"/>
      <point x="224" y="218" type="curve" smooth="yes"/>
      <point x="224" y="308"/>
      <point x="270" y="359"/>
      <point x="340" y="359" type="curve" smooth="yes"/>
      <point x="358" y="359"/>
      <point x="375" y="356"/>
      <point x="388" y="350" type="curve"/>
      <point x="388" y="194" type="line" smooth="yes"/>
      <point x="388" y="147"/>
      <point x="357" y="121"/>
      <point x="305" y="121" type="curve" smooth="yes"/>
    </contour>
    <contour>
      <point x="225" y="536" type="line" smooth="yes"/>
      <point x="258" y="536"/>
      <point x="268" y="543"/>
      <point x="280" y="562" type="curve" smooth="yes"/>
      <point x="331" y="639" type="line"/>
      <point x="381" y="562" type="line" smooth="yes"/>
      <point x="394" y="543"/>
      <point x="403" y="536"/>
      <point x="437" y="536" type="curve" smooth="yes"/>
      <point x="512" y="536" type="line" smooth="yes"/>
      <point x="543" y="536"/>
      <point x="553" y="555"/>
      <point x="531" y="583" type="curve" smooth="yes"/>
      <point x="435" y="708" type="line" smooth="yes"/>
      <point x="420" y="728"/>
      <point x="416" y="735"/>
      <point x="381" y="735" type="curve" smooth="yes"/>
      <point x="280" y="735" type="line" smooth="yes"/>
      <point x="245" y="735"/>
      <point x="242" y="728"/>
      <point x="226" y="708" type="curve" smooth="yes"/>
      <point x="130" y="583" type="line" smooth="yes"/>
      <point x="108" y="555"/>
      <point x="118" y="536"/>
      <point x="150" y="536" type="curve" smooth="yes"/>
    </contour>
  </outline>
</glyph>
<glyph name="atilde" format="1">
  <advance width="618"/>
  <unicode hex="00E3"/>
  <note>
	atilde
  </note>
  <outline>
    <contour>
      <point x="307" y="-15"/>
      <point x="359" y="4"/>
      <point x="398" y="45" type="curve"/>
      <point x="411" y="15" type="line" smooth="yes"/>
      <point x="416" y="4"/>
      <point x="423" y="0"/>
      <point x="438" y="0" type="curve" smooth="yes"/>
      <point x="540" y="0" type="line" smooth="yes"/>
      <point x="568" y="0"/>
      <point x="575" y="6"/>
      <point x="575" y="31" type="curve" smooth="yes"/>
      <point x="575" y="431" type="line"/>
      <point x="513" y="471"/>
      <point x="438" y="495"/>
      <point x="333" y="495" type="curve" smooth="yes"/>
      <point x="147" y="495"/>
      <point x="23" y="385"/>
      <point x="23" y="216" type="curve" smooth="yes"/>
      <point x="23" y="67"/>
      <point x="107" y="-15"/>
      <point x="230" y="-15" type="curve" smooth="yes"/>
    </contour>
    <contour>
      <point x="251" y="121"/>
      <point x="224" y="152"/>
      <point x="224" y="218" type="curve" smooth="yes"/>
      <point x="224" y="308"/>
      <point x="270" y="359"/>
      <point x="340" y="359" type="curve" smooth="yes"/>
      <point x="358" y="359"/>
      <point x="375" y="356"/>
      <point x="388" y="350" type="curve"/>
      <point x="388" y="194" type="line" smooth="yes"/>
      <point x="388" y="147"/>
      <point x="357" y="121"/>
      <point x="305" y="121" type="curve" smooth="yes"/>
    </contour>
    <contour>
      <point x="497" y="551"/>
      <point x="529" y="578"/>
      <point x="568" y="635" type="curve" smooth="yes"/>
      <point x="590" y="666"/>
      <point x="586" y="682"/>
      <point x="549" y="710" type="curve" smooth="yes"/>
      <point x="511" y="738"/>
      <point x="491" y="744"/>
      <point x="474" y="723" type="curve" smooth="yes"/>
      <point x="453" y="698"/>
      <point x="442" y="689"/>
      <point x="418" y="689" type="curve" smooth="yes"/>
      <point x="370" y="689"/>
      <point x="333" y="739"/>
      <point x="254" y="739" type="curve" smooth="yes"/>
      <point x="197" y="739"/>
      <point x="165" y="709"/>
      <point x="127" y="657" type="curve" smooth="yes"/>
      <point x="105" y="626"/>
      <point x="110" y="611"/>
      <point x="146" y="584" type="curve" smooth="yes"/>
      <point x="183" y="555"/>
      <point x="204" y="548"/>
      <point x="221" y="569" type="curve"/>
      <point x="241" y="592"/>
      <point x="253" y="601"/>
      <point x="278" y="601" type="curve" smooth="yes"/>
      <point x="329" y="601"/>
      <point x="374" y="551"/>
      <point x="437" y="551" type="curve" smooth="yes"/>
    </contour>
  </outline>
</glyph>
<glyph name="adieresis" format="1">
  <advance width="618"/>
  <unicode hex="00E4"/>
  <note>
	adieresis
  </note>
  <outline>
    <contour>
      <point x="307" y="-15"/>
      <point x="359" y="4"/>
      <point x="398" y="45" type="curve"/>
      <point x="411" y="15" type="line" smooth="yes"/>
      <point x="416" y="4"/>
      <point x="423" y="0"/>
      <point x="438" y="0" type="curve" smooth="yes"/>
      <point x="540" y="0" type="line" smooth="yes"/>
      <point x="568" y="0"/>
      <point x="575" y="6"/>
      <point x="575" y="31" type="curve" smooth="yes"/>
      <point x="575" y="431" type="line"/>
      <point x="513" y="471"/>
      <point x="438" y="495"/>
      <point x="333" y="495" type="curve" smooth="yes"/>
      <point x="147" y="495"/>
      <point x="23" y="385"/>
      <point x="23" y="216" type="curve" smooth="yes"/>
      <point x="23" y="67"/>
      <point x="107" y="-15"/>
      <point x="230" y="-15" type="curve" smooth="yes"/>
    </contour>
    <contour>
      <point x="251" y="121"/>
      <point x="224" y="152"/>
      <point x="224" y="218" type="curve" smooth="yes"/>
      <point x="224" y="308"/>
      <point x="270" y="359"/>
      <point x="340" y="359" type="curve" smooth="yes"/>
      <point x="358" y="359"/>
      <point x="375" y="356"/>
      <point x="388" y="350" type="curve"/>
      <point x="388" y="194" type="line" smooth="yes"/>
      <point x="388" y="147"/>
      <point x="357" y="121"/>
      <point x="305" y="121" type="curve" smooth="yes"/>
    </contour>
    <contour>
      <point x="246" y="531" type="line" smooth="yes"/>
      <point x="283" y="531"/>
      <point x="307" y="560"/>
      <point x="307" y="595" type="curve" smooth="yes"/>
      <point x="307" y="620" type="line" smooth="yes"/>
      <point x="307" y="656"/>
      <point x="282" y="684"/>
      <point x="246" y="684" type="curve" smooth="yes"/>
      <point x="219" y="684" type="line" smooth="yes"/>
      <point x="183" y="684"/>
      <point x="158" y="656"/>
      <point x="158" y="620" type="curve" smooth="yes"/>
      <point x="158" y="595" type="line" smooth="yes"/>
      <point x="158" y="560"/>
      <point x="183" y="531"/>
      <point x="219" y="531" type="curve" smooth="yes"/>
    </contour>
    <contour>
      <point x="460" y="531" type="line" smooth="yes"/>
      <point x="497" y="531"/>
      <point x="521" y="560"/>
      <point x="521" y="595" type="curve" smooth="yes"/>
      <point x="521" y="620" type="line" smooth="yes"/>
      <point x="521" y="656"/>
      <point x="496" y="684"/>
      <point x="460" y="684" type="curve" smooth="yes"/>
      <point x="433" y="684" type="line" smooth="yes"/>
      <point x="398" y="684"/>
      <point x="372" y="656"/>
      <point x="372" y="620" type="curve" smooth="yes"/>
      <point x="372" y="595" type="line" smooth="yes"/>
      <point x="372" y="560"/>
      <point x="398" y="531"/>
      <point x="433" y="531" type="curve" smooth="yes"/>
    </contour>
  </outline>
</glyph>
<glyph name="aring" format="1">
  <advance width="618"/>
  <unicode hex="00E5"/>
  <note>
	aring
  </note>
  <outline>
    <contour>
      <point x="307" y="-15"/>
      <point x="359" y="4"/>
      <point x="398" y="45" type="curve"/>
      <point x="411" y="15" type="line" smooth="yes"/>
      <point x="416" y="4"/>
      <point x="423" y="0"/>
      <point x="438" y="0" type="curve" smooth="yes"/>
      <point x="540" y="0" type="line" smooth="yes"/>
      <point x="568" y="0"/>
      <point x="575" y="6"/>
      <point x="575" y="31" type="curve" smooth="yes"/>
      <point x="575" y="431" type="line"/>
      <point x="513" y="471"/>
      <point x="438" y="495"/>
      <point x="333" y="495" type="curve" smooth="yes"/>
      <point x="147" y="495"/>
      <point x="23" y="385"/>
      <point x="23" y="216" type="curve" smooth="yes"/>
      <point x="23" y="67"/>
      <point x="107" y="-15"/>
      <point x="230" y="-15" type="curve" smooth="yes"/>
    </contour>
    <contour>
      <point x="251" y="121"/>
      <point x="224" y="152"/>
      <point x="224" y="218" type="curve" smooth="yes"/>
      <point x="224" y="308"/>
      <point x="270" y="359"/>
      <point x="340" y="359" type="curve" smooth="yes"/>
      <point x="358" y="359"/>
      <point x="375" y="356"/>
      <point x="388" y="350" type="curve"/>
      <point x="388" y="194" type="line" smooth="yes"/>
      <point x="388" y="147"/>
      <point x="357" y="121"/>
      <point x="305" y="121" type="curve" smooth="yes"/>
    </contour>
    <contour>
      <point x="408" y="542"/>
      <point x="463" y="597"/>
      <point x="463" y="666" type="curve" smooth="yes"/>
      <point x="463" y="735"/>
      <point x="408" y="790"/>
      <point x="339" y="790" type="curve" smooth="yes"/>
      <point x="270" y="790"/>
      <point x="215" y="735"/>
      <point x="215" y="666" type="curve" smooth="yes"/>
      <point x="215" y="597"/>
      <point x="270" y="542"/>
      <point x="339" y="542" type="curve" smooth="yes"/>
    </contour>
    <contour>
      <point x="317" y="627"/>
      <point x="300" y="644"/>
      <point x="300" y="666" type="curve" smooth="yes"/>
      <point x="300" y="687"/>
      <point x="317" y="704"/>
      <point x="339" y="704" type="curve" smooth="yes"/>
      <point x="360" y="704"/>
      <point x="377" y="687"/>
      <point x="377" y="666" type="curve" smooth="yes"/>
      <point x="377" y="644"/>
      <point x="360" y="627"/>
      <point x="339" y="627" type="curve" smooth="yes"/>
    </contour>
  </outline>
</glyph>
<glyph name="ccedilla" format="1">
  <advance width="561"/>
  <unicode hex="00E7"/>
  <note>
	ccedilla
  </note>
  <outline>
    <contour>
      <point x="410" y="-15"/>
      <point x="471" y="4"/>
      <point x="525" y="39" type="curve" smooth="yes"/>
      <point x="540" y="49"/>
      <point x="540" y="58"/>
      <point x="532" y="72" type="curve" smooth="yes"/>
      <point x="487" y="149" type="line" smooth="yes"/>
      <point x="477" y="167"/>
      <point x="470" y="166"/>
      <point x="451" y="155" type="curve" smooth="yes"/>
      <point x="421" y="137"/>
      <point x="387" y="121"/>
      <point x="340" y="121" type="curve" smooth="yes"/>
      <point x="269" y="121"/>
      <point x="224" y="161"/>
      <point x="224" y="239" type="curve" smooth="yes"/>
      <point x="224" y="314"/>
      <point x="269" y="359"/>
      <point x="335" y="359" type="curve" smooth="yes"/>
      <point x="385" y="359"/>
      <point x="412" y="346"/>
      <point x="444" y="326" type="curve" smooth="yes"/>
      <point x="461" y="316"/>
      <point x="470" y="314"/>
      <point x="480" y="332" type="curve" smooth="yes"/>
      <point x="521" y="403" type="line" smooth="yes"/>
      <point x="530" y="419"/>
      <point x="533" y="431"/>
      <point x="518" y="442" type="curve" smooth="yes"/>
      <point x="471" y="476"/>
      <point x="412" y="495"/>
      <point x="317" y="495" type="curve" smooth="yes"/>
      <point x="132" y="495"/>
      <point x="23" y="392"/>
      <point x="23" y="239" type="curve" smooth="yes"/>
      <point x="23" y="73"/>
      <point x="129" y="-15"/>
      <point x="315" y="-15" type="curve" smooth="yes"/>
    </contour>
    <contour>
      <point x="372" y="-240"/>
      <point x="412" y="-199"/>
      <point x="412" y="-152" type="curve" smooth="yes"/>
      <point x="412" y="-108"/>
      <point x="390" y="-86"/>
      <point x="346" y="-78" type="curve"/>
      <point x="369" y="-28" type="line" smooth="yes"/>
      <point x="374" y="-18"/>
      <point x="371" y="-12"/>
      <point x="359" y="-12" type="curve" smooth="yes"/>
      <point x="256" y="-12" type="line" smooth="yes"/>
      <point x="242" y="-12"/>
      <point x="238" y="-15"/>
      <point x="234" y="-26" type="curve" smooth="yes"/>
      <point x="207" y="-94" type="line" smooth="yes"/>
      <point x="203" y="-104"/>
      <point x="207" y="-110"/>
      <point x="217" y="-110" type="curve" smooth="yes"/>
      <point x="234" y="-110" type="line" smooth="yes"/>
      <point x="270" y="-110"/>
      <point x="286" y="-115"/>
      <point x="286" y="-136" type="curve" smooth="yes"/>
      <point x="286" y="-149"/>
      <point x="277" y="-157"/>
      <point x="253" y="-157" type="curve" smooth="yes"/>
      <point x="240" y="-157"/>
      <point x="222" y="-153"/>
      <point x="210" y="-147" type="curve"/>
      <point x="201" y="-143"/>
      <point x="196" y="-142"/>
      <point x="192" y="-151" type="curve"/>
      <point x="171" y="-204" type="line" smooth="yes"/>
      <point x="167" y="-214"/>
      <point x="169" y="-216"/>
      <point x="181" y="-222" type="curve" smooth="yes"/>
      <point x="201" y="-232"/>
      <point x="245" y="-240"/>
      <point x="281" y="-240" type="curve" smooth="yes"/>
    </contour>
  </outline>
</glyph>
<glyph name="egrave" format="1">
  <advance width="594"/>
  <unicode hex="00E8"/>
  <note>
	egrave
  </note>
  <outline>
    <contour>
      <point x="402" y="-15"/>
      <point x="470" y="0"/>
      <point x="526" y="36" type="curve" smooth="yes"/>
      <point x="540" y="45"/>
      <point x="541" y="54"/>
      <point x="533" y="68" type="curve" smooth="yes"/>
      <point x="499" y="132" type="line" smooth="yes"/>
      <point x="492" y="145"/>
      <point x="485" y="148"/>
      <point x="468" y="139" type="curve" smooth="yes"/>
      <point x="437" y="123"/>
      <point x="404" y="109"/>
      <point x="344" y="109" type="curve" smooth="yes"/>
      <point x="255" y="109"/>
      <point x="213" y="142"/>
      <point x="213" y="198" type="curve"/>
      <point x="527" y="198" type="line" smooth="yes"/>
      <point x="557" y="198"/>
      <point x="571" y="215"/>
      <point x="571" y="248" type="curve" smooth="yes"/>
      <point x="571" y="399"/>
      <point x="482" y="495"/>
      <point x="302" y="495" type="curve" smooth="yes"/>
      <point x="122" y="495"/>
      <point x="23" y="404"/>
      <point x="23" y="234" type="curve" smooth="yes"/>
      <point x="23" y="67"/>
      <point x="150" y="-15"/>
      <point x="314" y="-15" type="curve" smooth="yes"/>
    </contour>
    <contour>
      <point x="213" y="345"/>
      <point x="242" y="377"/>
      <point x="303" y="377" type="curve" smooth="yes"/>
      <point x="364" y="377"/>
      <point x="391" y="346"/>
      <point x="391" y="297" type="curve"/>
      <point x="213" y="297" type="line"/>
    </contour>
    <contour>
      <point x="375" y="535" type="line" smooth="yes"/>
      <point x="406" y="535"/>
      <point x="415" y="552"/>
      <point x="406" y="575" type="curve" smooth="yes"/>
      <point x="362" y="696" type="line" smooth="yes"/>
      <point x="353" y="721"/>
      <point x="347" y="730"/>
      <point x="310" y="730" type="curve" smooth="yes"/>
      <point x="190" y="730" type="line" smooth="yes"/>
      <point x="158" y="730"/>
      <point x="141" y="714"/>
      <point x="158" y="683" type="curve" smooth="yes"/>
      <point x="223" y="568" type="line" smooth="yes"/>
      <point x="238" y="542"/>
      <point x="246" y="535"/>
      <point x="286" y="535" type="curve" smooth="yes"/>
    </contour>
  </outline>
</glyph>
<glyph name="ecircumflex" format="1">
  <advance width="594"/>
  <unicode hex="00EA"/>
  <note>
	ecircumflex
  </note>
  <outline>
    <contour>
      <point x="402" y="-15"/>
      <point x="470" y="0"/>
      <point x="526" y="36" type="curve" smooth="yes"/>
      <point x="540" y="45"/>
      <point x="541" y="54"/>
      <point x="533" y="68" type="curve" smooth="yes"/>
      <point x="499" y="132" type="line" smooth="yes"/>
      <point x="492" y="145"/>
      <point x="485" y="148"/>
      <point x="468" y="139" type="curve" smooth="yes"/>
      <point x="437" y="123"/>
      <point x="404" y="109"/>
      <point x="344" y="109" type="curve" smooth="yes"/>
      <point x="255" y="109"/>
      <point x="213" y="142"/>
      <point x="213" y="198" type="curve"/>
      <point x="527" y="198" type="line" smooth="yes"/>
      <point x="557" y="198"/>
      <point x="571" y="215"/>
      <point x="571" y="248" type="curve" smooth="yes"/>
      <point x="571" y="399"/>
      <point x="482" y="495"/>
      <point x="302" y="495" type="curve" smooth="yes"/>
      <point x="122" y="495"/>
      <point x="23" y="404"/>
      <point x="23" y="234" type="curve" smooth="yes"/>
      <point x="23" y="67"/>
      <point x="150" y="-15"/>
      <point x="314" y="-15" type="curve" smooth="yes"/>
    </contour>
    <contour>
      <point x="213" y="345"/>
      <point x="242" y="377"/>
      <point x="303" y="377" type="curve" smooth="yes"/>
      <point x="364" y="377"/>
      <point x="391" y="346"/>
      <point x="391" y="297" type="curve"/>
      <point x="213" y="297" type="line"/>
    </contour>
    <contour>
      <point x="205" y="536" type="line" smooth="yes"/>
      <point x="238" y="536"/>
      <point x="248" y="543"/>
      <point x="260" y="562" type="curve" smooth="yes"/>
      <point x="311" y="639" type="line"/>
      <point x="361" y="562" type="line" smooth="yes"/>
      <point x="374" y="543"/>
      <point x="383" y="536"/>
      <point x="417" y="536" type="curve" smooth="yes"/>
      <point x="492" y="536" type="line" smooth="yes"/>
      <point x="523" y="536"/>
      <point x="533" y="555"/>
      <point x="511" y="583" type="curve" smooth="yes"/>
      <point x="415" y="708" type="line" smooth="yes"/>
      <point x="400" y="728"/>
      <point x="396" y="735"/>
      <point x="361" y="735" type="curve" smooth="yes"/>
      <point x="260" y="735" type="line" smooth="yes"/>
      <point x="225" y="735"/>
      <point x="222" y="728"/>
      <point x="206" y="708" type="curve" smooth="yes"/>
      <point x="110" y="583" type="line" smooth="yes"/>
      <point x="88" y="555"/>
      <point x="98" y="536"/>
      <point x="130" y="536" type="curve" smooth="yes"/>
    </contour>
  </outline>
</glyph>
<glyph name="igrave" format="1">
  <advance width="288"/>
  <unicode hex="00EC"/>
  <note>
	igrave
  </note>
  <outline>
    <contour>
      <point x="192" y="0" type="line" smooth="yes"/>
      <point x="232" y="0"/>
      <point x="245" y="16"/>
      <point x="245" y="50" type="curve" smooth="yes"/>
      <point x="245" y="429" type="line" smooth="yes"/>
      <point x="245" y="463"/>
      <point x="232" y="480"/>
      <point x="192" y="480" type="curve" smooth="yes"/>
      <point x="95" y="480" type="line" smooth="yes"/>
      <point x="56" y="480"/>
      <point x="43" y="463"/>
      <point x="43" y="429" type="curve" smooth="yes"/>
      <point x="43" y="50" type="line" smooth="yes"/>
      <point x="43" y="16"/>
      <point x="56" y="0"/>
      <point x="95" y="0" type="curve" smooth="yes"/>
    </contour>
    <contour>
      <point x="196" y="535" type="line" smooth="yes"/>
      <point x="227" y="535"/>
      <point x="236" y="552"/>
      <point x="227" y="575" type="curve" smooth="yes"/>
      <point x="183" y="696" type="line" smooth="yes"/>
      <point x="174" y="721"/>
      <point x="168" y="730"/>
      <point x="131" y="730" type="curve" smooth="yes"/>
      <point x="11" y="730" type="line" smooth="yes"/>
      <point x="-21" y="730"/>
      <point x="-38" y="714"/>
      <point x="-21" y="683" type="curve" smooth="yes"/>
      <point x="44" y="568" type="line" smooth="yes"/>
      <point x="59" y="542"/>
      <point x="67" y="535"/>
      <point x="107" y="535" type="curve" smooth="yes"/>
    </contour>
  </outline>
</glyph>
<glyph name="idieresis" format="1">
  <advance width="302"/>
  <unicode hex="00EF"/>
  <note>
	idieresis
  </note>
  <outline>
    <contour>
      <point x="199" y="0" type="line" smooth="yes"/>
      <point x="239" y="0"/>
      <point x="252" y="16"/>
      <point x="252" y="50" type="curve" smooth="yes"/>
      <point x="252" y="429" type="line" smooth="yes"/>
      <point x="252" y="463"/>
      <point x="239" y="480"/>
      <point x="199" y="480" type="curve" smooth="yes"/>
      <point x="102" y="480" type="line" smooth="yes"/>
      <point x="63" y="480"/>
      <point x="50" y="463"/>
      <point x="50" y="429" type="curve" smooth="yes"/>
      <point x="50" y="50" type="line" smooth="yes"/>
      <point x="50" y="16"/>
      <point x="63" y="0"/>
      <point x="102" y="0" type="curve" smooth="yes"/>
    </contour>
    <contour>
      <point x="63" y="525" type="line" smooth="yes"/>
      <point x="100" y="525"/>
      <point x="124" y="554"/>
      <point x="124" y="589" type="curve" smooth="yes"/>
      <point x="124" y="614" type="line" smooth="yes"/>
      <point x="124" y="650"/>
      <point x="99" y="678"/>
      <point x="63" y="678" type="curve" smooth="yes"/>
      <point x="36" y="678" type="line" smooth="yes"/>
      <point x="0" y="678"/>
      <point x="-25" y="650"/>
      <point x="-25" y="614" type="curve" smooth="yes"/>
      <point x="-25" y="589" type="line" smooth="yes"/>
      <point x="-25" y="554"/>
      <point x="0" y="525"/>
      <point x="36" y="525" type="curve" smooth="yes"/>
    </contour>
    <contour>
      <point x="277" y="525" type="line" smooth="yes"/>
      <point x="314" y="525"/>
      <point x="338" y="554"/>
      <point x="338" y="589" type="curve" smooth="yes"/>
      <point x="338" y="614" type="line" smooth="yes"/>
      <point x="338" y="650"/>
      <point x="313" y="678"/>
      <point x="277" y="678" type="curve" smooth="yes"/>
      <point x="250" y="678" type="line" smooth="yes"/>
      <point x="215" y="678"/>
      <point x="189" y="650"/>
      <point x="189" y="614" type="curve" smooth="yes"/>
      <point x="189" y="589" type="line" smooth="yes"/>
      <point x="189" y="554"/>
      <point x="215" y="525"/>
      <point x="250" y="525" type="curve" smooth="yes"/>
    </contour>
  </outline>
</glyph>
<glyph name="eth" format="1">
  <advance width="671"/>
  <unicode hex="00F0"/>
  <note>
	eth
  </note>
  <outline>
    <contour>
      <point x="430" y="-15"/>
      <point x="582" y="72"/>
      <point x="631" y="302" type="curve" smooth="yes"/>
      <point x="670" y="485"/>
      <point x="623" y="597"/>
      <point x="535" y="653" type="curve"/>
      <point x="570" y="703" type="line" smooth="yes"/>
      <point x="574" y="709"/>
      <point x="572" y="716"/>
      <point x="562" y="716" type="curve" smooth="yes"/>
      <point x="471" y="716" type="line" smooth="yes"/>
      <point x="463" y="716"/>
      <point x="459" y="712"/>
      <point x="455" y="706" type="curve"/>
      <point x="442" y="688" type="line"/>
      <point x="420" y="693"/>
      <point x="396" y="695"/>
      <point x="372" y="695" type="curve" smooth="yes"/>
      <point x="282" y="695"/>
      <point x="210" y="676"/>
      <point x="153" y="643" type="curve" smooth="yes"/>
      <point x="136" y="633"/>
      <point x="136" y="620"/>
      <point x="142" y="604" type="curve" smooth="yes"/>
      <point x="168" y="533" type="line"/>
      <point x="175" y="516"/>
      <point x="184" y="519"/>
      <point x="203" y="527" type="curve" smooth="yes"/>
      <point x="241" y="543"/>
      <point x="288" y="558"/>
      <point x="331" y="558" type="curve" smooth="yes"/>
      <point x="337" y="558"/>
      <point x="343" y="558"/>
      <point x="349" y="557" type="curve"/>
      <point x="312" y="506" type="line"/>
      <point x="308" y="500"/>
      <point x="310" y="493"/>
      <point x="320" y="493" type="curve" smooth="yes"/>
      <point x="411" y="493" type="line" smooth="yes"/>
      <point x="420" y="493"/>
      <point x="425" y="496"/>
      <point x="430" y="504" type="curve"/>
      <point x="443" y="523" type="line"/>
      <point x="470" y="502"/>
      <point x="477" y="474"/>
      <point x="478" y="420" type="curve"/>
      <point x="439" y="455"/>
      <point x="392" y="475"/>
      <point x="317" y="475" type="curve" smooth="yes"/>
      <point x="141" y="475"/>
      <point x="23" y="364"/>
      <point x="23" y="193" type="curve" smooth="yes"/>
      <point x="23" y="57"/>
      <point x="85" y="-15"/>
      <point x="267" y="-15" type="curve" smooth="yes"/>
    </contour>
    <contour>
      <point x="248" y="128"/>
      <point x="222" y="152"/>
      <point x="222" y="199" type="curve" smooth="yes"/>
      <point x="222" y="320"/>
      <point x="272" y="361"/>
      <point x="346" y="361" type="curve" smooth="yes"/>
      <point x="402" y="361"/>
      <point x="429" y="329"/>
      <point x="420" y="267" type="curve" smooth="yes"/>
      <point x="407" y="177"/>
      <point x="367" y="128"/>
      <point x="297" y="128" type="curve" smooth="yes"/>
    </contour>
  </outline>
</glyph>
<glyph name="ocircumflex" format="1">
  <advance width="625"/>
  <unicode hex="00F4"/>
  <note>
	ocircumflex
  </note>
  <outline>
    <contour>
      <point x="497" y="-15"/>
      <point x="602" y="85"/>
      <point x="602" y="240" type="curve" smooth="yes"/>
      <point x="602" y="395"/>
      <point x="497" y="495"/>
      <point x="312" y="495" type="curve" smooth="yes"/>
      <point x="127" y="495"/>
      <point x="23" y="395"/>
      <point x="23" y="240" type="curve" smooth="yes"/>
      <point x="23" y="85"/>
      <point x="127" y="-15"/>
      <point x="312" y="-15" type="curve" smooth="yes"/>
    </contour>
    <contour>
      <point x="257" y="128"/>
      <point x="224" y="163"/>
      <point x="224" y="240" type="curve" smooth="yes"/>
      <point x="224" y="317"/>
      <point x="257" y="350"/>
      <point x="312" y="350" type="curve" smooth="yes"/>
      <point x="368" y="350"/>
      <point x="400" y="317"/>
      <point x="400" y="240" type="curve" smooth="yes"/>
      <point x="400" y="163"/>
      <point x="368" y="128"/>
      <point x="312" y="128" type="curve" smooth="yes"/>
    </contour>
    <contour>
      <point x="206" y="536" type="line" smooth="yes"/>
      <point x="239" y="536"/>
      <point x="249" y="543"/>
      <point x="261" y="562" type="curve" smooth="yes"/>
      <point x="312" y="639" type="line"/>
      <point x="362" y="562" type="line" smooth="yes"/>
      <point x="375" y="543"/>
      <point x="384" y="536"/>
      <point x="418" y="536" type="curve" smooth="yes"/>
      <point x="493" y="536" type="line" smooth="yes"/>
      <point x="524" y="536"/>
      <point x="534" y="555"/>
      <point x="512" y="583" type="curve" smooth="yes"/>
      <point x="416" y="708" type="line" smooth="yes"/>
      <point x="401" y="728"/>
      <point x="397" y="735"/>
      <point x="362" y="735" type="curve" smooth="yes"/>
      <point x="261" y="735" type="line" smooth="yes"/>
      <point x="226" y="735"/>
      <point x="223" y="728"/>
      <point x="207" y="708" type="curve" smooth="yes"/>
      <point x="111" y="583" type="line" smooth="yes"/>
      <point x="89" y="555"/>
      <point x="99" y="536"/>
      <point x="131" y="536" type="curve" smooth="yes"/>
    </contour>
  </outline>
</glyph>
<glyph name="odieresis" format="1">
  <advance width="625"/>
  <unicode hex="00F6"/>
  <note>
	odieresis
  </note>
  <outline>
    <contour>
      <point x="497" y="-15"/>
      <point x="602" y="85"/>
      <point x="602" y="240" type="curve" smooth="yes"/>
      <point x="602" y="395"/>
      <point x="497" y="495"/>
      <point x="312" y="495" type="curve" smooth="yes"/>
      <point x="127" y="495"/>
      <point x="23" y="395"/>
      <point x="23" y="240" type="curve" smooth="yes"/>
      <point x="23" y="85"/>
      <point x="127" y="-15"/>
      <point x="312" y="-15" type="curve" smooth="yes"/>
    </contour>
    <contour>
      <point x="257" y="128"/>
      <point x="224" y="163"/>
      <point x="224" y="240" type="curve" smooth="yes"/>
      <point x="224" y="317"/>
      <point x="257" y="350"/>
      <point x="312" y="350" type="curve" smooth="yes"/>
      <point x="368" y="350"/>
      <point x="400" y="317"/>
      <point x="400" y="240" type="curve" smooth="yes"/>
      <point x="400" y="163"/>
      <point x="368" y="128"/>
      <point x="312" y="128" type="curve" smooth="yes"/>
    </contour>
    <contour>
      <point x="218" y="531" type="line" smooth="yes"/>
      <point x="255" y="531"/>
      <point x="279" y="560"/>
      <point x="279" y="595" type="curve" smooth="yes"/>
      <point x="279" y="620" type="line" smooth="yes"/>
      <point x="279" y="656"/>
      <point x="254" y="684"/>
      <point x="218" y="684" type="curve" smooth="yes"/>
      <point x="191" y="684" type="line" smooth="yes"/>
      <point x="155" y="684"/>
      <point x="130" y="656"/>
      <point x="130" y="620" type="curve" smooth="yes"/>
      <point x="130" y="595" type="line" smooth="yes"/>
      <point x="130" y="560"/>
      <point x="155" y="531"/>
      <point x="191" y="531" type="curve" smooth="yes"/>
    </contour>
    <contour>
      <point x="432" y="531" type="line" smooth="yes"/>
      <point x="469" y="531"/>
      <point x="493" y="560"/>
      <point x="493" y="595" type="curve" smooth="yes"/>
      <point x="493" y="620" type="line" smooth="yes"/>
      <point x="493" y="656"/>
      <point x="468" y="684"/>
      <point x="432" y="684" type="curve" smooth="yes"/>
      <point x="405" y="684" type="line" smooth="yes"/>
      <point x="370" y="684"/>
      <point x="344" y="656"/>
      <point x="344" y="620" type="curve" smooth="yes"/>
      <point x="344" y="595" type="line" smooth="yes"/>
      <point x="344" y="560"/>
      <point x="370" y="531"/>
      <point x="405" y="531" type="curve" smooth="yes"/>
    </contour>
  </outline>
</glyph>
<glyph name="udieresis" format="1">
  <advance width="603"/>
  <unicode hex="00FC"/>
  <note>
	udieresis
  </note>
  <outline>
    <contour>
      <point x="299" y="-15"/>
      <point x="356" y="11"/>
      <point x="392" y="46" type="curve"/>
      <point x="397" y="15" type="line" smooth="yes"/>
      <point x="399" y="2"/>
      <point x="409" y="0"/>
      <point x="423" y="0" type="curve" smooth="yes"/>
      <point x="526" y="0" type="line" smooth="yes"/>
      <point x="554" y="0"/>
      <point x="560" y="6"/>
      <point x="560" y="31" type="curve" smooth="yes"/>
      <point x="560" y="429" type="line" smooth="yes"/>
      <point x="560" y="463"/>
      <point x="547" y="480"/>
      <point x="507" y="480" type="curve" smooth="yes"/>
      <point x="410" y="480" type="line" smooth="yes"/>
      <point x="371" y="480"/>
      <point x="357" y="463"/>
      <point x="357" y="429" type="curve" smooth="yes"/>
      <point x="357" y="182" type="line" smooth="yes"/>
      <point x="357" y="143"/>
      <point x="335" y="121"/>
      <point x="295" y="121" type="curve" smooth="yes"/>
      <point x="258" y="121"/>
      <point x="240" y="139"/>
      <point x="240" y="178" type="curve" smooth="yes"/>
      <point x="240" y="429" type="line" smooth="yes"/>
      <point x="240" y="463"/>
      <point x="227" y="480"/>
      <point x="187" y="480" type="curve" smooth="yes"/>
      <point x="90" y="480" type="line" smooth="yes"/>
      <point x="51" y="480"/>
      <point x="38" y="463"/>
      <point x="38" y="429" type="curve" smooth="yes"/>
      <point x="38" y="170" type="line" smooth="yes"/>
      <point x="38" y="41"/>
      <point x="111" y="-15"/>
      <point x="222" y="-15" type="curve" smooth="yes"/>
    </contour>
    <contour>
      <point x="202" y="515" type="line" smooth="yes"/>
      <point x="239" y="515"/>
      <point x="263" y="544"/>
      <point x="263" y="579" type="curve" smooth="yes"/>
      <point x="263" y="604" type="line" smooth="yes"/>
      <point x="263" y="640"/>
      <point x="238" y="668"/>
      <point x="202" y="668" type="curve" smooth="yes"/>
      <point x="175" y="668" type="line" smooth="yes"/>
      <point x="139" y="668"/>
      <point x="114" y="640"/>
      <point x="114" y="604" type="curve" smooth="yes"/>
      <point x="114" y="579" type="line" smooth="yes"/>
      <point x="114" y="544"/>
      <point x="139" y="515"/>
      <point x="175" y="515" type="curve" smooth="yes"/>
    </contour>
    <contour>
      <point x="416" y="515" type="line" smooth="yes"/>
      <point x="453" y="515"/>
      <point x="477" y="544"/>
      <point x="477" y="579" type="curve" smooth="yes"/>
      <point x="477" y="604" type="line" smooth="yes"/>
      <point x="477" y="640"/>
      <point x="452" y="668"/>
      <point x="416" y="668" type="curve" smooth="yes"/>
      <point x="389" y="668" type="line" smooth="yes"/>
      <point x="354" y="668"/>
      <point x="328" y="640"/>
      <point x="328" y="604" type="curve" smooth="yes"/>
      <point x="328" y="579" type="line" smooth="yes"/>
      <point x="328" y="544"/>
      <point x="354" y="515"/>
      <point x="389" y="515" type="curve" smooth="yes"/>
    </contour>
  </outline>
</glyph>
<glyph name="yacute" format="1">
  <advance width="607"/>
  <unicode hex="00FD"/>
  <note>
	yacute
  </note>
  <outline>
    <contour>
      <point x="298" y="-156"/>
      <point x="349" y="-90"/>
      <point x="413" y="47" type="curve" smooth="yes"/>
      <point x="599" y="442" type="line" smooth="yes"/>
      <point x="608" y="461"/>
      <point x="605" y="480"/>
      <point x="584" y="480" type="curve" smooth="yes"/>
      <point x="437" y="480" type="line" smooth="yes"/>
      <point x="416" y="480"/>
      <point x="407" y="471"/>
      <point x="401" y="455" type="curve" smooth="yes"/>
      <point x="315" y="227" type="line"/>
      <point x="229" y="455" type="line" smooth="yes"/>
      <point x="223" y="471"/>
      <point x="213" y="480"/>
      <point x="193" y="480" type="curve" smooth="yes"/>
      <point x="46" y="480" type="line" smooth="yes"/>
      <point x="24" y="480"/>
      <point x="21" y="461"/>
      <point x="30" y="442" type="curve" smooth="yes"/>
      <point x="224" y="32" type="line"/>
      <point x="214" y="4"/>
      <point x="202" y="-15"/>
      <point x="170" y="-15" type="curve" smooth="yes"/>
      <point x="144" y="-15"/>
      <point x="128" y="-6"/>
      <point x="110" y="5" type="curve" smooth="yes"/>
      <point x="93" y="15"/>
      <point x="83" y="15"/>
      <point x="74" y="-1" type="curve" smooth="yes"/>
      <point x="34" y="-72" type="line" smooth="yes"/>
      <point x="25" y="-87"/>
      <point x="24" y="-96"/>
      <point x="38" y="-107" type="curve" smooth="yes"/>
      <point x="74" y="-136"/>
      <point x="121" y="-156"/>
      <point x="183" y="-156" type="curve" smooth="yes"/>
    </contour>
    <contour>
      <point x="343" y="551" type="line" smooth="yes"/>
      <point x="383" y="551"/>
      <point x="391" y="558"/>
      <point x="406" y="584" type="curve" smooth="yes"/>
      <point x="471" y="699" type="line" smooth="yes"/>
      <point x="488" y="730"/>
      <point x="471" y="746"/>
      <point x="439" y="746" type="curve" smooth="yes"/>
      <point x="319" y="746" type="line" smooth="yes"/>
      <point x="282" y="746"/>
      <point x="276" y="736"/>
      <point x="267" y="712" type="curve" smooth="yes"/>
      <point x="223" y="591" type="line" smooth="yes"/>
      <point x="215" y="568"/>
      <point x="223" y="551"/>
      <point x="254" y="551" type="curve" smooth="yes"/>
    </contour>
  </outline>
</glyph>
<glyph name="thorn" format="1">
  <advance width="623"/>
  <unicode hex="00FE"/>
  <note>
	thorn
  </note>
  <outline>
    <contour>
      <point x="188" y="-202" type="line" smooth="yes"/>
      <point x="228" y="-202"/>
      <point x="241" y="-186"/>
      <point x="241" y="-152" type="curve" smooth="yes"/>
      <point x="241" y="13" type="line"/>
      <point x="267" y="-5"/>
      <point x="311" y="-15"/>
      <point x="355" y="-15" type="curve" smooth="yes"/>
      <point x="515" y="-15"/>
      <point x="600" y="88"/>
      <point x="600" y="239" type="curve" smooth="yes"/>
      <point x="600" y="409"/>
      <point x="494" y="495"/>
      <point x="318" y="495" type="curve" smooth="yes"/>
      <point x="292" y="495"/>
      <point x="260" y="490"/>
      <point x="241" y="484" type="curve"/>
      <point x="241" y="644" type="line" smooth="yes"/>
      <point x="241" y="678"/>
      <point x="228" y="695"/>
      <point x="188" y="695" type="curve" smooth="yes"/>
      <point x="95" y="695" type="line" smooth="yes"/>
      <point x="56" y="695"/>
      <point x="43" y="678"/>
      <point x="43" y="644" type="curve" smooth="yes"/>
      <point x="43" y="-152" type="line" smooth="yes"/>
      <point x="43" y="-186"/>
      <point x="56" y="-202"/>
      <point x="95" y="-202" type="curve" smooth="yes"/>
    </contour>
    <contour>
      <point x="268" y="120"/>
      <point x="240" y="144"/>
      <point x="240" y="190" type="curve" smooth="yes"/>
      <point x="240" y="349" type="line"/>
      <point x="253" y="355"/>
      <point x="274" y="358"/>
      <point x="293" y="358" type="curve" smooth="yes"/>
      <point x="360" y="358"/>
      <point x="398" y="330"/>
      <point x="398" y="240" type="curve" smooth="yes"/>
      <point x="398" y="170"/>
      <point x="373" y="120"/>
      <point x="313" y="120" type="curve" smooth="yes"/>
    </contour>
  </outline>
</glyph>
<glyph name="ydieresis" format="1">
  <advance width="607"/>
  <unicode hex="00FF"/>
  <note>
	ydieresis
  </note>
  <outline>
    <contour>
      <point x="278" y="-156"/>
      <point x="329" y="-90"/>
      <point x="393" y="47" type="curve" smooth="yes"/>
      <point x="579" y="442" type="line" smooth="yes"/>
      <point x="588" y="461"/>
      <point x="585" y="480"/>
      <point x="564" y="480" type="curve" smooth="yes"/>
      <point x="417" y="480" type="line" smooth="yes"/>
      <point x="396" y="480"/>
      <point x="387" y="471"/>
      <point x="381" y="455" type="curve" smooth="yes"/>
      <point x="295" y="227" type="line"/>
      <point x="209" y="455" type="line" smooth="yes"/>
      <point x="203" y="471"/>
      <point x="193" y="480"/>
      <point x="173" y="480" type="curve" smooth="yes"/>
      <point x="26" y="480" type="line" smooth="yes"/>
      <point x="4" y="480"/>
      <point x="1" y="461"/>
      <point x="10" y="442" type="curve" smooth="yes"/>
      <point x="204" y="32" type="line"/>
      <point x="194" y="4"/>
      <point x="182" y="-15"/>
      <point x="150" y="-15" type="curve" smooth="yes"/>
      <point x="124" y="-15"/>
      <point x="108" y="-6"/>
      <point x="90" y="5" type="curve" smooth="yes"/>
      <point x="73" y="15"/>
      <point x="63" y="15"/>
      <point x="54" y="-1" type="curve" smooth="yes"/>
      <point x="14" y="-72" type="line" smooth="yes"/>
      <point x="5" y="-87"/>
      <point x="4" y="-96"/>
      <point x="18" y="-107" type="curve" smooth="yes"/>
      <point x="54" y="-136"/>
      <point x="101" y="-156"/>
      <point x="163" y="-156" type="curve" smooth="yes"/>
    </contour>
    <contour>
      <point x="204" y="531" type="line" smooth="yes"/>
      <point x="241" y="531"/>
      <point x="265" y="560"/>
      <point x="265" y="595" type="curve" smooth="yes"/>
      <point x="265" y="620" type="line" smooth="yes"/>
      <point x="265" y="656"/>
      <point x="240" y="684"/>
      <point x="204" y="684" type="curve" smooth="yes"/>
      <point x="177" y="684" type="line" smooth="yes"/>
      <point x="141" y="684"/>
      <point x="116" y="656"/>
      <point x="116" y="620" type="curve" smooth="yes"/>
      <point x="116" y="595" type="line" smooth="yes"/>
      <point x="116" y="560"/>
      <point x="141" y="531"/>
      <point x="177" y="531" type="curve" smooth="yes"/>
    </contour>
    <contour>
      <point x="418" y="531" type="line" smooth="yes"/>
      <point x="455" y="531"/>
      <point x="479" y="560"/>
      <point x="479" y="595" type="curve" smooth="yes"/>
      <point x="479" y="620" type="line" smooth="yes"/>
      <point x="479" y="656"/>
      <point x="454" y="684"/>
      <point x="418" y="684" type="curve" smooth="yes"/>
      <point x="391" y="684" type="line" smooth="yes"/>
      <point x="356" y="684"/>
      <point x="330" y="656"/>
      <point x="330" y="620" type="curve" smooth="yes"/>
      <point x="330" y="595" type="line" smooth="yes"/>
      <point x="330" y="560"/>
      <point x="356" y="531"/>
      <point x="391" y="531" type="curve" smooth="yes"/>
    </contour>
  </outline>
</glyph>
<glyph name="aogonek" format="1">
  <advance width="618"/>
  <unicode hex="0105"/>
  <note>
	aogonek
  </note>
  <outline>
    <contour>
      <point x="307" y="-15"/>
      <point x="359" y="4"/>
      <point x="398" y="45" type="curve"/>
      <point x="411" y="15" type="line" smooth="yes"/>
      <point x="416" y="4"/>
      <point x="423" y="0"/>
      <point x="438" y="0" type="curve" smooth="yes"/>
      <point x="540" y="0" type="line" smooth="yes"/>
      <point x="568" y="0"/>
      <point x="575" y="6"/>
      <point x="575" y="31" type="curve" smooth="yes"/>
      <point x="575" y="431" type="line"/>
      <point x="513" y="471"/>
      <point x="438" y="495"/>
      <point x="333" y="495" type="curve" smooth="yes"/>
      <point x="147" y="495"/>
      <point x="23" y="385"/>
      <point x="23" y="216" type="curve" smooth="yes"/>
      <point x="23" y="67"/>
      <point x="107" y="-15"/>
      <point x="230" y="-15" type="curve" smooth="yes"/>
    </contour>
    <contour>
      <point x="495" y="-218"/>
      <point x="527" y="-214"/>
      <point x="553" y="-202" type="curve" smooth="yes"/>
      <point x="566" y="-196"/>
      <point x="566" y="-192"/>
      <point x="563" y="-185" type="curve" smooth="yes"/>
      <point x="542" y="-140" type="line" smooth="yes"/>
      <point x="538" y="-132"/>
      <point x="535" y="-132"/>
      <point x="528" y="-135" type="curve"/>
      <point x="522" y="-138"/>
      <point x="515" y="-139"/>
      <point x="506" y="-139" type="curve" smooth="yes"/>
      <point x="490" y="-139"/>
      <point x="482" y="-129"/>
      <point x="482" y="-112" type="curve" smooth="yes"/>
      <point x="482" y="-83"/>
      <point x="497" y="-65"/>
      <point x="543" y="-9" type="curve" smooth="yes"/>
      <point x="550" y="-1"/>
      <point x="545" y="7"/>
      <point x="533" y="7" type="curve" smooth="yes"/>
      <point x="436" y="7" type="line" smooth="yes"/>
      <point x="423" y="7"/>
      <point x="419" y="3"/>
      <point x="411" y="-6" type="curve" smooth="yes"/>
      <point x="367" y="-56"/>
      <point x="350" y="-93"/>
      <point x="350" y="-129" type="curve" smooth="yes"/>
      <point x="350" y="-177"/>
      <point x="380" y="-218"/>
      <point x="451" y="-218" type="curve" smooth="yes"/>
    </contour>
    <contour>
      <point x="251" y="121"/>
      <point x="224" y="152"/>
      <point x="224" y="218" type="curve" smooth="yes"/>
      <point x="224" y="308"/>
      <point x="270" y="359"/>
      <point x="340" y="359" type="curve" smooth="yes"/>
      <point x="358" y="359"/>
      <point x="375" y="356"/>
      <point x="388" y="350" type="curve"/>
      <point x="388" y="194" type="line" smooth="yes"/>
      <point x="388" y="147"/>
      <point x="357" y="121"/>
      <point x="305" y="121" type="curve" smooth="yes"/>
    </contour>
  </outline>
</glyph>
<glyph name="Cacute" format="1">
  <advance width="679"/>
  <unicode hex="0106"/>
  <note>
	Cacute
  </note>
  <outline>
    <contour>
      <point x="505" y="-15"/>
      <point x="590" y="5"/>
      <point x="645" y="43" type="curve" smooth="yes"/>
      <point x="660" y="54"/>
      <point x="659" y="64"/>
      <point x="651" y="79" type="curve"/>
      <point x="606" y="156" type="line" smooth="yes"/>
      <point x="596" y="173"/>
      <point x="587" y="170"/>
      <point x="570" y="161" type="curve" smooth="yes"/>
      <point x="534" y="142"/>
      <point x="490" y="128"/>
      <point x="425" y="128" type="curve" smooth="yes"/>
      <point x="305" y="128"/>
      <point x="224" y="197"/>
      <point x="224" y="340" type="curve" smooth="yes"/>
      <point x="224" y="481"/>
      <point x="296" y="551"/>
      <point x="418" y="551" type="curve" smooth="yes"/>
      <point x="482" y="551"/>
      <point x="526" y="536"/>
      <point x="559" y="518" type="curve" smooth="yes"/>
      <point x="576" y="509"/>
      <point x="585" y="506"/>
      <point x="595" y="524" type="curve" smooth="yes"/>
      <point x="638" y="597" type="line" smooth="yes"/>
      <point x="647" y="613"/>
      <point x="649" y="626"/>
      <point x="634" y="636" type="curve" smooth="yes"/>
      <point x="579" y="673"/>
      <point x="495" y="695"/>
      <point x="391" y="695" type="curve" smooth="yes"/>
      <point x="157" y="695"/>
      <point x="23" y="575"/>
      <point x="23" y="340" type="curve" smooth="yes"/>
      <point x="23" y="104"/>
      <point x="164" y="-15"/>
      <point x="397" y="-15" type="curve" smooth="yes"/>
    </contour>
    <contour>
      <point x="408" y="741" type="line" smooth="yes"/>
      <point x="448" y="741"/>
      <point x="456" y="748"/>
      <point x="471" y="774" type="curve" smooth="yes"/>
      <point x="536" y="889" type="line" smooth="yes"/>
      <point x="553" y="920"/>
      <point x="536" y="936"/>
      <point x="504" y="936" type="curve" smooth="yes"/>
      <point x="384" y="936" type="line" smooth="yes"/>
      <point x="347" y="936"/>
      <point x="341" y="926"/>
      <point x="332" y="902" type="curve" smooth="yes"/>
      <point x="288" y="781" type="line" smooth="yes"/>
      <point x="280" y="758"/>
      <point x="288" y="741"/>
      <point x="319" y="741" type="curve" smooth="yes"/>
    </contour>
  </outline>
</glyph>
<glyph name="cacute" format="1">
  <advance width="561"/>
  <unicode hex="0107"/>
  <note>
	cacute
  </note>
  <outline>
    <contour>
      <point x="410" y="-15"/>
      <point x="471" y="4"/>
      <point x="525" y="39" type="curve" smooth="yes"/>
      <point x="540" y="49"/>
      <point x="540" y="58"/>
      <point x="532" y="72" type="curve" smooth="yes"/>
      <point x="487" y="149" type="line" smooth="yes"/>
      <point x="477" y="167"/>
      <point x="470" y="166"/>
      <point x="451" y="155" type="curve" smooth="yes"/>
      <point x="421" y="137"/>
      <point x="387" y="121"/>
      <point x="340" y="121" type="curve" smooth="yes"/>
      <point x="269" y="121"/>
      <point x="224" y="161"/>
      <point x="224" y="239" type="curve" smooth="yes"/>
      <point x="224" y="314"/>
      <point x="269" y="359"/>
      <point x="335" y="359" type="curve" smooth="yes"/>
      <point x="385" y="359"/>
      <point x="412" y="346"/>
      <point x="444" y="326" type="curve" smooth="yes"/>
      <point x="461" y="316"/>
      <point x="470" y="314"/>
      <point x="480" y="332" type="curve" smooth="yes"/>
      <point x="521" y="403" type="line" smooth="yes"/>
      <point x="530" y="419"/>
      <point x="533" y="431"/>
      <point x="518" y="442" type="curve" smooth="yes"/>
      <point x="471" y="476"/>
      <point x="412" y="495"/>
      <point x="317" y="495" type="curve" smooth="yes"/>
      <point x="132" y="495"/>
      <point x="23" y="392"/>
      <point x="23" y="239" type="curve" smooth="yes"/>
      <point x="23" y="73"/>
      <point x="129" y="-15"/>
      <point x="315" y="-15" type="curve" smooth="yes"/>
    </contour>
    <contour>
      <point x="336" y="535" type="line" smooth="yes"/>
      <point x="376" y="535"/>
      <point x="384" y="542"/>
      <point x="399" y="568" type="curve" smooth="yes"/>
      <point x="464" y="683" type="line" smooth="yes"/>
      <point x="481" y="714"/>
      <point x="464" y="730"/>
      <point x="432" y="730" type="curve" smooth="yes"/>
      <point x="312" y="730" type="line" smooth="yes"/>
      <point x="275" y="730"/>
      <point x="269" y="720"/>
      <point x="260" y="696" type="curve" smooth="yes"/>
      <point x="216" y="575" type="line" smooth="yes"/>
      <point x="208" y="552"/>
      <point x="216" y="535"/>
      <point x="247" y="535" type="curve" smooth="yes"/>
    </contour>
  </outline>
</glyph>
<glyph name="Ccircumflex" format="1">
  <advance width="679"/>
  <unicode hex="0108"/>
  <note>
	Ccircumflex
  </note>
  <outline>
    <contour>
      <point x="505" y="-15"/>
      <point x="590" y="5"/>
      <point x="645" y="43" type="curve" smooth="yes"/>
      <point x="660" y="54"/>
      <point x="659" y="64"/>
      <point x="651" y="79" type="curve"/>
      <point x="606" y="156" type="line" smooth="yes"/>
      <point x="596" y="173"/>
      <point x="587" y="170"/>
      <point x="570" y="161" type="curve" smooth="yes"/>
      <point x="534" y="142"/>
      <point x="490" y="128"/>
      <point x="425" y="128" type="curve" smooth="yes"/>
      <point x="305" y="128"/>
      <point x="224" y="197"/>
      <point x="224" y="340" type="curve" smooth="yes"/>
      <point x="224" y="481"/>
      <point x="296" y="551"/>
      <point x="418" y="551" type="curve" smooth="yes"/>
      <point x="482" y="551"/>
      <point x="526" y="536"/>
      <point x="559" y="518" type="curve" smooth="yes"/>
      <point x="576" y="509"/>
      <point x="585" y="506"/>
      <point x="595" y="524" type="curve" smooth="yes"/>
      <point x="638" y="597" type="line" smooth="yes"/>
      <point x="647" y="613"/>
      <point x="649" y="626"/>
      <point x="634" y="636" type="curve" smooth="yes"/>
      <point x="579" y="673"/>
      <point x="495" y="695"/>
      <point x="391" y="695" type="curve" smooth="yes"/>
      <point x="157" y="695"/>
      <point x="23" y="575"/>
      <point x="23" y="340" type="curve" smooth="yes"/>
      <point x="23" y="104"/>
      <point x="164" y="-15"/>
      <point x="397" y="-15" type="curve" smooth="yes"/>
    </contour>
    <contour>
      <point x="267" y="730" type="line" smooth="yes"/>
      <point x="300" y="730"/>
      <point x="310" y="737"/>
      <point x="322" y="756" type="curve" smooth="yes"/>
      <point x="373" y="833" type="line"/>
      <point x="423" y="756" type="line" smooth="yes"/>
      <point x="436" y="737"/>
      <point x="445" y="730"/>
      <point x="479" y="730" type="curve" smooth="yes"/>
      <point x="554" y="730" type="line" smooth="yes"/>
      <point x="585" y="730"/>
      <point x="595" y="749"/>
      <point x="573" y="777" type="curve" smooth="yes"/>
      <point x="477" y="902" type="line" smooth="yes"/>
      <point x="462" y="922"/>
      <point x="458" y="929"/>
      <point x="423" y="929" type="curve" smooth="yes"/>
      <point x="322" y="929" type="line" smooth="yes"/>
      <point x="287" y="929"/>
      <point x="284" y="922"/>
      <point x="268" y="902" type="curve" smooth="yes"/>
      <point x="172" y="777" type="line" smooth="yes"/>
      <point x="150" y="749"/>
      <point x="160" y="730"/>
      <point x="192" y="730" type="curve" smooth="yes"/>
    </contour>
  </outline>
</glyph>
<glyph name="ccaron" format="1">
  <advance width="560"/>
  <unicode hex="010D"/>
  <note>
	ccaron
  </note>
  <outline>
    <contour>
      <point x="410" y="-15"/>
      <point x="471" y="4"/>
      <point x="525" y="39" type="curve" smooth="yes"/>
      <point x="540" y="49"/>
      <point x="540" y="58"/>
      <point x="532" y="72" type="curve" smooth="yes"/>
      <point x="487" y="149" type="line" smooth="yes"/>
      <point x="477" y="167"/>
      <point x="470" y="166"/>
      <point x="451" y="155" type="curve" smooth="yes"/>
      <point x="421" y="137"/>
      <point x="387" y="121"/>
      <point x="340" y="121" type="curve" smooth="yes"/>
      <point x="269" y="121"/>
      <point x="224" y="161"/>
      <point x="224" y="239" type="curve" smooth="yes"/>
      <point x="224" y="314"/>
      <point x="269" y="359"/>
      <point x="335" y="359" type="curve" smooth="yes"/>
      <point x="385" y="359"/>
      <point x="412" y="346"/>
      <point x="444" y="326" type="curve" smooth="yes"/>
      <point x="461" y="316"/>
      <point x="470" y="314"/>
      <point x="480" y="332" type="curve" smooth="yes"/>
      <point x="521" y="403" type="line" smooth="yes"/>
      <point x="530" y="419"/>
      <point x="533" y="431"/>
      <point x="518" y="442" type="curve" smooth="yes"/>
      <point x="471" y="476"/>
      <point x="412" y="495"/>
      <point x="317" y="495" type="curve" smooth="yes"/>
      <point x="132" y="495"/>
      <point x="23" y="392"/>
      <point x="23" y="239" type="curve" smooth="yes"/>
      <point x="23" y="73"/>
      <point x="129" y="-15"/>
      <point x="315" y="-15" type="curve" smooth="yes"/>
    </contour>
    <contour>
      <point x="351" y="544" type="line" smooth="yes"/>
      <point x="386" y="544"/>
      <point x="390" y="550"/>
      <point x="405" y="570" type="curve" smooth="yes"/>
      <point x="501" y="695" type="line" smooth="yes"/>
      <point x="523" y="723"/>
      <point x="515" y="742"/>
      <point x="483" y="742" type="curve" smooth="yes"/>
      <point x="406" y="742" type="line" smooth="yes"/>
      <point x="373" y="742"/>
      <point x="364" y="736"/>
      <point x="351" y="717" type="curve" smooth="yes"/>
      <point x="301" y="640" type="line"/>
      <point x="250" y="717" type="line" smooth="yes"/>
      <point x="237" y="736"/>
      <point x="228" y="742"/>
      <point x="195" y="742" type="curve" smooth="yes"/>
      <point x="118" y="742" type="line" smooth="yes"/>
      <point x="86" y="742"/>
      <point x="78" y="723"/>
      <point x="100" y="695" type="curve" smooth="yes"/>
      <point x="196" y="570" type="line" smooth="yes"/>
      <point x="212" y="550"/>
      <point x="215" y="544"/>
      <point x="250" y="544" type="curve" smooth="yes"/>
    </contour>
  </outline>
</glyph>
<glyph name="Dcroat" format="1">
  <advance width="720"/>
  <unicode hex="0110"/>
  <note>
	Dcroat
  </note>
  <outline>
    <contour>
      <point x="346" y="0" type="line" smooth="yes"/>
      <point x="569" y="0"/>
      <point x="697" y="108"/>
      <point x="697" y="340" type="curve" smooth="yes"/>
      <point x="697" y="578"/>
      <point x="569" y="680"/>
      <point x="346" y="680" type="curve" smooth="yes"/>
      <point x="126" y="680" type="line" smooth="yes"/>
      <point x="86" y="680"/>
      <point x="73" y="663"/>
      <point x="73" y="629" type="curve" smooth="yes"/>
      <point x="73" y="413" type="line"/>
      <point x="41" y="413" type="line" smooth="yes"/>
      <point x="2" y="413"/>
      <point x="-7" y="397"/>
      <point x="-7" y="363" type="curve" smooth="yes"/>
      <point x="-7" y="317" type="line" smooth="yes"/>
      <point x="-7" y="284"/>
      <point x="2" y="268"/>
      <point x="41" y="268" type="curve" smooth="yes"/>
      <point x="73" y="268" type="line"/>
      <point x="73" y="50" type="line" smooth="yes"/>
      <point x="73" y="16"/>
      <point x="86" y="0"/>
      <point x="126" y="0" type="curve" smooth="yes"/>
    </contour>
    <contour>
      <point x="276" y="268" type="line"/>
      <point x="366" y="268" type="line" smooth="yes"/>
      <point x="405" y="268"/>
      <point x="415" y="284"/>
      <point x="415" y="317" type="curve" smooth="yes"/>
      <point x="415" y="363" type="line" smooth="yes"/>
      <point x="415" y="397"/>
      <point x="405" y="413"/>
      <point x="366" y="413" type="curve" smooth="yes"/>
      <point x="276" y="413" type="line"/>
      <point x="276" y="534" type="line"/>
      <point x="354" y="534" type="line" smooth="yes"/>
      <point x="447" y="534"/>
      <point x="495" y="489"/>
      <point x="495" y="340" type="curve" smooth="yes"/>
      <point x="495" y="191"/>
      <point x="447" y="145"/>
      <point x="354" y="145" type="curve" smooth="yes"/>
      <point x="276" y="145" type="line"/>
    </contour>
  </outline>
</glyph>
<glyph name="emacron" format="1">
  <advance width="594"/>
  <unicode hex="0113"/>
  <note>
	emacron
  </note>
  <outline>
    <contour>
      <point x="402" y="-15"/>
      <point x="470" y="0"/>
      <point x="526" y="36" type="curve" smooth="yes"/>
      <point x="540" y="45"/>
      <point x="541" y="54"/>
      <point x="533" y="68" type="curve" smooth="yes"/>
      <point x="499" y="132" type="line" smooth="yes"/>
      <point x="492" y="145"/>
      <point x="485" y="148"/>
      <point x="468" y="139" type="curve" smooth="yes"/>
      <point x="437" y="123"/>
      <point x="404" y="109"/>
      <point x="344" y="109" type="curve" smooth="yes"/>
      <point x="255" y="109"/>
      <point x="213" y="142"/>
      <point x="213" y="198" type="curve"/>
      <point x="527" y="198" type="line" smooth="yes"/>
      <point x="557" y="198"/>
      <point x="571" y="215"/>
      <point x="571" y="248" type="curve" smooth="yes"/>
      <point x="571" y="399"/>
      <point x="482" y="495"/>
      <point x="302" y="495" type="curve" smooth="yes"/>
      <point x="122" y="495"/>
      <point x="23" y="404"/>
      <point x="23" y="234" type="curve" smooth="yes"/>
      <point x="23" y="67"/>
      <point x="150" y="-15"/>
      <point x="314" y="-15" type="curve" smooth="yes"/>
    </contour>
    <contour>
      <point x="213" y="345"/>
      <point x="242" y="377"/>
      <point x="303" y="377" type="curve" smooth="yes"/>
      <point x="364" y="377"/>
      <point x="391" y="346"/>
      <point x="391" y="297" type="curve"/>
      <point x="213" y="297" type="line"/>
    </contour>
    <contour>
      <point x="438" y="563" type="line" smooth="yes"/>
      <point x="477" y="563"/>
      <point x="486" y="579"/>
      <point x="486" y="613" type="curve" smooth="yes"/>
      <point x="486" y="659" type="line" smooth="yes"/>
      <point x="486" y="693"/>
      <point x="477" y="709"/>
      <point x="438" y="709" type="curve" smooth="yes"/>
      <point x="169" y="709" type="line" smooth="yes"/>
      <point x="130" y="709"/>
      <point x="120" y="693"/>
      <point x="120" y="659" type="curve" smooth="yes"/>
      <point x="120" y="613" type="line" smooth="yes"/>
      <point x="120" y="579"/>
      <point x="130" y="563"/>
      <point x="169" y="563" type="curve" smooth="yes"/>
    </contour>
  </outline>
</glyph>
<glyph name="Ebreve" format="1">
  <advance width="571"/>
  <unicode hex="0114"/>
  <note>
	Ebreve
  </note>
  <outline>
    <contour>
      <point x="509" y="0" type="line" smooth="yes"/>
      <point x="548" y="0"/>
      <point x="557" y="16"/>
      <point x="557" y="49" type="curve" smooth="yes"/>
      <point x="557" y="95" type="line" smooth="yes"/>
      <point x="557" y="129"/>
      <point x="548" y="145"/>
      <point x="509" y="145" type="curve" smooth="yes"/>
      <point x="245" y="145" type="line"/>
      <point x="245" y="268" type="line"/>
      <point x="420" y="268" type="line" smooth="yes"/>
      <point x="459" y="268"/>
      <point x="469" y="284"/>
      <point x="469" y="318" type="curve" smooth="yes"/>
      <point x="469" y="362" type="line" smooth="yes"/>
      <point x="469" y="396"/>
      <point x="459" y="412"/>
      <point x="420" y="412" type="curve" smooth="yes"/>
      <point x="245" y="412" type="line"/>
      <point x="245" y="534" type="line"/>
      <point x="510" y="534" type="line" smooth="yes"/>
      <point x="549" y="534"/>
      <point x="558" y="550"/>
      <point x="558" y="584" type="curve" smooth="yes"/>
      <point x="558" y="630" type="line" smooth="yes"/>
      <point x="558" y="664"/>
      <point x="549" y="680"/>
      <point x="510" y="680" type="curve" smooth="yes"/>
      <point x="95" y="680" type="line" smooth="yes"/>
      <point x="56" y="680"/>
      <point x="43" y="663"/>
      <point x="43" y="629" type="curve" smooth="yes"/>
      <point x="43" y="50" type="line" smooth="yes"/>
      <point x="43" y="16"/>
      <point x="56" y="0"/>
      <point x="95" y="0" type="curve" smooth="yes"/>
    </contour>
    <contour>
      <point x="436" y="744"/>
      <point x="499" y="819"/>
      <point x="499" y="917" type="curve" smooth="yes"/>
      <point x="499" y="928"/>
      <point x="493" y="935"/>
      <point x="483" y="935" type="curve" smooth="yes"/>
      <point x="375" y="935" type="line" smooth="yes"/>
      <point x="361" y="935"/>
      <point x="358" y="928"/>
      <point x="358" y="916" type="curve" smooth="yes"/>
      <point x="358" y="885"/>
      <point x="343" y="867"/>
      <point x="310" y="867" type="curve" smooth="yes"/>
      <point x="276" y="867"/>
      <point x="262" y="885"/>
      <point x="262" y="916" type="curve" smooth="yes"/>
      <point x="262" y="928"/>
      <point x="259" y="935"/>
      <point x="245" y="935" type="curve" smooth="yes"/>
      <point x="137" y="935" type="line" smooth="yes"/>
      <point x="127" y="935"/>
      <point x="121" y="928"/>
      <point x="121" y="917" type="curve" smooth="yes"/>
      <point x="121" y="819"/>
      <point x="182" y="744"/>
      <point x="310" y="744" type="curve" smooth="yes"/>
    </contour>
  </outline>
</glyph>
